<?xml version="1.0" encoding="UTF-8"?><svg id="a" xmlns="http://www.w3.org/2000/svg" width="225" height="240" xmlns:xlink="http://www.w3.org/1999/xlink" viewBox="0 0 225 240"><defs><style>.l{clip-path:url(#j);}.m{fill:#002361;}.n{clip-path:url(#g);}.o{clip-path:url(#d);}.p{clip-path:url(#i);}.q{clip-path:url(#b);}.r{clip-path:url(#e);}.s{clip-path:url(#f);}.t{clip-path:url(#k);}.u{fill:none;}.v{clip-path:url(#c);}.w{clip-path:url(#h);}</style><clipPath id="b"><rect class="u" width="225" height="240"/></clipPath><clipPath id="c"><rect class="u" width="225" height="240"/></clipPath><clipPath id="d"><rect class="u" width="225" height="240"/></clipPath><clipPath id="e"><rect class="u" width="225" height="240"/></clipPath><clipPath id="f"><rect class="u" width="225" height="240"/></clipPath><clipPath id="g"><rect class="u" width="225" height="240"/></clipPath><clipPath id="h"><rect class="u" width="225" height="240"/></clipPath><clipPath id="i"><rect class="u" width="225" height="240"/></clipPath><clipPath id="j"><rect class="u" width="225" height="240"/></clipPath><clipPath id="k"><rect class="u" width="225" height="240"/></clipPath></defs><g class="q"><path class="m" d="M207.23,21.18l-.07-.03c-28.26-6.04-57.47-9.47-87.39-10.06,40.63,30.79,66.93,76.45,73.07,126.86,10.98-25.24,18.4-56.35,18.4-94.37V26.12c0-2.44-1.72-4.46-4.01-4.94"/></g><g class="v"><path class="m" d="M35.57,152.76c22.61,42.09,54.69,64.89,72.52,74.33,1.91,1.01,3.44,.9,5.04,.01,17.82-9.44,49.96-32.27,72.58-74.42-23.67,10.3-49.62,15.79-75.34,15.79s-51.08-5.32-74.79-15.71"/></g><g class="o"><path class="m" d="M101.39,11.1c-29.93,.59-59.16,4.04-87.42,10.08l-.13,.03c-2.2,.55-3.83,2.53-3.83,4.9v17.47c0,37.93,7.39,68.98,18.33,94.2C34.5,87.46,60.79,41.87,101.39,11.1"/></g><g class="r"><path class="m" d="M110.58,13.58C68.7,43.26,39.99,90.42,35.1,144.39c12.12,5.61,24.58,9.75,37.2,12.5,12.61,2.74,25.37,4.08,38.06,4.08s26.08-1.42,38.77-4.2c12.69-2.79,25.07-6.93,36.91-12.38-4.89-53.98-33.58-101.13-75.47-130.81m-.21,130.79c-19.72,0-38.91-3.49-57.21-10.4,6.43-38.98,26.81-74.28,57.42-99.52,30.59,25.23,50.95,60.5,57.41,99.47-18.4,6.86-38.1,10.45-57.62,10.45"/></g><g class="s"><path class="m" d="M92.6,121.63c0-2.19,1.44-4.01,3.4-4.68,.14-5.05,1.29-12.44,5.33-21.04h-6.06c-5.42,4.11-8.51,8.52-11.86,22.5,.76,.87,1.26,1.98,1.26,3.23h7.92Z"/></g><g class="n"><path class="m" d="M125.05,116.94c1.97,.68,3.4,2.48,3.4,4.68h8.11c0-1.21,.48-2.28,1.2-3.14-3.35-14.05-6.44-18.47-11.88-22.59h-6.16c4.04,8.63,5.19,16,5.33,21.04"/></g><g class="w"><path class="m" d="M102.6,121.63h15.86c0-1.82,1.02-3.34,2.47-4.22-.1-5.38-1.39-12.97-5.74-21.51h-9.32c-4.36,8.54-5.64,16.13-5.75,21.51,1.45,.87,2.47,2.4,2.47,4.22"/></g><g class="p"><polygon class="m" points="99.38 127.88 82.18 127.88 82.18 135.5 139.07 135.5 139.07 127.88 121.67 127.88 99.38 127.88"/></g><g class="l"><path class="m" d="M109.34,60.36h5.28s.57-3.52-2.16-4.49c-.58-3.12-.38-6.09-.78-8.64-.11-1.21-.59-2.29-1.09-2.32-.5,.03-.97,1.1-1.09,2.32-.39,2.54-.2,5.51-.78,8.64-2.74,.97-2.15,4.49-2.15,4.49h2.78Z"/></g><g class="t"><path class="m" d="M119.39,87.97c-.38-4.51,.8-4.9-4.1-4.72l.05-9.11c4.9-1.96,3.72-7.85-.4-8.63-.19-.19-8.51-.19-8.7,0-4.13,.78-5.3,6.67-.4,8.63l-.05,9.11c-4.9-.19-3.73,.21-4.12,4.72,0,0-1.75-.21-2.55,.19-1.17,.59-1.37,1.77-1.96,2.75h26.76c-.58-.97-.79-2.16-1.96-2.75-.78-.4-2.56-.19-2.56-.19"/></g></svg>