<?xml version="1.0" encoding="UTF-8"?><svg id="a" xmlns="http://www.w3.org/2000/svg" width="300" height="96" xmlns:xlink="http://www.w3.org/1999/xlink" viewBox="0 0 300 96"><defs><style>.an{clip-path:url(#ad);}.ao{clip-path:url(#am);}.ap{clip-path:url(#ai);}.aq{clip-path:url(#j);}.ar{clip-path:url(#t);}.as{fill:#002361;}.at{clip-path:url(#g);}.au{clip-path:url(#z);}.av{clip-path:url(#r);}.aw{clip-path:url(#p);}.ax{clip-path:url(#aj);}.ay{clip-path:url(#d);}.az{clip-path:url(#ab);}.ba{clip-path:url(#ac);}.bb{clip-path:url(#aa);}.bc{clip-path:url(#v);}.bd{clip-path:url(#m);}.be{clip-path:url(#x);}.bf{clip-path:url(#i);}.bg{clip-path:url(#b);}.bh{clip-path:url(#e);}.bi{clip-path:url(#f);}.bj{clip-path:url(#l);}.bk{clip-path:url(#o);}.bl{clip-path:url(#af);}.bm{clip-path:url(#n);}.bn{clip-path:url(#q);}.bo{clip-path:url(#k);}.bp{fill:none;}.bq{clip-path:url(#c);}.br{clip-path:url(#u);}.bs{clip-path:url(#ak);}.bt{clip-path:url(#ae);}.bu{clip-path:url(#ah);}.bv{clip-path:url(#s);}.bw{clip-path:url(#ag);}.bx{clip-path:url(#h);}.by{clip-path:url(#y);}.bz{clip-path:url(#al);}.ca{clip-path:url(#w);}</style><clipPath id="b"><rect class="bp" x="15.09" y="22.82" width="47.93" height="51.65"/></clipPath><clipPath id="c"><rect class="bp" x="15.09" y="22.82" width="47.93" height="51.65"/></clipPath><clipPath id="d"><rect class="bp" x="15.09" y="22.82" width="47.93" height="51.65"/></clipPath><clipPath id="e"><rect class="bp" x="15.09" y="22.82" width="47.93" height="51.65"/></clipPath><clipPath id="f"><rect class="bp" x="15.09" y="22.82" width="47.93" height="51.65"/></clipPath><clipPath id="g"><rect class="bp" x="15.09" y="22.82" width="47.93" height="51.65"/></clipPath><clipPath id="h"><rect class="bp" x="15.09" y="22.82" width="47.93" height="51.65"/></clipPath><clipPath id="i"><rect class="bp" x="15.09" y="22.82" width="47.93" height="51.65"/></clipPath><clipPath id="j"><rect class="bp" x="15.09" y="22.82" width="47.93" height="51.65"/></clipPath><clipPath id="k"><rect class="bp" x="15.09" y="22.82" width="47.93" height="51.65"/></clipPath><clipPath id="l"><rect class="bp" x="70.66" y="28.25" width="214.34" height="29.27"/></clipPath><clipPath id="m"><rect class="bp" x="70.66" y="28.25" width="214.34" height="29.27"/></clipPath><clipPath id="n"><rect class="bp" x="70.66" y="28.25" width="214.34" height="29.27"/></clipPath><clipPath id="o"><rect class="bp" x="70.66" y="28.25" width="214.34" height="29.27"/></clipPath><clipPath id="p"><rect class="bp" x="70.66" y="28.25" width="214.34" height="29.27"/></clipPath><clipPath id="q"><rect class="bp" x="70.66" y="28.25" width="214.34" height="29.27"/></clipPath><clipPath id="r"><rect class="bp" x="70.66" y="28.25" width="214.34" height="29.27"/></clipPath><clipPath id="s"><rect class="bp" x="70.66" y="28.25" width="214.34" height="29.27"/></clipPath><clipPath id="t"><rect class="bp" x="70.66" y="28.25" width="214.34" height="29.27"/></clipPath><clipPath id="u"><rect class="bp" x="70.66" y="28.25" width="214.34" height="29.27"/></clipPath><clipPath id="v"><rect class="bp" x="70.66" y="28.25" width="214.34" height="29.27"/></clipPath><clipPath id="w"><rect class="bp" x="70.66" y="28.25" width="214.34" height="29.27"/></clipPath><clipPath id="x"><rect class="bp" x="-36.36" y="-28.81" width="372.72" height="153.61"/></clipPath><clipPath id="y"><rect class="bp" x="-36.36" y="-28.81" width="372.72" height="153.61"/></clipPath><clipPath id="z"><rect class="bp" x="-36.36" y="-28.81" width="372.72" height="153.61"/></clipPath><clipPath id="aa"><rect class="bp" x="-36.36" y="-28.81" width="372.72" height="153.61"/></clipPath><clipPath id="ab"><rect class="bp" x="-36.36" y="-28.81" width="372.72" height="153.61"/></clipPath><clipPath id="ac"><rect class="bp" x="-36.36" y="-28.81" width="372.72" height="153.61"/></clipPath><clipPath id="ad"><rect class="bp" x="-36.36" y="-28.81" width="372.72" height="153.61"/></clipPath><clipPath id="ae"><rect class="bp" x="-36.36" y="-28.81" width="372.72" height="153.61"/></clipPath><clipPath id="af"><rect class="bp" x="-36.36" y="-28.81" width="372.72" height="153.61"/></clipPath><clipPath id="ag"><rect class="bp" x="-36.36" y="-28.81" width="372.72" height="153.61"/></clipPath><clipPath id="ah"><rect class="bp" x="-36.36" y="-28.81" width="372.72" height="153.61"/></clipPath><clipPath id="ai"><rect class="bp" x="-36.36" y="-28.81" width="372.72" height="153.61"/></clipPath><clipPath id="aj"><rect class="bp" x="-36.36" y="-28.81" width="372.72" height="153.61"/></clipPath><clipPath id="ak"><rect class="bp" x="-36.36" y="-28.81" width="372.72" height="153.61"/></clipPath><clipPath id="al"><rect class="bp" x="-36.36" y="-28.81" width="372.72" height="153.61"/></clipPath><clipPath id="am"><rect class="bp" x="-36.36" y="-28.81" width="372.72" height="153.61"/></clipPath></defs><g><g class="bg"><path class="as" d="M62.07,25.22h-.02c-6.73-1.44-13.69-2.26-20.81-2.4,9.68,7.33,15.94,18.21,17.4,30.22,2.61-6.01,4.38-13.42,4.38-22.48v-4.16c0-.58-.41-1.06-.96-1.18"/></g><g class="bq"><path class="as" d="M21.18,56.56c5.38,10.02,13.03,15.46,17.27,17.71,.45,.24,.82,.21,1.2,0,4.24-2.25,11.9-7.69,17.29-17.73-5.64,2.45-11.82,3.76-17.94,3.76s-12.17-1.27-17.82-3.74"/></g><g class="ay"><path class="as" d="M36.86,22.82c-7.13,.14-14.09,.96-20.82,2.4h-.03c-.52,.14-.91,.61-.91,1.18v4.16c0,9.03,1.76,16.43,4.37,22.44,1.47-11.99,7.73-22.85,17.4-30.18"/></g><g class="bh"><path class="as" d="M39.05,23.41c-9.98,7.07-16.82,18.3-17.98,31.16,2.89,1.33,5.86,2.32,8.86,2.98,3,.65,6.04,.97,9.07,.97s6.21-.34,9.23-1c3.02-.66,5.97-1.65,8.79-2.95-1.16-12.86-8-24.09-17.97-31.16m-.05,31.15c-4.7,0-9.27-.83-13.63-2.48,1.53-9.28,6.38-17.69,13.68-23.7,7.29,6.01,12.14,14.41,13.67,23.69-4.38,1.63-9.07,2.49-13.72,2.49"/></g><g class="bi"><path class="as" d="M34.77,49.15c0-.52,.34-.95,.81-1.11,.03-1.2,.31-2.96,1.27-5.01h-1.44c-1.29,.98-2.03,2.03-2.82,5.36,.18,.21,.3,.47,.3,.77,0,0,1.89,0,1.89,0Z"/></g><g class="at"><path class="as" d="M42.5,48.03c.47,.16,.81,.59,.81,1.11h1.93c0-.29,.11-.54,.28-.75-.8-3.35-1.53-4.4-2.83-5.38h-1.47c.96,2.05,1.24,3.81,1.27,5.01"/></g><g class="bx"><path class="as" d="M37.15,49.15h3.78c0-.43,.24-.8,.59-1-.03-1.28-.33-3.09-1.37-5.12h-2.22c-1.04,2.04-1.34,3.84-1.37,5.12,.35,.21,.59,.57,.59,1"/></g><g class="bf"><polygon class="as" points="36.38 50.64 32.28 50.64 32.28 52.45 45.83 52.45 45.83 50.64 41.69 50.64 36.38 50.64"/></g><g class="aq"><path class="as" d="M38.75,34.55h1.26s.14-.84-.51-1.07c-.14-.74-.09-1.45-.19-2.06-.03-.29-.14-.55-.26-.55-.12,0-.23,.26-.26,.55-.09,.6-.05,1.31-.18,2.06-.65,.23-.51,1.07-.51,1.07h.66Z"/></g><g class="bo"><path class="as" d="M41.15,41.13c-.09-1.07,.19-1.17-.98-1.12v-2.17c1.18-.47,.9-1.87-.08-2.06-.05-.05-2.03-.05-2.07,0-.98,.19-1.26,1.59-.1,2.06v2.17c-1.18-.04-.9,.05-.99,1.12,0,0-.42-.05-.61,.05-.28,.14-.33,.42-.47,.65h6.37c-.14-.23-.19-.51-.47-.65-.19-.09-.61-.05-.61-.05"/></g></g><g><g class="bj"><path class="as" d="M76.79,33.51c0-3.76-.34-4.17-2.34-4.34l-.85-.07c-.2-.14-.14-.75,.07-.85,1.96,.07,3.12,.1,4.54,.1s2.51-.03,3.86-.1c.2,.1,.27,.71,.07,.85l-.51,.07c-2,.27-2.07,.74-2.07,4.34v12.57c0,2.67-.14,5.01-.78,6.57-1.12,2.71-3.52,4.88-6.68,4.88-.4,0-1.46-.03-1.46-.71,0-.58,.51-1.56,1.22-1.56,.41,0,.81,.07,1.26,.2,.47,.13,.95,.24,1.42,.24,.71,0,1.12-.41,1.36-.88,.78-1.59,.88-6.67,.88-8.5,0,0,0-12.8,0-12.8Z"/></g><g class="bd"><path class="as" d="M82.08,41.48c0-5.71,4.29-10.09,10.17-10.09,6.6,0,9.92,4.77,9.92,9.8,0,5.77-4.4,9.97-9.92,9.97-6.34,0-10.17-4.54-10.17-9.69m17.23,.6c0-4.71-2.09-9.8-7.54-9.8-2.97,0-6.83,2.03-6.83,8.29,0,4.23,2.06,9.72,7.69,9.72,3.43,0,6.69-2.57,6.69-8.2"/></g><g class="bm"><path class="as" d="M108.66,41.48c-1.37,0-1.43,.06-1.43,.92v4.03c0,3,.14,3.4,1.74,3.57l.83,.09c.17,.11,.11,.63-.06,.71-1.54-.06-2.51-.09-3.63-.09-1.23,0-2.2,.06-3.32,.09-.17-.09-.23-.54-.06-.71l.49-.09c1.6-.29,1.66-.57,1.66-3.57v-10.29c0-3-.2-3.49-1.69-3.6l-.74-.06c-.17-.11-.11-.63,.06-.71,1.4,.03,2.37,.09,3.6,.09,1.12,0,2.09-.03,3.32-.09,.17,.09,.23,.6,.06,.71l-.54,.06c-1.66,.17-1.71,.6-1.71,3.6v3.29c0,.88,.06,.91,1.43,.91h8.17c1.37,0,1.43-.03,1.43-.91v-3.29c0-3-.06-3.43-1.74-3.6l-.54-.06c-.17-.11-.11-.63,.06-.71,1.31,.06,2.29,.09,3.46,.09s2.09-.03,3.37-.09c.17,.09,.23,.6,.06,.71l-.6,.06c-1.66,.17-1.71,.6-1.71,3.6v10.29c0,3,.06,3.37,1.71,3.57l.69,.09c.17,.11,.11,.63-.06,.71-1.37-.06-2.34-.09-3.46-.09-1.17,0-2.2,.03-3.46,.09-.17-.09-.23-.54-.06-.71l.54-.09c1.74-.29,1.74-.57,1.74-3.57v-4.03c0-.86-.06-.92-1.43-.92h-8.17Z"/></g><g class="bk"><path class="as" d="M142.53,45.86c0,.86,0,4.26,.09,5-.06,.17-.23,.31-.54,.31-.34-.48-1.17-1.48-3.66-4.31l-6.63-7.54c-.77-.89-2.71-3.23-3.32-3.86h-.06c-.11,.34-.14,1-.14,1.86v6.23c0,1.34,.03,5.06,.51,5.91,.17,.32,.74,.49,1.46,.54l.88,.09c.17,.23,.14,.57-.06,.71-1.29-.06-2.29-.09-3.34-.09-1.2,0-1.97,.03-2.97,.09-.2-.14-.23-.54-.06-.71l.77-.09c.66-.09,1.11-.26,1.26-.57,.4-1.03,.37-4.51,.37-5.89v-8.26c0-.8-.03-1.4-.63-2.06-.4-.4-1.08-.6-1.77-.69l-.49-.06c-.17-.17-.17-.6,.06-.72,1.2,.09,2.71,.09,3.23,.09,.46,0,.94-.03,1.31-.09,.57,1.46,3.95,5.23,4.89,6.29l2.77,3.11c1.97,2.2,3.37,3.8,4.72,5.17h.06c.12-.14,.12-.6,.12-1.2v-6.12c0-1.34-.03-5.06-.57-5.92-.17-.26-.63-.43-1.77-.57l-.49-.06c-.2-.17-.17-.63,.06-.72,1.32,.06,2.29,.09,3.37,.09,1.23,0,1.97-.03,2.94-.09,.23,.14,.23,.54,.06,.72l-.4,.06c-.91,.14-1.49,.37-1.6,.6-.48,1.03-.43,4.57-.43,5.89v6.83h0Z"/></g><g class="aw"><path class="as" d="M150.08,51.17c-2.4,0-3.91-.74-4.46-1.06-.34-.63-.71-2.66-.77-4,.15-.2,.57-.26,.69-.09,.43,1.46,1.6,4.26,4.92,4.26,2.4,0,3.57-1.57,3.57-3.29,0-1.26-.26-2.66-2.34-4l-2.71-1.77c-1.43-.94-3.09-2.57-3.09-4.91,0-2.71,2.11-4.91,5.83-4.91,.89,0,1.92,.17,2.66,.37,.37,.12,.77,.17,1,.17,.26,.68,.52,2.29,.52,3.49-.11,.17-.57,.26-.72,.09-.37-1.37-1.14-3.23-3.89-3.23s-3.4,1.86-3.4,3.17c0,1.66,1.37,2.86,2.43,3.51l2.29,1.43c1.8,1.11,3.57,2.77,3.57,5.49,0,3.14-2.37,5.29-6.09,5.29"/></g><g class="bn"><path class="as" d="M173.13,39.77c-1.63,0-1.69,.07-1.69,1.08v4.78c0,3.56,.17,4.03,2.07,4.24l.98,.1c.2,.13,.14,.74-.07,.84-1.83-.07-2.98-.1-4.3-.1-1.46,0-2.61,.07-3.93,.1-.2-.1-.27-.64-.07-.84l.58-.1c1.9-.34,1.96-.68,1.96-4.24v-12.2c0-3.56-.24-4.13-2-4.27l-.88-.07c-.2-.13-.14-.75,.07-.85,1.66,.03,2.81,.1,4.27,.1,1.32,0,2.47-.03,3.93-.1,.2,.1,.27,.71,.07,.85l-.64,.07c-1.96,.2-2.03,.71-2.03,4.27v3.9c0,1.05,.07,1.08,1.69,1.08h9.69c1.63,0,1.69-.03,1.69-1.08v-3.9c0-3.56-.07-4.06-2.07-4.27l-.64-.07c-.2-.13-.13-.75,.07-.85,1.56,.07,2.71,.1,4.1,.1s2.47-.03,4-.1c.2,.1,.27,.71,.07,.85l-.71,.07c-1.96,.2-2.03,.71-2.03,4.27v12.2c0,3.56,.07,4,2.03,4.24l.81,.1c.2,.13,.14,.74-.07,.84-1.63-.07-2.78-.1-4.1-.1-1.39,0-2.61,.03-4.1,.1-.2-.1-.27-.64-.07-.84l.64-.1c2.07-.34,2.07-.68,2.07-4.24v-4.78c0-1.02-.07-1.08-1.69-1.08h-9.69Z"/></g><g class="av"><path class="as" d="M189.92,41.48c0-5.71,4.29-10.09,10.17-10.09,6.6,0,9.92,4.77,9.92,9.8,0,5.77-4.4,9.97-9.92,9.97-6.34,0-10.17-4.54-10.17-9.69m17.23,.6c0-4.71-2.09-9.8-7.54-9.8-2.97,0-6.83,2.03-6.83,8.29,0,4.23,2.06,9.72,7.69,9.72,3.43,0,6.69-2.57,6.69-8.2"/></g><g class="bv"><path class="as" d="M215.18,46.43c0,3,.06,3.37,1.89,3.57l.77,.09c.17,.14,.12,.63-.06,.71-1.63-.06-2.57-.09-3.72-.09-1.2,0-2.23,.03-3.49,.09-.17-.09-.23-.54-.06-.71l.6-.09c1.66-.23,1.71-.57,1.71-3.57v-10.54c0-2.43-.06-2.92-1.34-3.06l-1.03-.12c-.2-.17-.17-.6,.06-.71,1.51-.2,3.29-.23,5.66-.23s4.14,.31,5.49,1.14c1.31,.83,2.29,2.31,2.29,4.29,0,2.63-1.63,3.95-2.86,4.55-1.26,.6-2.77,.86-3.94,.86-.2-.08-.2-.51-.03-.57,3.09-.57,4.2-2.32,4.2-4.8,0-2.77-1.63-4.57-4.6-4.57-1.52,0-1.54,.11-1.54,1.03v12.74h0Z"/></g><g class="ar"><path class="as" d="M227.08,36.14c0-3-.06-3.46-1.71-3.6l-.72-.06c-.17-.12-.11-.63,.06-.72,1.4,.06,2.31,.09,3.6,.09,1.12,0,2.09-.03,3.32-.09,.17,.09,.23,.6,.06,.72l-.54,.06c-1.66,.17-1.71,.6-1.71,3.6v3.29c0,.54,.06,1.08,.37,1.08,.26,0,.6-.17,.8-.31,.4-.34,1.14-1.09,1.46-1.37l3.09-3.06c.54-.52,1.94-1.97,2.23-2.37,.14-.2,.2-.34,.2-.46s-.11-.2-.49-.28l-.77-.17c-.2-.2-.17-.57,.06-.72,1,.06,2.14,.09,3.14,.09s1.97-.03,2.83-.09c.2,.14,.23,.54,.06,.72-.74,.06-1.86,.34-2.66,.8-.8,.46-2.4,1.8-4,3.32l-2.57,2.43c-.4,.4-.66,.66-.66,.89,0,.2,.17,.43,.54,.89,2.71,3.11,4.92,5.69,7.15,8.03,.69,.69,1.21,1.06,2.18,1.17l.55,.09c.2,.14,.14,.63-.06,.71-.74-.06-1.53-.09-2.87-.09-1.17,0-2.17,.03-3.49,.09-.2-.06-.28-.55-.11-.71l.66-.12c.4-.06,.69-.14,.69-.28,0-.17-.2-.4-.4-.66-.54-.69-1.28-1.46-2.37-2.69l-2.29-2.57c-1.63-1.83-2.09-2.4-2.77-2.4-.43,0-.49,.37-.49,1.37v3.69c0,3,.06,3.4,1.66,3.57l.77,.09c.17,.11,.11,.63-.06,.71-1.4-.06-2.37-.09-3.49-.09-1.17,0-2.14,.03-3.31,.09-.17-.09-.23-.51-.06-.71l.57-.09c1.51-.23,1.57-.57,1.57-3.57v-10.29h0Z"/></g><g class="br"><path class="as" d="M246.69,36.2c0-3.03-.06-3.52-1.74-3.66l-.71-.06c-.17-.12-.12-.63,.05-.72,1.43,.06,2.4,.09,3.6,.09s2.11-.03,3.54-.09c.17,.09,.23,.6,.06,.72l-.71,.06c-1.69,.14-1.74,.63-1.74,3.66v10.17c0,3.03,.06,3.43,1.74,3.63l.71,.09c.17,.11,.11,.63-.06,.71-1.43-.06-2.4-.09-3.54-.09-1.2,0-2.06,.03-3.49,.09-.17-.09-.23-.54-.06-.71l.6-.09c1.69-.2,1.74-.6,1.74-3.63v-10.17h0Z"/></g><g class="bc"><path class="as" d="M271.41,45.86c0,.86,0,4.26,.09,5-.06,.17-.23,.31-.54,.31-.34-.48-1.17-1.48-3.66-4.31l-6.63-7.54c-.77-.89-2.72-3.23-3.32-3.86h-.06c-.12,.34-.15,1-.15,1.86v6.23c0,1.34,.03,5.06,.52,5.91,.17,.32,.74,.49,1.46,.54l.89,.09c.17,.23,.14,.57-.06,.71-1.29-.06-2.29-.09-3.34-.09-1.2,0-1.97,.03-2.97,.09-.2-.14-.23-.54-.06-.71l.77-.09c.66-.09,1.11-.26,1.26-.57,.4-1.03,.37-4.51,.37-5.89v-8.26c0-.8-.03-1.4-.63-2.06-.4-.4-1.09-.6-1.77-.69l-.49-.06c-.17-.17-.17-.6,.06-.72,1.2,.09,2.71,.09,3.23,.09,.46,0,.94-.03,1.31-.09,.57,1.46,3.94,5.23,4.89,6.29l2.77,3.11c1.97,2.2,3.37,3.8,4.72,5.17h.06c.11-.14,.11-.6,.11-1.2v-6.12c0-1.34-.03-5.06-.57-5.92-.17-.26-.63-.43-1.77-.57l-.49-.06c-.2-.17-.17-.63,.05-.72,1.32,.06,2.29,.09,3.37,.09,1.23,0,1.97-.03,2.94-.09,.23,.14,.23,.54,.06,.72l-.4,.06c-.91,.14-1.49,.37-1.6,.6-.49,1.03-.43,4.57-.43,5.89v6.83h0Z"/></g><g class="ca"><path class="as" d="M278.92,51.17c-2.4,0-3.92-.74-4.46-1.06-.34-.63-.71-2.66-.77-4,.15-.2,.57-.26,.69-.09,.43,1.46,1.6,4.26,4.92,4.26,2.4,0,3.57-1.57,3.57-3.29,0-1.26-.26-2.66-2.34-4l-2.71-1.77c-1.43-.94-3.09-2.57-3.09-4.91,0-2.71,2.11-4.91,5.83-4.91,.88,0,1.91,.17,2.66,.37,.37,.12,.77,.17,1,.17,.26,.68,.52,2.29,.52,3.49-.12,.17-.57,.26-.71,.09-.37-1.37-1.14-3.23-3.89-3.23s-3.4,1.86-3.4,3.17c0,1.66,1.37,2.86,2.43,3.51l2.29,1.43c1.8,1.11,3.57,2.77,3.57,5.49,0,3.14-2.37,5.29-6.09,5.29"/></g></g><g><g class="be"><path class="as" d="M100.08,73.47c-1.24,0-2.02-.38-2.3-.55-.18-.32-.37-1.37-.4-2.07,.08-.1,.3-.13,.35-.04,.22,.75,.83,2.2,2.54,2.2,1.24,0,1.85-.81,1.85-1.7,0-.65-.13-1.37-1.21-2.07l-1.4-.91c-.74-.49-1.6-1.33-1.6-2.54,0-1.4,1.09-2.54,3.01-2.54,.46,0,.99,.09,1.37,.19,.19,.06,.4,.09,.52,.09,.13,.35,.27,1.18,.27,1.8-.06,.09-.3,.13-.37,.04-.19-.71-.59-1.67-2.01-1.67s-1.76,.96-1.76,1.64c0,.85,.71,1.48,1.26,1.82l1.18,.74c.93,.58,1.85,1.43,1.85,2.84,0,1.63-1.23,2.73-3.15,2.73"/></g><g class="by"><path class="as" d="M106.89,64.51c1.08-.84,2.45-1.26,3.99-1.26,.8,0,1.92,.16,2.61,.35,.18,.04,.28,.07,.41,.06,.01,.34,.09,1.27,.21,2.17-.07,.1-.3,.12-.4,.03-.22-1.01-.89-2.16-3.03-2.16-2.26,0-4.18,1.43-4.18,4.49s1.96,4.82,4.39,4.82c1.91,0,2.75-1.24,3.09-2.11,.1-.07,.33-.04,.38,.06-.1,.77-.49,1.74-.71,2.02-.18,.03-.36,.09-.52,.15-.32,.12-1.39,.34-2.33,.34-1.33,0-2.6-.26-3.68-.99-1.18-.81-2.1-2.16-2.1-4.06,0-1.64,.74-3.04,1.86-3.92"/></g><g class="au"><path class="as" d="M119.23,68.47c-.71,0-.74,.03-.74,.47v2.08c0,1.55,.07,1.76,.9,1.85l.43,.05c.09,.06,.06,.33-.03,.37-.8-.03-1.3-.04-1.88-.04-.64,0-1.14,.03-1.71,.04-.09-.04-.12-.28-.03-.37l.25-.05c.83-.15,.85-.3,.85-1.85v-5.32c0-1.55-.1-1.8-.87-1.86l-.38-.03c-.09-.06-.06-.33,.03-.37,.72,.02,1.23,.04,1.86,.04,.58,0,1.08-.01,1.71-.04,.09,.04,.12,.31,.03,.37l-.28,.03c-.86,.09-.89,.31-.89,1.86v1.7c0,.46,.03,.47,.74,.47h4.22c.71,0,.74-.02,.74-.47v-1.7c0-1.55-.03-1.77-.9-1.86l-.28-.03c-.09-.06-.06-.33,.03-.37,.68,.03,1.18,.04,1.79,.04s1.08-.01,1.74-.04c.09,.04,.12,.31,.03,.37l-.31,.03c-.86,.09-.89,.31-.89,1.86v5.32c0,1.55,.03,1.74,.89,1.85l.35,.05c.09,.06,.06,.33-.03,.37-.71-.03-1.21-.04-1.79-.04-.61,0-1.14,.02-1.79,.04-.09-.04-.12-.28-.03-.37l.28-.05c.9-.15,.9-.3,.9-1.85v-2.08c0-.44-.03-.47-.74-.47h-4.22Z"/></g><g class="bb"><path class="as" d="M128.33,68.46c0-2.95,2.22-5.21,5.26-5.21,3.41,0,5.13,2.47,5.13,5.07,0,2.98-2.27,5.15-5.13,5.15-3.28,0-5.26-2.35-5.26-5.01m8.91,.31c0-2.44-1.08-5.07-3.9-5.07-1.54,0-3.53,1.05-3.53,4.28,0,2.19,1.06,5.02,3.97,5.02,1.77,0,3.46-1.33,3.46-4.24"/></g><g class="az"><path class="as" d="M140.8,68.46c0-2.95,2.21-5.21,5.26-5.21,3.41,0,5.13,2.47,5.13,5.07,0,2.98-2.27,5.15-5.13,5.15-3.28,0-5.26-2.35-5.26-5.01m8.91,.31c0-2.44-1.08-5.07-3.9-5.07-1.54,0-3.53,1.05-3.53,4.28,0,2.19,1.06,5.02,3.97,5.02,1.77,0,3.46-1.33,3.46-4.24"/></g><g class="ba"><path class="as" d="M154.37,65.7c0-1.55-.03-1.79-.96-1.86l-.37-.03c-.09-.06-.06-.32,.03-.37,.83,.03,1.33,.04,1.92,.04s1.08-.02,1.82-.04c.09,.04,.12,.31,.03,.37l-.35,.03c-.87,.07-.9,.31-.9,1.86v5.14c0,.93,.04,1.32,.31,1.6,.16,.16,.44,.34,1.61,.34,1.26,0,1.56-.06,1.8-.19,.3-.18,.68-.71,.97-1.46,.09-.07,.37-.01,.37,.09,0,.16-.41,1.67-.62,2.07-.75-.03-2.16-.04-3.68-.04h-1.36c-.62,0-1.09,.02-1.92,.04-.09-.04-.12-.28-.03-.37l.44-.05c.86-.09,.89-.3,.89-1.85v-5.32h0Z"/></g><g class="an"><path class="as" d="M170.57,69.07c-.04,.81-.47,2.23-1.57,3.35-.91,.95-1.71,1.02-2.11,1.02-.95,0-1.57-.69-1.48-1.97,.06-.91,.6-2.35,1.61-3.31,.77-.74,1.43-.96,2.04-.96,1.05,0,1.57,.78,1.51,1.86m-2.69-.71c-.86,1.15-1.43,2.91-1.48,3.69-.03,.52,.18,.95,.61,.95,.32,0,.69-.13,1.17-.77,.65-.87,1.34-2.82,1.37-3.6,.02-.46-.07-.98-.59-.98-.3,0-.65,.13-1.08,.71"/></g><g class="bt"><path class="as" d="M174.85,67.96c-.09,.25-.21,.72-.38,1.37-.44,1.66-.84,3.07-1.31,4.7-.38,1.33-.87,2.08-1.17,2.38-.22,.21-.9,.8-1.77,.8-.8,0-1.08-.5-1.08-.72,0-.3,.18-.55,.34-.66,.12-.09,.25-.05,.34,.06,.35,.37,.8,.61,1.12,.61,.3,0,.6-.1,.95-1.24,.68-2.33,1.2-4.88,1.91-7.28h-1.23c-.15-.13-.09-.41,.1-.55h1.27c.39-1.33,.78-2.48,1.66-3.52,.74-.87,1.51-1.23,2.36-1.23,.55,0,1.14,.38,1.14,.98,0,.38-.4,.84-.64,.84-.13,0-.19-.13-.21-.24-.05-.81-.46-1.08-.83-1.08-.32,0-.72,.3-1.06,.8-.68,.99-.98,2.04-1.38,3.44h1.85c.1,.16,.08,.38-.15,.55,0,0-1.83,0-1.83,0Z"/></g><g class="bl"><path class="as" d="M186.76,69.29c.34,.69,.66,1.37,1.02,2.02h.03c.4-.69,.77-1.46,1.14-2.22l1.39-2.82c.67-1.34,1.09-2.16,1.12-2.84,.5,.04,.81,.04,1.11,.04,.37,0,.86-.02,1.31-.04,.09,.06,.09,.31,.01,.37l-.31,.03c-.93,.09-1.05,.37-1.03,1.4,.03,1.56,.05,4.3,.16,6.42,.04,.74,.03,1.14,.72,1.2l.47,.05c.09,.09,.07,.31-.03,.37-.6-.03-1.21-.04-1.74-.04s-1.18,.01-1.79,.04c-.1-.07-.12-.28-.03-.37l.43-.05c.72-.07,.72-.31,.72-1.26l-.04-6.16h-.03c-.1,.16-.67,1.34-.96,1.92l-1.31,2.59c-.66,1.3-1.33,2.69-1.59,3.37-.03,.04-.09,.06-.15,.06-.03,0-.1-.02-.13-.06-.25-.78-.96-2.23-1.3-2.95l-1.33-2.85c-.31-.68-.62-1.45-.95-2.13h-.03c-.06,.91-.1,1.77-.15,2.63-.04,.9-.1,2.21-.1,3.47,0,1.09,.09,1.33,.66,1.37l.56,.05c.1,.09,.09,.33-.02,.37-.5-.03-1.08-.04-1.64-.04-.47,0-1.01,.01-1.51,.04-.09-.07-.12-.3-.03-.37l.33-.05c.62-.09,.83-.18,.91-1.21,.09-.98,.16-1.79,.25-3.25,.08-1.23,.13-2.48,.16-3.29,.03-.93-.09-1.15-.99-1.27l-.24-.03c-.08-.09-.06-.31,.06-.37,.44,.03,.8,.04,1.17,.04,.34,0,.74,0,1.23-.04-.06,.58,.31,1.49,.77,2.44l1.68,3.41Z"/></g><g class="bw"><path class="as" d="M197.11,65.7c0-1.54-.03-1.76-.9-1.86l-.24-.03c-.09-.06-.06-.32,.03-.37,.64,.03,1.14,.04,1.74,.04h2.78c.94,0,1.82,0,1.99-.04,.09,.25,.18,1.31,.24,1.96-.06,.09-.3,.12-.37,.03-.22-.69-.35-1.21-1.12-1.4-.31-.08-.78-.09-1.43-.09h-1.06c-.44,0-.44,.03-.44,.59v2.95c0,.41,.05,.41,.49,.41h.86c.62,0,1.08-.03,1.26-.09,.18-.06,.28-.15,.36-.52l.12-.6c.07-.09,.32-.09,.38,.01,0,.35-.06,.93-.06,1.49s.06,1.09,.06,1.42c-.06,.1-.31,.1-.38,.01l-.13-.58c-.06-.27-.16-.49-.46-.56-.21-.06-.56-.07-1.14-.07h-.86c-.44,0-.49,.01-.49,.4v2.08c0,.78,.05,1.28,.28,1.54,.18,.18,.49,.34,1.79,.34,1.14,0,1.57-.06,1.89-.22,.27-.15,.66-.67,1.05-1.43,.1-.07,.31-.03,.37,.1-.1,.52-.47,1.65-.66,2.05-1.33-.03-2.64-.04-3.96-.04h-1.33c-.63,0-1.14,.02-2.01,.04-.09-.04-.12-.28-.03-.37l.49-.05c.84-.07,.92-.3,.92-1.85v-5.32h0Z"/></g><g class="bu"><path class="as" d="M206.17,65.41c0-1.03-.07-1.34-.7-1.43l-.32-.04c-.12-.07-.13-.31,.02-.37,1.26-.07,2.45-.12,3.71-.12s2.29,.09,3.25,.44c1.99,.72,3,2.41,3,4.36s-.9,3.49-2.59,4.4c-.96,.52-2.17,.71-3.31,.71-.95,0-1.89-.12-2.41-.12-.62,0-1.15,.02-1.85,.05-.09-.05-.12-.28-.03-.37l.34-.05c.86-.12,.89-.3,.89-1.85v-5.61h0Zm1.21,5.27c0,.78,.05,1.26,.3,1.61,.33,.46,.89,.6,1.82,.6,2.87,0,4.15-1.88,4.15-4.62,0-1.63-.78-4.37-4.65-4.37-.87,0-1.34,.12-1.46,.2-.12,.09-.15,.46-.15,1.12v5.45Z"/></g><g class="ap"><path class="as" d="M217.98,65.73c0-1.57-.03-1.82-.9-1.89l-.37-.03c-.09-.06-.06-.33,.03-.37,.74,.03,1.24,.04,1.86,.04s1.09-.01,1.83-.04c.09,.04,.12,.31,.03,.37l-.37,.03c-.87,.07-.9,.33-.9,1.89v5.26c0,1.57,.03,1.77,.9,1.88l.37,.05c.09,.06,.06,.33-.03,.37-.74-.03-1.24-.04-1.83-.04-.62,0-1.12,.01-1.86,.04-.09-.04-.12-.28-.03-.37l.37-.05c.87-.1,.9-.31,.9-1.88v-5.26Z"/></g><g class="ax"><path class="as" d="M223.89,64.51c1.08-.84,2.45-1.26,3.99-1.26,.8,0,1.92,.16,2.61,.35,.18,.04,.28,.07,.41,.06,.01,.34,.09,1.27,.21,2.17-.07,.1-.3,.12-.4,.03-.22-1.01-.89-2.16-3.03-2.16-2.26,0-4.18,1.43-4.18,4.49s1.96,4.82,4.39,4.82c1.91,0,2.75-1.24,3.09-2.11,.1-.07,.33-.04,.38,.06-.1,.77-.49,1.74-.71,2.02-.18,.03-.35,.09-.52,.15-.33,.12-1.39,.34-2.33,.34-1.33,0-2.6-.26-3.68-.99-1.18-.81-2.1-2.16-2.1-4.06,0-1.64,.74-3.04,1.86-3.92"/></g><g class="bs"><path class="as" d="M234.28,65.73c0-1.57-.03-1.82-.9-1.89l-.37-.03c-.09-.06-.06-.33,.03-.37,.74,.03,1.24,.04,1.86,.04s1.09-.01,1.83-.04c.09,.04,.12,.31,.03,.37l-.37,.03c-.87,.07-.9,.33-.9,1.89v5.26c0,1.57,.03,1.77,.9,1.88l.37,.05c.09,.06,.06,.33-.03,.37-.74-.03-1.24-.04-1.83-.04-.62,0-1.12,.01-1.86,.04-.09-.04-.12-.28-.03-.37l.37-.05c.87-.1,.9-.31,.9-1.88v-5.26Z"/></g><g class="bz"><path class="as" d="M247.96,70.72c0,.44,0,2.2,.04,2.59-.03,.09-.12,.16-.28,.16-.18-.25-.61-.77-1.89-2.23l-3.43-3.9c-.4-.46-1.4-1.67-1.71-1.99h-.03c-.06,.18-.07,.52-.07,.96v3.22c0,.69,.01,2.61,.26,3.06,.09,.16,.38,.25,.75,.28l.46,.05c.09,.12,.07,.3-.03,.37-.66-.03-1.18-.04-1.73-.04-.62,0-1.02,.02-1.54,.04-.1-.07-.12-.28-.03-.37l.4-.05c.34-.04,.58-.13,.65-.3,.21-.53,.19-2.33,.19-3.04v-4.27c0-.41-.01-.72-.33-1.06-.21-.21-.56-.31-.91-.35l-.25-.03c-.09-.09-.09-.31,.03-.37,.62,.04,1.4,.04,1.67,.04,.24,0,.49-.02,.68-.04,.3,.75,2.04,2.7,2.53,3.25l1.43,1.61c1.02,1.14,1.74,1.96,2.44,2.67h.03c.06-.07,.06-.31,.06-.62v-3.16c0-.69-.02-2.61-.3-3.06-.09-.13-.33-.22-.92-.3l-.25-.03c-.1-.09-.09-.32,.03-.37,.68,.03,1.18,.04,1.74,.04,.63,0,1.02-.02,1.52-.04,.12,.07,.12,.28,.03,.37l-.21,.03c-.47,.07-.77,.19-.83,.31-.25,.53-.22,2.36-.22,3.04v3.53h0Z"/></g><g class="ao"><path class="as" d="M251.72,65.7c0-1.54-.03-1.76-.9-1.86l-.24-.03c-.09-.06-.06-.32,.03-.37,.64,.03,1.14,.04,1.74,.04h2.78c.94,0,1.82,0,1.99-.04,.09,.25,.18,1.31,.24,1.96-.06,.09-.3,.12-.37,.03-.22-.69-.35-1.21-1.12-1.4-.31-.08-.78-.09-1.43-.09h-1.06c-.44,0-.44,.03-.44,.59v2.95c0,.41,.05,.41,.49,.41h.86c.62,0,1.08-.03,1.26-.09,.18-.06,.28-.15,.36-.52l.12-.6c.07-.09,.32-.09,.38,.01,0,.35-.06,.93-.06,1.49s.06,1.09,.06,1.42c-.06,.1-.31,.1-.38,.01l-.13-.58c-.06-.27-.16-.49-.46-.56-.21-.06-.56-.07-1.14-.07h-.86c-.44,0-.49,.01-.49,.4v2.08c0,.78,.05,1.28,.28,1.54,.18,.18,.49,.34,1.79,.34,1.14,0,1.57-.06,1.89-.22,.27-.15,.66-.67,1.05-1.43,.1-.07,.31-.03,.37,.1-.1,.52-.47,1.65-.66,2.05-1.33-.03-2.64-.04-3.96-.04h-1.33c-.63,0-1.14,.02-2.01,.04-.09-.04-.12-.28-.03-.37l.49-.05c.84-.07,.92-.3,.92-1.85v-5.32h0Z"/></g></g></svg>