<?xml version="1.0" encoding="UTF-8"?><svg id="a" xmlns="http://www.w3.org/2000/svg" width="300" height="96" xmlns:xlink="http://www.w3.org/1999/xlink" viewBox="0 0 300 96"><defs><style>.bz{clip-path:url(#ad);}.ca{clip-path:url(#am);}.cb{clip-path:url(#ai);}.cc{clip-path:url(#j);}.cd{clip-path:url(#bh);}.ce{clip-path:url(#bd);}.cf{clip-path:url(#bk);}.cg{clip-path:url(#t);}.ch{clip-path:url(#bf);}.ci{fill:#002361;}.cj{clip-path:url(#bi);}.ck{clip-path:url(#bu);}.cl{clip-path:url(#g);}.cm{clip-path:url(#aq);}.cn{clip-path:url(#z);}.co{clip-path:url(#ar);}.cp{clip-path:url(#bl);}.cq{clip-path:url(#r);}.cr{clip-path:url(#p);}.cs{clip-path:url(#aj);}.ct{clip-path:url(#d);}.cu{clip-path:url(#az);}.cv{clip-path:url(#ab);}.cw{clip-path:url(#at);}.cx{clip-path:url(#ac);}.cy{clip-path:url(#bm);}.cz{clip-path:url(#aa);}.da{clip-path:url(#v);}.db{clip-path:url(#m);}.dc{clip-path:url(#x);}.dd{clip-path:url(#i);}.de{clip-path:url(#bn);}.df{clip-path:url(#b);}.dg{clip-path:url(#ap);}.dh{clip-path:url(#bq);}.di{clip-path:url(#ay);}.dj{clip-path:url(#e);}.dk{clip-path:url(#f);}.dl{clip-path:url(#br);}.dm{clip-path:url(#l);}.dn{clip-path:url(#as);}.do{clip-path:url(#av);}.dp{clip-path:url(#an);}.dq{clip-path:url(#o);}.dr{clip-path:url(#af);}.ds{clip-path:url(#n);}.dt{clip-path:url(#q);}.du{clip-path:url(#k);}.dv{clip-path:url(#be);}.dw{clip-path:url(#bv);}.dx{clip-path:url(#bc);}.dy{fill:none;}.dz{clip-path:url(#c);}.ea{clip-path:url(#bw);}.eb{clip-path:url(#bs);}.ec{clip-path:url(#ao);}.ed{clip-path:url(#u);}.ee{clip-path:url(#bt);}.ef{clip-path:url(#au);}.eg{clip-path:url(#ba);}.eh{clip-path:url(#bg);}.ei{clip-path:url(#ak);}.ej{clip-path:url(#bb);}.ek{clip-path:url(#ae);}.el{clip-path:url(#bo);}.em{clip-path:url(#ah);}.en{clip-path:url(#s);}.eo{clip-path:url(#ag);}.ep{clip-path:url(#aw);}.eq{clip-path:url(#bj);}.er{clip-path:url(#h);}.es{clip-path:url(#y);}.et{clip-path:url(#ax);}.eu{clip-path:url(#bp);}.ev{clip-path:url(#bx);}.ew{clip-path:url(#by);}.ex{clip-path:url(#al);}.ey{clip-path:url(#w);}</style><clipPath id="b"><rect class="dy" x="13.21" y="14.31" width="48.46" height="52.21"/></clipPath><clipPath id="c"><rect class="dy" x="13.21" y="14.31" width="48.46" height="52.21"/></clipPath><clipPath id="d"><rect class="dy" x="13.21" y="14.31" width="48.46" height="52.21"/></clipPath><clipPath id="e"><rect class="dy" x="13.21" y="14.31" width="48.46" height="52.21"/></clipPath><clipPath id="f"><rect class="dy" x="13.21" y="14.31" width="48.46" height="52.21"/></clipPath><clipPath id="g"><rect class="dy" x="13.21" y="14.31" width="48.46" height="52.21"/></clipPath><clipPath id="h"><rect class="dy" x="13.21" y="14.31" width="48.46" height="52.21"/></clipPath><clipPath id="i"><rect class="dy" x="13.21" y="14.31" width="48.46" height="52.21"/></clipPath><clipPath id="j"><rect class="dy" x="13.21" y="14.31" width="48.46" height="52.21"/></clipPath><clipPath id="k"><rect class="dy" x="13.21" y="14.31" width="48.46" height="52.21"/></clipPath><clipPath id="l"><rect class="dy" x="13.21" y="14.31" width="48.46" height="52.21"/></clipPath><clipPath id="m"><rect class="dy" x="13.21" y="14.31" width="48.46" height="52.21"/></clipPath><clipPath id="n"><rect class="dy" x="13.21" y="14.31" width="48.46" height="52.21"/></clipPath><clipPath id="o"><rect class="dy" x="13.21" y="14.31" width="48.46" height="52.21"/></clipPath><clipPath id="p"><rect class="dy" x="13.21" y="14.31" width="48.46" height="52.21"/></clipPath><clipPath id="q"><rect class="dy" x="13.21" y="14.31" width="48.46" height="52.21"/></clipPath><clipPath id="r"><rect class="dy" x="13.21" y="14.31" width="48.46" height="52.21"/></clipPath><clipPath id="s"><rect class="dy" x="13.21" y="14.31" width="48.46" height="52.21"/></clipPath><clipPath id="t"><rect class="dy" x="13.21" y="14.31" width="48.46" height="52.21"/></clipPath><clipPath id="u"><rect class="dy" x="13.21" y="14.31" width="48.46" height="52.21"/></clipPath><clipPath id="v"><rect class="dy" x="13.21" y="14.31" width="48.46" height="52.21"/></clipPath><clipPath id="w"><rect class="dy" x="13.21" y="14.31" width="48.46" height="52.21"/></clipPath><clipPath id="x"><rect class="dy" x="13.21" y="14.31" width="48.46" height="52.21"/></clipPath><clipPath id="y"><rect class="dy" x="13.21" y="14.31" width="48.46" height="52.21"/></clipPath><clipPath id="z"><rect class="dy" x="13.21" y="14.31" width="48.46" height="52.21"/></clipPath><clipPath id="aa"><rect class="dy" x="13.21" y="14.31" width="48.46" height="52.21"/></clipPath><clipPath id="ab"><rect class="dy" x="13.21" y="14.31" width="48.46" height="52.21"/></clipPath><clipPath id="ac"><rect class="dy" x="13.21" y="14.31" width="48.46" height="52.21"/></clipPath><clipPath id="ad"><rect class="dy" x="13.21" y="14.31" width="48.46" height="52.21"/></clipPath><clipPath id="ae"><rect class="dy" x="69.79" y="20.21" width="216.7" height="29.59"/></clipPath><clipPath id="af"><rect class="dy" x="69.79" y="20.21" width="216.7" height="29.59"/></clipPath><clipPath id="ag"><rect class="dy" x="69.79" y="20.21" width="216.7" height="29.59"/></clipPath><clipPath id="ah"><rect class="dy" x="69.79" y="20.21" width="216.7" height="29.59"/></clipPath><clipPath id="ai"><rect class="dy" x="69.79" y="20.21" width="216.7" height="29.59"/></clipPath><clipPath id="aj"><rect class="dy" x="69.79" y="20.21" width="216.7" height="29.59"/></clipPath><clipPath id="ak"><rect class="dy" x="69.79" y="20.21" width="216.7" height="29.59"/></clipPath><clipPath id="al"><rect class="dy" x="69.79" y="20.21" width="216.7" height="29.59"/></clipPath><clipPath id="am"><rect class="dy" x="69.79" y="20.21" width="216.7" height="29.59"/></clipPath><clipPath id="an"><rect class="dy" x="69.79" y="20.21" width="216.7" height="29.59"/></clipPath><clipPath id="ao"><rect class="dy" x="69.79" y="20.21" width="216.7" height="29.59"/></clipPath><clipPath id="ap"><rect class="dy" x="69.79" y="20.21" width="216.7" height="29.59"/></clipPath><clipPath id="aq"><rect class="dy" x="-38.41" y="-37.48" width="376.83" height="170.96"/></clipPath><clipPath id="ar"><rect class="dy" x="-38.41" y="-37.48" width="376.83" height="170.96"/></clipPath><clipPath id="as"><rect class="dy" x="-38.41" y="-37.48" width="376.83" height="170.96"/></clipPath><clipPath id="at"><rect class="dy" x="-38.41" y="-37.48" width="376.83" height="170.96"/></clipPath><clipPath id="au"><rect class="dy" x="-38.41" y="-37.48" width="376.83" height="170.96"/></clipPath><clipPath id="av"><rect class="dy" x="-38.41" y="-37.48" width="376.83" height="170.96"/></clipPath><clipPath id="aw"><rect class="dy" x="-38.41" y="-37.48" width="376.83" height="170.96"/></clipPath><clipPath id="ax"><rect class="dy" x="-38.41" y="-37.48" width="376.83" height="170.96"/></clipPath><clipPath id="ay"><rect class="dy" x="-38.41" y="-37.48" width="376.83" height="170.96"/></clipPath><clipPath id="az"><rect class="dy" x="-38.41" y="-37.48" width="376.83" height="170.96"/></clipPath><clipPath id="ba"><rect class="dy" x="-38.41" y="-37.48" width="376.83" height="170.96"/></clipPath><clipPath id="bb"><rect class="dy" x="-38.41" y="-37.48" width="376.83" height="170.96"/></clipPath><clipPath id="bc"><rect class="dy" x="-38.41" y="-37.48" width="376.83" height="170.96"/></clipPath><clipPath id="bd"><rect class="dy" x="-38.41" y="-37.48" width="376.83" height="170.96"/></clipPath><clipPath id="be"><rect class="dy" x="-38.41" y="-37.48" width="376.83" height="170.96"/></clipPath><clipPath id="bf"><rect class="dy" x="-38.41" y="-37.48" width="376.83" height="170.96"/></clipPath><clipPath id="bg"><rect class="dy" x="-38.41" y="-37.48" width="376.83" height="170.96"/></clipPath><clipPath id="bh"><rect class="dy" x="-38.41" y="-37.48" width="376.83" height="170.96"/></clipPath><clipPath id="bi"><rect class="dy" x="-38.41" y="-37.48" width="376.83" height="170.96"/></clipPath><clipPath id="bj"><rect class="dy" x="-38.41" y="-37.48" width="376.83" height="170.96"/></clipPath><clipPath id="bk"><rect class="dy" x="-38.41" y="-37.48" width="376.83" height="170.96"/></clipPath><clipPath id="bl"><rect class="dy" x="-38.41" y="-37.48" width="376.83" height="170.96"/></clipPath><clipPath id="bm"><rect class="dy" x="-38.41" y="-37.48" width="376.83" height="170.96"/></clipPath><clipPath id="bn"><rect class="dy" x="-38.41" y="-37.48" width="376.83" height="170.96"/></clipPath><clipPath id="bo"><rect class="dy" x="-38.41" y="-37.48" width="376.83" height="170.96"/></clipPath><clipPath id="bp"><rect class="dy" x="-38.41" y="-37.48" width="376.83" height="170.96"/></clipPath><clipPath id="bq"><rect class="dy" x="-38.41" y="-37.48" width="376.83" height="170.96"/></clipPath><clipPath id="br"><rect class="dy" x="-38.41" y="-37.48" width="376.83" height="170.96"/></clipPath><clipPath id="bs"><rect class="dy" x="-38.41" y="-37.48" width="376.83" height="170.96"/></clipPath><clipPath id="bt"><rect class="dy" x="-38.41" y="-37.48" width="376.83" height="170.96"/></clipPath><clipPath id="bu"><rect class="dy" x="-38.41" y="-37.48" width="376.83" height="170.96"/></clipPath><clipPath id="bv"><rect class="dy" x="-38.41" y="-37.48" width="376.83" height="170.96"/></clipPath><clipPath id="bw"><rect class="dy" x="-38.41" y="-37.48" width="376.83" height="170.96"/></clipPath><clipPath id="bx"><rect class="dy" x="-38.41" y="-37.48" width="376.83" height="170.96"/></clipPath><clipPath id="by"><rect class="dy" x="-38.41" y="-37.48" width="376.83" height="170.96"/></clipPath></defs><g><g class="df"><path class="ci" d="M38.49,66.1c1.28-.71,2.82-1.68,4.48-2.94v-15.09l-4.48-2.98v21.01Z"/></g><g class="dz"><path class="ci" d="M38.49,34.65l4.48,2.99v-7.62c-1.49-.07-2.99-.11-4.48-.12v4.76Z"/></g><g class="ct"><path class="ci" d="M51.95,30.8c-1.49-.19-2.99-.35-4.49-.48v10.29l4.49,2.99v-12.8Z"/></g><g class="dj"><path class="ci" d="M47.46,51.07v8.21c1.51-1.5,3.03-3.23,4.49-5.21h0s-4.49-3-4.49-3Z"/></g><g class="dk"><path class="ci" d="M51.95,54.07s0,0,0-.01h0s0,.01,0,.01Z"/></g><g class="cl"><path class="ci" d="M56.43,31.48v15.11h.01c1.96-4.05,3.53-8.77,4.42-14.27l-.15-.03c-1.42-.3-2.85-.56-4.28-.81"/></g><g class="er"><polygon class="ci" points="42.98 37.64 42.98 48.08 47.46 51.07 47.46 40.62 42.98 37.64"/></g><g class="dd"><path class="ci" d="M51.95,43.61v10.44h0c1.6-2.17,3.13-4.64,4.47-7.43v-.03l-4.48-2.98Z"/></g><g class="cc"><path class="ci" d="M56.43,46.62s0-.02,.01-.02h-.01s0,.02,0,.02Z"/></g><g class="du"><path class="ci" d="M28.65,48.76c1.32-.37,2.49-1.11,3.38-2.1-.49-.18-1.06-.35-1.72-.5-.49,1.08-1.1,1.95-1.66,2.6"/></g><g class="dm"><path class="ci" d="M21.53,46.66c.89,1,2.06,1.74,3.38,2.1-.56-.65-1.17-1.52-1.66-2.61-.66,.15-1.23,.33-1.72,.5"/></g><g class="db"><path class="ci" d="M26.13,35.78c-.49,.54-1.06,1.29-1.53,2.24,.48,.06,.99,.11,1.53,.13v-2.37Z"/></g><g class="ds"><path class="ci" d="M30.76,44.94c.81,.19,1.5,.42,2.06,.64,.53-.88,.87-1.88,.97-2.95h-2.62c-.05,.84-.2,1.61-.42,2.31"/></g><g class="dq"><path class="ci" d="M24.92,35.19c-1.33,.36-2.49,1.11-3.38,2.1,.49,.18,1.06,.35,1.72,.5,.49-1.08,1.1-1.95,1.66-2.6"/></g><g class="cr"><path class="ci" d="M32.03,37.3c-.89-1-2.06-1.74-3.38-2.1,.56,.65,1.18,1.52,1.66,2.6,.66-.15,1.23-.32,1.72-.5"/></g><g class="dt"><path class="ci" d="M31.18,41.33h2.62c-.1-1.07-.44-2.07-.97-2.95-.56,.22-1.25,.45-2.06,.64,.21,.7,.36,1.48,.42,2.32"/></g><g class="cq"><path class="ci" d="M27.43,48.18c.49-.54,1.07-1.29,1.54-2.25-.48-.06-1-.11-1.54-.13v2.38Z"/></g><g class="en"><path class="ci" d="M26.13,42.63h-2.45c.06,.75,.2,1.44,.41,2.07,.63-.1,1.31-.16,2.04-.19v-1.88Z"/></g><g class="cg"><path class="ci" d="M27.43,44.51c.73,.03,1.42,.09,2.05,.19,.2-.63,.35-1.32,.41-2.07h-2.46v1.88Z"/></g><g class="ed"><path class="ci" d="M28.98,38.03c-.48-.96-1.06-1.72-1.55-2.26v2.38c.55-.02,1.07-.06,1.55-.13"/></g><g class="da"><path class="ci" d="M29.88,41.33c-.06-.75-.2-1.44-.41-2.07-.63,.1-1.31,.16-2.05,.19v1.88h2.46Z"/></g><g class="ey"><path class="ci" d="M24.6,45.93c.48,.95,1.05,1.7,1.53,2.24v-2.37c-.54,.02-1.05,.07-1.53,.13"/></g><g class="dc"><path class="ci" d="M22.8,39.02c-.81-.19-1.5-.42-2.07-.64-.52,.88-.87,1.88-.97,2.95h2.62c.05-.84,.2-1.61,.42-2.32"/></g><g class="es"><path class="ci" d="M26.13,39.45c-.73-.03-1.41-.09-2.04-.19-.21,.63-.35,1.32-.41,2.07h2.45v-1.88Z"/></g><g class="cn"><path class="ci" d="M22.39,42.63h-2.62c.1,1.08,.44,2.07,.97,2.95,.57-.22,1.25-.45,2.07-.64-.21-.7-.36-1.47-.42-2.31"/></g><g class="cz"><path class="ci" d="M14,32.33c3.29,20.35,16.03,30.28,22.38,33.78V29.89c-7.5,.07-14.97,.87-22.22,2.4l-.16,.03Zm12.78,1.31c4.6,0,8.34,3.74,8.34,8.34s-3.74,8.34-8.34,8.34-8.34-3.74-8.34-8.34c0-4.6,3.74-8.34,8.34-8.34"/></g><g class="cv"><path class="ci" d="M60.7,16.77h-.02c-7.5-1.61-15.27-2.46-23.25-2.46s-15.77,.85-23.27,2.46h-.03c-.53,.14-.92,.62-.92,1.19v4.21c0,2.76,.17,5.37,.47,7.84,7.79-1.65,15.79-2.47,23.78-2.47s15.96,.82,23.74,2.47c.3-2.47,.47-5.08,.47-7.84v-4.21c0-.59-.41-1.08-.96-1.19m-5.24,10.41c-5.83-1.11-12.53-1.45-18.02-1.45h0c-5.49,0-12.19,.34-18.02,1.45-.22,.04-.42-.16-.29-.39l3.84-8.47c.04-.08,2.52-1.31,2.52-1.31,3.15-.66,8.34-.37,11.96,.96h.01c3.62-1.33,8.8-1.62,11.95-.96,0,0,2.48,1.23,2.52,1.31l3.83,8.47c.12,.23-.07,.43-.29,.39"/></g><g class="cx"><path class="ci" d="M48.4,18.47l1.61,4.32c-3.76-.52-6.87-.28-11.47,1.22v.4c4.34-.16,9.84-.41,14.28,.55l-2.42-5.57-2-.93Z"/></g><g class="bz"><path class="ci" d="M24.81,22.79l1.61-4.32-2,.93-2.42,5.57c4.44-.96,9.94-.71,14.28-.55v-.4c-4.6-1.51-7.71-1.74-11.47-1.23"/></g></g><g><g class="ek"><path class="ci" d="M75.99,25.52c0-3.8-.34-4.21-2.36-4.39l-.85-.07c-.21-.14-.14-.75,.07-.86,1.99,.07,3.15,.1,4.59,.1s2.54-.03,3.9-.1c.21,.1,.28,.72,.07,.86l-.51,.07c-2.02,.28-2.09,.75-2.09,4.39v12.71c0,2.7-.14,5.07-.79,6.64-1.13,2.74-3.56,4.93-6.75,4.93-.41,0-1.47-.03-1.47-.72,0-.58,.51-1.58,1.23-1.58,.41,0,.82,.07,1.27,.21,.48,.14,.96,.24,1.44,.24,.72,0,1.13-.41,1.37-.89,.79-1.61,.89-6.75,.89-8.6,0,0,0-12.94,0-12.94Z"/></g><g class="dr"><path class="ci" d="M81.33,33.59c0-5.78,4.34-10.2,10.29-10.2,6.67,0,10.03,4.83,10.03,9.91,0,5.84-4.45,10.08-10.03,10.08-6.41,0-10.29-4.59-10.29-9.79m17.42,.61c0-4.77-2.11-9.91-7.63-9.91-3,0-6.9,2.05-6.9,8.38,0,4.27,2.08,9.82,7.77,9.82,3.47,0,6.76-2.6,6.76-8.29"/></g><g class="eo"><path class="ci" d="M108.2,33.59c-1.39,0-1.44,.06-1.44,.93v4.07c0,3.03,.14,3.44,1.76,3.61l.84,.09c.17,.11,.12,.63-.06,.72-1.56-.06-2.54-.09-3.67-.09-1.24,0-2.22,.06-3.35,.09-.17-.09-.23-.55-.06-.72l.49-.09c1.62-.29,1.68-.58,1.68-3.61v-10.4c0-3.03-.2-3.52-1.7-3.64l-.75-.06c-.17-.12-.12-.64,.06-.72,1.42,.03,2.4,.09,3.64,.09,1.13,0,2.11-.03,3.35-.09,.17,.09,.23,.61,.06,.72l-.55,.06c-1.67,.17-1.73,.61-1.73,3.64v3.32c0,.89,.06,.92,1.44,.92h8.26c1.39,0,1.44-.03,1.44-.92v-3.32c0-3.03-.06-3.47-1.76-3.64l-.55-.06c-.17-.12-.12-.64,.06-.72,1.33,.06,2.31,.09,3.49,.09s2.11-.03,3.41-.09c.17,.09,.23,.61,.06,.72l-.61,.06c-1.68,.17-1.73,.61-1.73,3.64v10.4c0,3.03,.06,3.41,1.73,3.61l.69,.09c.17,.11,.12,.63-.06,.72-1.39-.06-2.37-.09-3.5-.09-1.18,0-2.22,.03-3.49,.09-.17-.09-.23-.55-.06-.72l.55-.09c1.76-.29,1.76-.58,1.76-3.61v-4.07c0-.87-.06-.93-1.44-.93h-8.26Z"/></g><g class="em"><path class="ci" d="M142.44,38.01c0,.87,0,4.31,.09,5.06-.06,.17-.23,.32-.55,.32-.35-.49-1.18-1.5-3.7-4.36l-6.7-7.63c-.78-.9-2.74-3.27-3.35-3.9h-.06c-.12,.35-.14,1.01-.14,1.88v6.3c0,1.36,.03,5.11,.52,5.98,.17,.32,.75,.49,1.47,.55l.89,.09c.17,.23,.15,.58-.06,.72-1.3-.06-2.31-.09-3.38-.09-1.21,0-1.99,.03-3.01,.09-.2-.14-.23-.55-.06-.72l.78-.09c.66-.09,1.13-.26,1.27-.58,.4-1.04,.38-4.56,.38-5.95v-8.35c0-.81-.03-1.42-.64-2.08-.4-.4-1.1-.61-1.79-.69l-.49-.06c-.17-.17-.17-.61,.06-.72,1.21,.09,2.74,.09,3.27,.09,.46,0,.95-.03,1.33-.09,.58,1.47,3.99,5.29,4.94,6.36l2.8,3.15c1.99,2.22,3.41,3.84,4.77,5.23h.06c.12-.14,.12-.61,.12-1.21v-6.18c0-1.36-.03-5.11-.58-5.98-.17-.26-.64-.43-1.79-.58l-.49-.06c-.2-.17-.17-.64,.06-.72,1.33,.06,2.31,.09,3.41,.09,1.24,0,1.99-.03,2.97-.09,.23,.15,.23,.55,.06,.72l-.4,.06c-.92,.14-1.5,.38-1.62,.61-.49,1.04-.43,4.62-.43,5.95v6.91h0Z"/></g><g class="cb"><path class="ci" d="M150.08,43.38c-2.43,0-3.96-.75-4.51-1.07-.35-.64-.72-2.69-.78-4.04,.15-.2,.58-.26,.69-.09,.43,1.47,1.62,4.31,4.97,4.31,2.43,0,3.61-1.59,3.61-3.32,0-1.27-.26-2.69-2.37-4.05l-2.74-1.79c-1.44-.95-3.12-2.6-3.12-4.97,0-2.74,2.14-4.97,5.89-4.97,.9,0,1.94,.17,2.69,.37,.37,.12,.78,.17,1.01,.17,.26,.69,.52,2.31,.52,3.52-.12,.17-.58,.26-.72,.09-.37-1.39-1.15-3.27-3.93-3.27s-3.44,1.88-3.44,3.21c0,1.67,1.39,2.89,2.46,3.55l2.31,1.44c1.82,1.13,3.61,2.8,3.61,5.55,0,3.18-2.4,5.34-6.15,5.34"/></g><g class="cs"><path class="ci" d="M173.38,31.86c-1.64,0-1.71,.07-1.71,1.09v4.83c0,3.59,.17,4.08,2.09,4.28l.99,.1c.2,.14,.14,.75-.07,.85-1.85-.07-3.01-.1-4.35-.1-1.47,0-2.64,.07-3.97,.1-.21-.1-.27-.65-.07-.85l.58-.1c1.92-.34,1.99-.69,1.99-4.28v-12.33c0-3.6-.24-4.18-2.02-4.31l-.89-.07c-.21-.14-.14-.75,.07-.86,1.68,.03,2.84,.1,4.32,.1,1.34,0,2.5-.03,3.97-.1,.2,.1,.27,.72,.07,.86l-.65,.07c-1.99,.21-2.05,.72-2.05,4.31v3.94c0,1.06,.07,1.09,1.71,1.09h9.8c1.64,0,1.71-.03,1.71-1.09v-3.94c0-3.6-.07-4.11-2.09-4.31l-.65-.07c-.2-.14-.14-.75,.07-.86,1.57,.07,2.74,.1,4.14,.1s2.5-.03,4.04-.1c.2,.1,.27,.72,.07,.86l-.72,.07c-1.99,.21-2.06,.72-2.06,4.31v12.33c0,3.59,.07,4.04,2.06,4.28l.82,.1c.21,.14,.14,.75-.07,.85-1.64-.07-2.81-.1-4.14-.1-1.4,0-2.64,.03-4.14,.1-.21-.1-.27-.65-.07-.85l.65-.1c2.09-.34,2.09-.69,2.09-4.28v-4.83c0-1.03-.07-1.09-1.71-1.09h-9.8Z"/></g><g class="ei"><path class="ci" d="M190.36,33.59c0-5.78,4.34-10.2,10.29-10.2,6.68,0,10.03,4.83,10.03,9.91,0,5.84-4.45,10.08-10.03,10.08-6.41,0-10.29-4.59-10.29-9.79m17.42,.61c0-4.77-2.11-9.91-7.63-9.91-3,0-6.9,2.05-6.9,8.38,0,4.27,2.08,9.82,7.77,9.82,3.47,0,6.76-2.6,6.76-8.29"/></g><g class="ex"><path class="ci" d="M215.9,38.59c0,3.03,.06,3.41,1.91,3.61l.78,.09c.17,.14,.12,.64-.06,.72-1.65-.06-2.6-.09-3.76-.09-1.21,0-2.25,.03-3.52,.09-.17-.09-.23-.55-.06-.72l.61-.09c1.67-.23,1.73-.58,1.73-3.61v-10.66c0-2.46-.06-2.95-1.36-3.09l-1.04-.12c-.2-.17-.17-.61,.06-.72,1.53-.2,3.32-.23,5.72-.23s4.19,.32,5.55,1.16c1.33,.84,2.31,2.34,2.31,4.33,0,2.66-1.65,3.99-2.89,4.6-1.27,.61-2.8,.87-3.99,.87-.2-.08-.2-.52-.03-.58,3.12-.58,4.25-2.34,4.25-4.86,0-2.8-1.65-4.62-4.65-4.62-1.53,0-1.56,.11-1.56,1.04v12.89h0Z"/></g><g class="ca"><path class="ci" d="M227.93,28.18c0-3.03-.06-3.5-1.73-3.64l-.72-.06c-.17-.12-.11-.64,.06-.72,1.42,.06,2.34,.09,3.64,.09,1.13,0,2.11-.03,3.35-.09,.17,.09,.23,.61,.06,.72l-.55,.06c-1.68,.17-1.73,.61-1.73,3.64v3.33c0,.55,.06,1.1,.38,1.1,.26,0,.61-.17,.81-.32,.4-.35,1.16-1.1,1.47-1.39l3.12-3.09c.55-.52,1.96-1.99,2.25-2.4,.15-.2,.2-.35,.2-.46s-.12-.2-.49-.29l-.78-.17c-.2-.2-.17-.58,.06-.72,1.01,.06,2.17,.09,3.18,.09s1.99-.03,2.86-.09c.2,.15,.23,.55,.06,.72-.75,.06-1.88,.35-2.69,.81-.81,.46-2.43,1.82-4.05,3.35l-2.6,2.45c-.4,.41-.66,.67-.66,.9,0,.2,.17,.43,.55,.9,2.74,3.15,4.97,5.75,7.22,8.12,.69,.69,1.22,1.07,2.2,1.19l.56,.09c.2,.14,.14,.63-.06,.72-.75-.06-1.54-.09-2.9-.09-1.18,0-2.2,.03-3.53,.09-.2-.06-.29-.55-.12-.72l.66-.12c.41-.06,.69-.14,.69-.29,0-.17-.2-.4-.41-.67-.55-.69-1.3-1.47-2.4-2.72l-2.31-2.6c-1.65-1.85-2.11-2.43-2.8-2.43-.43,0-.49,.38-.49,1.39v3.73c0,3.03,.06,3.44,1.68,3.61l.78,.09c.17,.12,.12,.63-.06,.72-1.42-.06-2.4-.09-3.53-.09-1.18,0-2.17,.03-3.35,.09-.17-.09-.23-.52-.06-.72l.58-.09c1.53-.23,1.59-.58,1.59-3.61v-10.4h0Z"/></g><g class="dp"><path class="ci" d="M247.76,28.24c0-3.06-.06-3.56-1.76-3.7l-.72-.06c-.17-.12-.12-.64,.06-.72,1.45,.06,2.43,.09,3.64,.09s2.14-.03,3.58-.09c.17,.09,.23,.61,.06,.72l-.72,.06c-1.7,.14-1.76,.64-1.76,3.7v10.29c0,3.06,.06,3.47,1.76,3.67l.72,.09c.17,.12,.12,.63-.06,.72-1.44-.06-2.43-.09-3.58-.09-1.21,0-2.09,.03-3.53,.09-.17-.09-.23-.55-.06-.72l.61-.09c1.71-.2,1.76-.61,1.76-3.67v-10.29h0Z"/></g><g class="ec"><path class="ci" d="M272.75,38.01c0,.87,0,4.31,.09,5.06-.06,.17-.23,.32-.55,.32-.35-.49-1.18-1.5-3.7-4.36l-6.7-7.63c-.78-.9-2.75-3.27-3.35-3.9h-.06c-.12,.35-.15,1.01-.15,1.88v6.3c0,1.36,.03,5.11,.52,5.98,.17,.32,.75,.49,1.47,.55l.9,.09c.17,.23,.14,.58-.06,.72-1.3-.06-2.31-.09-3.38-.09-1.21,0-1.99,.03-3,.09-.2-.14-.23-.55-.06-.72l.78-.09c.66-.09,1.13-.26,1.27-.58,.4-1.04,.38-4.56,.38-5.95v-8.35c0-.81-.03-1.42-.64-2.08-.4-.4-1.1-.61-1.79-.69l-.49-.06c-.17-.17-.17-.61,.06-.72,1.21,.09,2.74,.09,3.26,.09,.46,0,.95-.03,1.33-.09,.58,1.47,3.99,5.29,4.94,6.36l2.8,3.15c1.99,2.22,3.41,3.84,4.77,5.23h.06c.12-.14,.12-.61,.12-1.21v-6.18c0-1.36-.03-5.11-.58-5.98-.17-.26-.63-.43-1.79-.58l-.49-.06c-.2-.17-.17-.64,.06-.72,1.33,.06,2.31,.09,3.41,.09,1.24,0,1.99-.03,2.97-.09,.23,.15,.23,.55,.06,.72l-.4,.06c-.92,.14-1.5,.38-1.62,.61-.49,1.04-.43,4.62-.43,5.95v6.91h0Z"/></g><g class="dg"><path class="ci" d="M280.34,43.38c-2.43,0-3.96-.75-4.51-1.07-.35-.64-.72-2.69-.78-4.04,.15-.2,.58-.26,.69-.09,.43,1.47,1.62,4.31,4.97,4.31,2.43,0,3.61-1.59,3.61-3.32,0-1.27-.26-2.69-2.37-4.05l-2.74-1.79c-1.45-.95-3.12-2.6-3.12-4.97,0-2.74,2.14-4.97,5.9-4.97,.89,0,1.93,.17,2.69,.37,.38,.12,.78,.17,1.01,.17,.26,.69,.52,2.31,.52,3.52-.12,.17-.58,.26-.72,.09-.38-1.39-1.15-3.27-3.93-3.27s-3.44,1.88-3.44,3.21c0,1.67,1.39,2.89,2.45,3.55l2.31,1.44c1.82,1.13,3.61,2.8,3.61,5.55,0,3.18-2.4,5.34-6.15,5.34"/></g></g><g><g class="cm"><path class="ci" d="M92.13,65.93c-1.25,0-2.05-.39-2.33-.55-.18-.33-.37-1.39-.4-2.09,.08-.1,.3-.14,.36-.04,.23,.76,.84,2.22,2.57,2.22,1.25,0,1.87-.82,1.87-1.72,0-.66-.13-1.39-1.23-2.09l-1.42-.92c-.75-.49-1.61-1.35-1.61-2.57,0-1.42,1.11-2.57,3.05-2.57,.46,0,1,.09,1.39,.19,.2,.06,.4,.09,.52,.09,.13,.36,.27,1.2,.27,1.82-.06,.09-.3,.13-.37,.04-.2-.72-.6-1.69-2.03-1.69s-1.78,.97-1.78,1.66c0,.86,.72,1.49,1.27,1.84l1.19,.75c.94,.58,1.87,1.45,1.87,2.87,0,1.64-1.24,2.76-3.18,2.76"/></g><g class="co"><path class="ci" d="M100.72,60.87c-.72,0-.75,.03-.75,.48v2.11c0,1.57,.07,1.78,.91,1.87l.43,.05c.09,.06,.06,.33-.03,.37-.81-.03-1.31-.04-1.9-.04-.64,0-1.15,.03-1.73,.04-.09-.04-.12-.28-.03-.37l.25-.05c.84-.15,.87-.3,.87-1.87v-5.38c0-1.57-.1-1.82-.88-1.88l-.39-.03c-.09-.06-.06-.33,.03-.37,.73,.02,1.24,.04,1.88,.04,.58,0,1.09-.01,1.73-.04,.09,.04,.12,.31,.03,.37l-.28,.03c-.87,.09-.9,.31-.9,1.88v1.72c0,.46,.03,.48,.75,.48h4.27c.72,0,.75-.02,.75-.48v-1.72c0-1.57-.03-1.79-.91-1.88l-.28-.03c-.09-.06-.06-.33,.03-.37,.69,.03,1.2,.04,1.81,.04s1.09-.01,1.76-.04c.09,.04,.12,.31,.03,.37l-.31,.03c-.87,.09-.9,.31-.9,1.88v5.38c0,1.57,.03,1.76,.9,1.87l.36,.05c.09,.06,.06,.33-.03,.37-.72-.03-1.22-.04-1.81-.04s-1.15,.02-1.81,.04c-.09-.04-.12-.28-.03-.37l.28-.05c.91-.15,.91-.3,.91-1.87v-2.11c0-.45-.03-.48-.75-.48h-4.27Z"/></g><g class="dn"><path class="ci" d="M111.52,58.08c0-1.55-.03-1.78-.91-1.88l-.24-.03c-.09-.06-.06-.33,.03-.37,.64,.03,1.15,.04,1.76,.04h2.81c.96,0,1.84,0,2.02-.04,.09,.25,.18,1.33,.24,1.99-.06,.09-.3,.12-.37,.03-.23-.7-.36-1.22-1.14-1.42-.31-.08-.79-.09-1.45-.09h-1.07c-.45,0-.45,.03-.45,.6v2.99c0,.42,.04,.42,.49,.42h.86c.63,0,1.09-.03,1.27-.09,.18-.06,.28-.15,.36-.52l.12-.61c.07-.09,.33-.09,.39,.01,0,.36-.06,.94-.06,1.51s.06,1.11,.06,1.43c-.06,.1-.31,.1-.39,.01l-.13-.58c-.06-.27-.16-.49-.46-.57-.21-.06-.57-.07-1.15-.07h-.86c-.45,0-.49,.01-.49,.4v2.11c0,.79,.04,1.3,.28,1.55,.18,.18,.49,.34,1.81,.34,1.15,0,1.58-.06,1.91-.22,.27-.15,.67-.67,1.06-1.45,.11-.07,.31-.03,.37,.1-.1,.52-.48,1.67-.67,2.08-1.34-.03-2.67-.04-4-.04h-1.34c-.64,0-1.15,.02-2.03,.04-.09-.04-.12-.28-.03-.37l.49-.05c.85-.07,.93-.3,.93-1.87v-5.38h0Z"/></g><g class="cw"><path class="ci" d="M120.99,58.09c0-1.42-.04-1.67-.65-1.75l-.48-.06c-.1-.07-.1-.31,.02-.37,.84-.07,1.87-.12,3.33-.12,.93,0,1.81,.07,2.5,.45,.72,.37,1.24,1.05,1.24,2.09,0,1.42-1.12,2.2-1.87,2.49-.07,.09,0,.24,.08,.36,1.19,1.93,1.99,3.12,3,3.97,.25,.22,.63,.39,1.03,.42,.08,.03,.09,.15,.01,.21-.13,.04-.37,.08-.66,.08-1.27,0-2.03-.37-3.09-1.88-.39-.55-1-1.58-1.46-2.25-.23-.33-.46-.48-1.06-.48-.67,0-.7,.01-.7,.33v1.88c0,1.57,.03,1.75,.9,1.86l.31,.05c.09,.07,.06,.33-.03,.37-.67-.03-1.18-.04-1.78-.04-.63,0-1.17,.02-1.87,.04-.09-.04-.12-.27-.03-.37l.37-.05c.87-.1,.9-.3,.9-1.86v-5.36h0Zm1.23,2.14c0,.27,0,.43,.04,.49,.04,.04,.27,.07,1.03,.07,.54,0,1.11-.06,1.54-.39,.4-.31,.75-.84,.75-1.85,0-1.18-.73-2.3-2.39-2.3-.93,0-.97,.06-.97,.48v3.49h0Z"/></g><g class="ef"><path class="ci" d="M131.36,58.11c0-1.58-.03-1.84-.91-1.91l-.37-.03c-.09-.06-.06-.33,.03-.37,.75,.03,1.26,.04,1.88,.04s1.11-.01,1.85-.04c.09,.04,.12,.31,.03,.37l-.37,.03c-.88,.07-.91,.33-.91,1.91v5.32c0,1.58,.03,1.79,.91,1.9l.37,.05c.09,.06,.06,.33-.03,.37-.75-.03-1.25-.04-1.85-.04-.63,0-1.14,.01-1.88,.04-.09-.04-.12-.28-.03-.37l.37-.05c.88-.1,.91-.31,.91-1.9v-5.32Z"/></g><g class="do"><path class="ci" d="M137.16,57.78c0-1.04-.07-1.36-.7-1.45l-.33-.04c-.12-.07-.13-.31,.01-.37,1.27-.07,2.48-.12,3.75-.12s2.32,.09,3.29,.45c2.02,.73,3.03,2.43,3.03,4.41s-.91,3.53-2.61,4.45c-.97,.52-2.19,.72-3.34,.72-.96,0-1.91-.12-2.44-.12-.63,0-1.16,.02-1.87,.05-.09-.05-.12-.28-.03-.37l.34-.05c.87-.12,.9-.3,.9-1.87v-5.68h0Zm1.23,5.33c0,.79,.04,1.27,.3,1.63,.33,.46,.9,.61,1.84,.61,2.9,0,4.2-1.9,4.2-4.67,0-1.64-.79-4.42-4.7-4.42-.88,0-1.36,.12-1.48,.21-.12,.09-.15,.46-.15,1.14v5.51h0Z"/></g><g class="ep"><path class="ci" d="M152.95,62.23c-.1-.33-.16-.37-.61-.37h-2.25c-.37,0-.46,.04-.57,.36l-.52,1.57c-.23,.67-.33,1.08-.33,1.24,0,.18,.07,.27,.43,.3l.49,.05c.1,.07,.1,.31-.03,.37-.39-.03-.85-.03-1.55-.05-.49,0-1.03,.03-1.43,.05-.09-.06-.12-.3-.03-.37l.49-.05c.36-.03,.69-.19,.9-.73,.27-.69,.69-1.66,1.31-3.33l1.52-4.03c.21-.54,.3-.82,.25-1.06,.36-.1,.61-.37,.78-.57,.09,0,.19,.03,.22,.13,.19,.66,.43,1.34,.66,2l2.05,6c.43,1.28,.63,1.51,1.27,1.58l.4,.05c.1,.07,.07,.31,0,.37-.61-.03-1.14-.05-1.81-.05-.72,0-1.28,.03-1.72,.05-.12-.06-.13-.3-.03-.37l.43-.05c.31-.03,.52-.12,.52-.27,0-.16-.07-.43-.2-.79l-.66-2.03Zm-2.96-1.33c-.12,.34-.1,.36,.31,.36h1.84c.43,0,.46-.06,.33-.46l-.81-2.43c-.12-.36-.25-.76-.34-.94h-.03c-.04,.08-.19,.43-.36,.88l-.94,2.6Z"/></g><g class="et"><path class="ci" d="M166.87,63.15c0,.45,0,2.23,.04,2.61-.03,.09-.12,.16-.28,.16-.18-.25-.61-.78-1.91-2.25l-3.47-3.94c-.4-.46-1.42-1.69-1.73-2.02h-.03c-.06,.18-.07,.52-.07,.97v3.26c0,.7,.01,2.64,.27,3.09,.09,.16,.39,.25,.76,.28l.46,.05c.09,.12,.07,.3-.03,.37-.67-.03-1.2-.04-1.75-.04-.63,0-1.03,.02-1.55,.04-.11-.07-.12-.28-.03-.37l.4-.05c.34-.04,.58-.13,.66-.3,.21-.54,.19-2.36,.19-3.08v-4.32c0-.42-.02-.73-.33-1.07-.21-.21-.57-.31-.93-.36l-.25-.03c-.09-.09-.09-.31,.03-.37,.63,.04,1.42,.04,1.69,.04,.24,0,.49-.02,.69-.04,.3,.76,2.06,2.73,2.55,3.29l1.45,1.63c1.03,1.15,1.76,1.99,2.46,2.7h.03c.06-.07,.06-.31,.06-.63v-3.2c0-.7-.01-2.64-.3-3.09-.09-.13-.33-.23-.93-.3l-.25-.03c-.1-.09-.09-.33,.03-.37,.69,.03,1.19,.04,1.76,.04,.64,0,1.03-.02,1.54-.04,.12,.07,.12,.28,.03,.37l-.21,.03c-.48,.07-.78,.19-.83,.31-.25,.54-.23,2.39-.23,3.08v3.57h0Z"/></g><g class="di"><path class="ci" d="M175.73,58.08c0-1.57-.03-1.81-.97-1.88l-.37-.03c-.09-.06-.06-.33,.03-.37,.84,.03,1.34,.04,1.94,.04s1.09-.02,1.84-.04c.09,.04,.12,.31,.03,.37l-.36,.03c-.88,.07-.91,.31-.91,1.88v5.2c0,.94,.04,1.33,.31,1.61,.16,.16,.45,.34,1.63,.34,1.27,0,1.58-.06,1.82-.19,.3-.18,.69-.72,.99-1.48,.09-.07,.37-.01,.37,.09,0,.16-.42,1.69-.63,2.09-.76-.03-2.18-.04-3.72-.04h-1.37c-.63,0-1.1,.02-1.94,.04-.09-.04-.12-.28-.03-.37l.45-.05c.87-.09,.9-.3,.9-1.87v-5.38Z"/></g><g class="cu"><path class="ci" d="M184.73,58.11c0-1.58-.03-1.84-.91-1.91l-.37-.03c-.09-.06-.06-.33,.03-.37,.75,.03,1.25,.04,1.88,.04s1.11-.01,1.85-.04c.09,.04,.12,.31,.03,.37l-.37,.03c-.88,.07-.91,.33-.91,1.91v5.32c0,1.58,.03,1.79,.91,1.9l.37,.05c.09,.06,.06,.33-.03,.37-.75-.03-1.25-.04-1.85-.04s-1.14,.01-1.88,.04c-.09-.04-.12-.28-.03-.37l.37-.05c.88-.1,.91-.31,.91-1.9v-5.32Z"/></g><g class="eg"><path class="ci" d="M190.53,57.78c0-1.11-.06-1.39-.73-1.45l-.48-.05c-.12-.09-.1-.31,.01-.37,.81-.07,1.82-.12,3.21-.12,.94,0,1.84,.07,2.51,.42,.64,.31,1.14,.91,1.14,1.87,0,1.08-.63,1.63-1.52,2.05,0,.15,.12,.19,.28,.22,.81,.15,2,.9,2,2.5,0,1.73-1.28,2.9-3.97,2.9-.43,0-1.16-.04-1.79-.04s-1.16,.03-1.72,.04c-.09-.04-.12-.28-.03-.37l.27-.05c.79-.13,.82-.3,.82-1.87v-5.68h0Zm1.22,1.99c0,.42,.02,.45,.78,.42,1.52-.06,2.35-.51,2.35-1.91s-1.09-2.02-2.23-2.02c-.33,0-.55,.03-.69,.09-.15,.04-.21,.12-.21,.39v3.03Zm0,3.46c0,.54,.03,1.3,.32,1.63,.28,.34,.73,.42,1.18,.42,1.33,0,2.35-.6,2.35-2.09,0-1.18-.6-2.55-2.97-2.55-.81,0-.87,.09-.87,.39v2.21Z"/></g><g class="ej"><path class="ci" d="M200.29,58.09c0-1.42-.04-1.67-.66-1.75l-.48-.06c-.11-.07-.11-.31,.01-.37,.84-.07,1.87-.12,3.33-.12,.93,0,1.81,.07,2.49,.45,.72,.37,1.24,1.05,1.24,2.09,0,1.42-1.12,2.2-1.87,2.49-.07,.09,0,.24,.07,.36,1.19,1.93,1.99,3.12,3,3.97,.25,.22,.63,.39,1.03,.42,.08,.03,.09,.15,.02,.21-.13,.04-.37,.08-.66,.08-1.27,0-2.03-.37-3.09-1.88-.39-.55-1-1.58-1.46-2.25-.23-.33-.46-.48-1.06-.48-.67,0-.7,.01-.7,.33v1.88c0,1.57,.03,1.75,.9,1.86l.31,.05c.09,.07,.06,.33-.03,.37-.67-.03-1.18-.04-1.78-.04-.63,0-1.16,.02-1.87,.04-.09-.04-.12-.27-.03-.37l.37-.05c.87-.1,.9-.3,.9-1.86v-5.36h0Zm1.22,2.14c0,.27,0,.43,.05,.49,.04,.04,.27,.07,1.03,.07,.54,0,1.1-.06,1.54-.39,.4-.31,.75-.84,.75-1.85,0-1.18-.73-2.3-2.39-2.3-.93,0-.97,.06-.97,.48v3.49h0Z"/></g><g class="dx"><path class="ci" d="M214.83,62.23c-.1-.33-.16-.37-.61-.37h-2.26c-.37,0-.46,.04-.57,.36l-.52,1.57c-.22,.67-.33,1.08-.33,1.24,0,.18,.08,.27,.43,.3l.49,.05c.1,.07,.1,.31-.03,.37-.39-.03-.85-.03-1.55-.05-.49,0-1.03,.03-1.43,.05-.09-.06-.12-.3-.03-.37l.49-.05c.36-.03,.69-.19,.9-.73,.27-.69,.69-1.66,1.31-3.33l1.52-4.03c.21-.54,.3-.82,.25-1.06,.36-.1,.61-.37,.78-.57,.09,0,.19,.03,.22,.13,.2,.66,.43,1.34,.66,2l2.05,6c.43,1.28,.63,1.51,1.27,1.58l.4,.05c.11,.07,.08,.31,0,.37-.61-.03-1.13-.05-1.81-.05-.72,0-1.28,.03-1.72,.05-.12-.06-.13-.3-.03-.37l.43-.05c.31-.03,.52-.12,.52-.27,0-.16-.08-.43-.19-.79l-.66-2.03Zm-2.96-1.33c-.12,.34-.1,.36,.31,.36h1.84c.43,0,.46-.06,.33-.46l-.81-2.43c-.12-.36-.25-.76-.34-.94h-.03c-.04,.08-.19,.43-.36,.88l-.94,2.6Z"/></g><g class="ce"><path class="ci" d="M220.69,58.09c0-1.42-.04-1.67-.65-1.75l-.48-.06c-.1-.07-.1-.31,.02-.37,.84-.07,1.87-.12,3.33-.12,.93,0,1.81,.07,2.5,.45,.72,.37,1.24,1.05,1.24,2.09,0,1.42-1.12,2.2-1.87,2.49-.07,.09,0,.24,.08,.36,1.19,1.93,1.99,3.12,3,3.97,.25,.22,.63,.39,1.03,.42,.08,.03,.09,.15,.01,.21-.13,.04-.37,.08-.66,.08-1.27,0-2.03-.37-3.09-1.88-.39-.55-1-1.58-1.46-2.25-.23-.33-.46-.48-1.06-.48-.67,0-.7,.01-.7,.33v1.88c0,1.57,.03,1.75,.9,1.86l.31,.05c.09,.07,.06,.33-.03,.37-.67-.03-1.18-.04-1.78-.04-.63,0-1.17,.02-1.87,.04-.09-.04-.12-.27-.03-.37l.37-.05c.87-.1,.9-.3,.9-1.86v-5.36h0Zm1.23,2.14c0,.27,0,.43,.04,.49,.04,.04,.27,.07,1.03,.07,.54,0,1.11-.06,1.54-.39,.4-.31,.75-.84,.75-1.85,0-1.18-.73-2.3-2.39-2.3-.93,0-.97,.06-.97,.48v3.49Z"/></g><g class="dv"><path class="ci" d="M231.06,58.11c0-1.58-.03-1.84-.91-1.91l-.37-.03c-.09-.06-.06-.33,.03-.37,.75,.03,1.25,.04,1.88,.04s1.11-.01,1.85-.04c.09,.04,.12,.31,.03,.37l-.37,.03c-.88,.07-.91,.33-.91,1.91v5.32c0,1.58,.03,1.79,.91,1.9l.37,.05c.09,.06,.06,.33-.03,.37-.75-.03-1.26-.04-1.85-.04-.63,0-1.14,.01-1.88,.04-.09-.04-.12-.28-.03-.37l.37-.05c.88-.1,.91-.31,.91-1.9v-5.32Z"/></g><g class="ch"><path class="ci" d="M236.85,58.08c0-1.55-.03-1.78-.91-1.88l-.24-.03c-.09-.06-.06-.33,.03-.37,.64,.03,1.15,.04,1.76,.04h2.81c.95,0,1.84,0,2.02-.04,.09,.25,.18,1.33,.24,1.99-.06,.09-.3,.12-.37,.03-.22-.7-.36-1.22-1.14-1.42-.31-.08-.79-.09-1.45-.09h-1.07c-.45,0-.45,.03-.45,.6v2.99c0,.42,.05,.42,.49,.42h.86c.63,0,1.09-.03,1.27-.09,.18-.06,.28-.15,.36-.52l.12-.61c.07-.09,.33-.09,.39,.01,0,.36-.06,.94-.06,1.51s.06,1.11,.06,1.43c-.06,.1-.31,.1-.39,.01l-.14-.58c-.06-.27-.16-.49-.46-.57-.21-.06-.57-.07-1.15-.07h-.86c-.45,0-.49,.01-.49,.4v2.11c0,.79,.05,1.3,.28,1.55,.18,.18,.49,.34,1.81,.34,1.15,0,1.58-.06,1.91-.22,.27-.15,.67-.67,1.06-1.45,.1-.07,.31-.03,.37,.1-.1,.52-.48,1.67-.67,2.08-1.34-.03-2.67-.04-4-.04h-1.34c-.64,0-1.15,.02-2.03,.04-.09-.04-.12-.28-.03-.37l.49-.05c.85-.07,.93-.3,.93-1.87v-5.38h0Z"/></g><g class="eh"><path class="ci" d="M247.75,65.93c-1.25,0-2.05-.39-2.33-.55-.18-.33-.37-1.39-.4-2.09,.08-.1,.3-.14,.36-.04,.23,.76,.84,2.22,2.57,2.22,1.25,0,1.87-.82,1.87-1.72,0-.66-.13-1.39-1.23-2.09l-1.42-.92c-.75-.49-1.61-1.35-1.61-2.57,0-1.42,1.11-2.57,3.05-2.57,.46,0,1,.09,1.39,.19,.2,.06,.4,.09,.52,.09,.13,.36,.27,1.2,.27,1.82-.06,.09-.3,.13-.37,.04-.19-.72-.6-1.69-2.03-1.69s-1.78,.97-1.78,1.66c0,.86,.72,1.49,1.27,1.84l1.2,.75c.94,.58,1.87,1.45,1.87,2.87,0,1.64-1.24,2.76-3.18,2.76"/></g><g class="cd"><path class="ci" d="M260.75,56.78c0,.33-.25,.6-.57,.6-.27,0-.36-.18-.42-.45-.04-.2-.24-.43-.54-.43-.28,0-.61,.13-.97,.48-.61,.58-.75,1.4-.75,1.9,0,.3,.03,.52,.09,.64,.19-.19,.66-.52,1.22-.52,.99,0,1.3,.7,1.3,1.24,0,.79-.63,1.24-1.3,1.24-.75,0-1.27-.48-1.49-.98-.21,.3-.39,.78-.39,1.52,0,1.3,1,2.96,3.42,2.96,.91,0,1.75-.3,2.34-.76,.7-.54,1.39-1.61,1.39-2.76,0-.96-.24-1.46-.33-1.57-.09-.12-.39-.21-.99-.21s-1.11,.33-1.11,1.02c0,.28,.19,.42,.3,.42s.16-.06,.24-.2c.09-.13,.18-.28,.4-.28,.27,0,.46,.21,.46,.48,0,.4-.4,.61-.81,.61-.67,0-1.08-.54-1.08-1.07,0-.31,.1-.67,.39-.99,.42-.49,1.19-.61,1.61-.61,.3,0,.6,.01,1.23,.01,.72,0,2.22-.01,2.22-1.58,0-.9-.78-1.21-1.15-1.21-.22,0-.3,.21-.3,.27,0,.07,.03,.13,.15,.22,.12,.09,.31,.22,.31,.49,0,.45-.33,.63-.64,.63-.42,0-.73-.34-.73-.78,0-.55,.42-1.19,1.3-1.19,.82,0,1.61,.73,1.61,1.88,0,.67-.24,1.09-.61,1.45-.72,.67-1.99,.61-2.16,.61-.16,0-.2,.06-.14,.25,.04,.14,.4,.87,.4,1.75,0,1.99-1.75,4.06-4.39,4.06-3.12,0-4.02-2.17-4.02-3.63,0-.85,.31-1.69,.84-2.32-.07-.24-.13-.55-.13-1.02,0-.76,.27-1.57,.75-2.15,.51-.63,1.25-.94,1.82-.94,.76,0,1.19,.45,1.19,.93m-3.02,3.14c.15,.52,.54,.96,1.14,.96,.39,0,.72-.24,.72-.64,0-.37-.27-.79-.84-.79-.54,0-.94,.37-1.02,.48"/></g><g class="cj"><path class="ci" d="M99.32,75.82c0-.93-.03-2.64-.28-3.09-.1-.18-.37-.28-.75-.31l-.37-.03c-.09-.1-.06-.3,.03-.36,.57,.03,1.12,.04,1.7,.04,.63,0,1.03-.02,1.57-.04,.12,.07,.1,.27,.03,.36l-.36,.03c-.37,.03-.66,.16-.75,.36-.21,.49-.21,2.21-.21,3.05v1.69c0,1.3-.21,2.67-1.04,3.57-.64,.7-1.75,1.09-2.85,1.09-1.03,0-2.06-.19-2.79-.82-.79-.66-1.16-1.75-1.16-3.53v-3.53c0-1.55-.03-1.81-.9-1.88l-.37-.03c-.09-.06-.06-.31,.03-.36,.75,.03,1.25,.04,1.85,.04s1.11-.02,1.84-.04c.09,.04,.12,.3,.03,.36l-.36,.03c-.87,.07-.9,.33-.9,1.88v3.23c0,2.4,.75,3.99,3.03,3.99,2.16,0,2.99-1.7,2.99-3.97,0,0,0-1.72,0-1.72Z"/></g><g class="eq"><path class="ci" d="M112.12,79.39c0,.45,0,2.23,.04,2.61-.03,.09-.12,.16-.28,.16-.18-.25-.61-.78-1.91-2.25l-3.46-3.94c-.4-.46-1.42-1.69-1.73-2.02h-.03c-.06,.18-.07,.52-.07,.97v3.26c0,.7,.01,2.64,.27,3.09,.09,.16,.39,.25,.76,.28l.46,.05c.09,.12,.07,.3-.03,.37-.67-.03-1.19-.04-1.75-.04-.63,0-1.03,.02-1.55,.04-.1-.07-.12-.28-.03-.37l.4-.05c.34-.04,.58-.13,.66-.3,.21-.54,.19-2.36,.19-3.08v-4.32c0-.42-.01-.73-.33-1.07-.21-.21-.57-.31-.92-.36l-.25-.03c-.09-.09-.09-.31,.03-.37,.63,.04,1.42,.04,1.69,.04,.24,0,.49-.02,.69-.04,.3,.76,2.06,2.73,2.55,3.29l1.45,1.63c1.03,1.15,1.76,1.99,2.46,2.7h.03c.06-.07,.06-.31,.06-.63v-3.2c0-.7-.02-2.64-.3-3.09-.09-.13-.33-.23-.93-.3l-.25-.03c-.1-.09-.09-.33,.03-.37,.69,.03,1.19,.04,1.76,.04,.64,0,1.03-.02,1.54-.04,.12,.07,.12,.28,.03,.37l-.21,.03c-.48,.07-.78,.19-.84,.31-.25,.54-.22,2.39-.22,3.08v3.57h0Z"/></g><g class="cf"><path class="ci" d="M116.5,74.35c0-1.58-.03-1.84-.91-1.91l-.37-.03c-.09-.06-.06-.33,.03-.37,.75,.03,1.25,.04,1.88,.04s1.11-.01,1.85-.04c.09,.04,.12,.31,.03,.37l-.37,.03c-.88,.07-.91,.33-.91,1.91v5.32c0,1.58,.03,1.79,.91,1.9l.37,.05c.09,.06,.06,.33-.03,.37-.75-.03-1.25-.04-1.85-.04s-1.14,.01-1.88,.04c-.09-.04-.12-.28-.03-.37l.37-.05c.88-.1,.91-.31,.91-1.9v-5.32h0Z"/></g><g class="cp"><path class="ci" d="M121.88,73.66c-.34-.84-.57-1.15-1.21-1.22l-.27-.03c-.1-.09-.09-.3,.03-.37,.43,.03,.91,.05,1.55,.05s1.18-.02,1.81-.05c.1,.06,.13,.28,.03,.37l-.22,.03c-.57,.07-.69,.16-.7,.28,.03,.15,.28,.96,.75,2.09,.69,1.73,1.37,3.45,2.12,5.15,.46-.98,1.09-2.52,1.43-3.32,.43-1.01,1.13-2.7,1.39-3.34,.12-.31,.14-.48,.14-.58s-.15-.22-.67-.28l-.27-.03c-.1-.09-.07-.31,.03-.37,.42,.03,.98,.05,1.55,.05,.49,0,.96-.02,1.45-.05,.1,.06,.1,.3,.03,.37l-.45,.03c-.36,.03-.58,.21-.78,.52-.42,.7-1,1.91-1.67,3.44l-.81,1.84c-.6,1.37-1.3,3.11-1.55,3.9-.04,.03-.1,.04-.16,.04-.07,0-.15-.01-.22-.04-.16-.63-.43-1.36-.69-1.99l-2.63-6.48Z"/></g><g class="cy"><path class="ci" d="M133.13,74.32c0-1.55-.03-1.78-.91-1.88l-.24-.03c-.09-.06-.06-.33,.03-.37,.64,.03,1.15,.05,1.76,.05h2.81c.95,0,1.84,0,2.02-.05,.09,.25,.18,1.33,.24,1.99-.06,.09-.3,.12-.37,.03-.22-.7-.36-1.22-1.14-1.42-.31-.08-.79-.09-1.45-.09h-1.07c-.45,0-.45,.03-.45,.6v2.99c0,.42,.05,.42,.49,.42h.87c.63,0,1.09-.03,1.27-.09,.18-.06,.29-.15,.36-.52l.12-.61c.07-.09,.33-.09,.39,.01,0,.36-.06,.94-.06,1.51s.06,1.11,.06,1.43c-.06,.1-.31,.1-.39,.01l-.14-.58c-.06-.27-.16-.49-.46-.57-.21-.06-.57-.07-1.15-.07h-.87c-.45,0-.49,.01-.49,.4v2.11c0,.79,.05,1.3,.28,1.55,.18,.18,.49,.34,1.81,.34,1.15,0,1.58-.06,1.91-.22,.27-.15,.67-.67,1.06-1.45,.1-.07,.31-.03,.37,.1-.1,.52-.48,1.67-.67,2.08-1.34-.03-2.67-.04-4-.04h-1.34c-.64,0-1.15,.02-2.03,.04-.09-.04-.12-.28-.03-.37l.49-.05c.85-.07,.93-.3,.93-1.87v-5.38h0Z"/></g><g class="de"><path class="ci" d="M142.6,74.33c0-1.42-.04-1.67-.66-1.75l-.48-.06c-.11-.07-.11-.31,.01-.37,.84-.07,1.87-.12,3.33-.12,.93,0,1.81,.07,2.49,.45,.72,.37,1.24,1.05,1.24,2.09,0,1.42-1.12,2.2-1.87,2.49-.07,.09,0,.24,.07,.36,1.19,1.93,1.99,3.12,3,3.97,.25,.22,.63,.39,1.03,.42,.08,.03,.09,.15,.02,.21-.13,.04-.37,.08-.66,.08-1.27,0-2.03-.37-3.09-1.88-.39-.55-1-1.58-1.46-2.25-.23-.33-.46-.48-1.06-.48-.67,0-.7,.01-.7,.33v1.88c0,1.57,.03,1.75,.9,1.86l.31,.05c.09,.07,.06,.33-.03,.37-.67-.03-1.18-.04-1.78-.04-.63,0-1.16,.02-1.87,.04-.09-.04-.12-.27-.03-.37l.37-.05c.87-.1,.9-.3,.9-1.86v-5.36h0Zm1.22,2.14c0,.27,0,.43,.05,.49,.04,.04,.27,.07,1.03,.07,.54,0,1.1-.06,1.54-.39,.4-.31,.75-.84,.75-1.85,0-1.18-.73-2.3-2.39-2.3-.93,0-.97,.06-.97,.48v3.49h0Z"/></g><g class="el"><path class="ci" d="M154.39,82.17c-1.25,0-2.05-.39-2.33-.55-.18-.33-.37-1.39-.4-2.09,.07-.1,.3-.14,.36-.04,.23,.76,.84,2.22,2.57,2.22,1.25,0,1.87-.82,1.87-1.72,0-.66-.13-1.39-1.23-2.09l-1.42-.92c-.75-.49-1.61-1.35-1.61-2.57,0-1.42,1.11-2.57,3.05-2.57,.46,0,1,.09,1.39,.19,.2,.06,.4,.09,.52,.09,.13,.36,.27,1.2,.27,1.82-.06,.09-.3,.13-.37,.04-.19-.72-.6-1.69-2.03-1.69s-1.78,.97-1.78,1.66c0,.86,.72,1.49,1.27,1.84l1.2,.75c.94,.58,1.87,1.45,1.87,2.87,0,1.64-1.24,2.76-3.18,2.76"/></g><g class="eu"><path class="ci" d="M161.01,74.35c0-1.58-.03-1.84-.91-1.91l-.37-.03c-.09-.06-.06-.33,.03-.37,.75,.03,1.26,.04,1.88,.04s1.11-.01,1.85-.04c.09,.04,.12,.31,.03,.37l-.37,.03c-.88,.07-.91,.33-.91,1.91v5.32c0,1.58,.03,1.79,.91,1.9l.37,.05c.09,.06,.06,.33-.03,.37-.75-.03-1.25-.04-1.85-.04s-1.13,.01-1.88,.04c-.09-.04-.12-.28-.03-.37l.37-.05c.88-.1,.91-.31,.91-1.9v-5.32Z"/></g><g class="dh"><path class="ci" d="M170.37,79.69c0,1.57,.03,1.79,.9,1.87l.48,.05c.09,.06,.06,.33-.03,.37-.85-.03-1.36-.04-1.96-.04s-1.12,.02-2.08,.04c-.09-.04-.12-.3,0-.37l.54-.05c.85-.07,.92-.3,.92-1.87v-6.68c0-.46,0-.48-.45-.48h-.82c-.64,0-1.46,.03-1.84,.37-.36,.33-.51,.66-.67,1.03-.12,.09-.33,.01-.39-.1,.24-.67,.46-1.63,.57-2.23,.05-.03,.24-.04,.28,0,.09,.48,.58,.46,1.27,.46h6.05c.81,0,.94-.03,1.16-.42,.08-.03,.24-.01,.27,.04-.16,.61-.27,1.82-.22,2.27-.06,.12-.31,.12-.39,.03-.04-.37-.15-.93-.37-1.09-.34-.25-.91-.37-1.73-.37h-1.06c-.45,0-.43,.01-.43,.51v6.65Z"/></g><g class="dl"><path class="ci" d="M180.65,79.66c0,1.6,.09,1.84,.9,1.9l.57,.05c.09,.09,.06,.33-.03,.37-.93-.03-1.43-.04-2.03-.04-.63,0-1.16,.01-1.96,.04-.09-.04-.12-.28-.03-.37l.46-.05c.87-.09,.9-.3,.9-1.9v-.76c0-.82-.04-1.02-.48-1.85l-1.76-3.43c-.51-.99-.73-1.06-1.18-1.14l-.42-.07c-.09-.1-.08-.31,.03-.37,.48,.03,1.01,.04,1.73,.04s1.22-.01,1.6-.04c.13,.04,.13,.28,.04,.37l-.19,.03c-.52,.07-.63,.15-.63,.27,0,.15,.39,1,.46,1.15,.55,1.11,1.11,2.28,1.69,3.32,.46-.79,.96-1.66,1.4-2.52,.42-.78,.97-1.79,.97-1.97,0-.09-.27-.19-.63-.24l-.27-.03c-.1-.1-.09-.31,.03-.37,.54,.03,.97,.04,1.44,.04s.88-.01,1.39-.04c.12,.07,.13,.28,.03,.37l-.42,.07c-.78,.13-1.23,1.08-1.97,2.36l-.94,1.63c-.66,1.13-.7,1.27-.7,2.42v.78h0Z"/></g><g class="eb"><path class="ci" d="M195.24,77.95c.34,.7,.67,1.39,1.03,2.05h.03c.4-.7,.78-1.48,1.15-2.24l1.4-2.85c.67-1.36,1.11-2.18,1.14-2.87,.51,.04,.82,.04,1.12,.04,.37,0,.87-.02,1.33-.04,.09,.06,.09,.31,.01,.37l-.31,.03c-.94,.09-1.06,.37-1.05,1.42,.03,1.58,.04,4.34,.16,6.5,.04,.75,.03,1.15,.73,1.21l.48,.05c.09,.09,.07,.31-.03,.37-.61-.03-1.22-.04-1.76-.04s-1.2,.01-1.81,.04c-.11-.07-.12-.28-.03-.37l.43-.05c.73-.07,.73-.31,.73-1.27l-.05-6.23h-.03c-.1,.16-.67,1.36-.97,1.94l-1.33,2.61c-.67,1.31-1.34,2.72-1.61,3.4-.03,.04-.09,.06-.15,.06-.03,0-.1-.02-.13-.06-.25-.79-.97-2.25-1.31-2.99l-1.34-2.88c-.31-.69-.63-1.46-.95-2.15h-.03c-.06,.92-.1,1.79-.15,2.66-.04,.91-.1,2.24-.1,3.51,0,1.11,.09,1.34,.67,1.39l.57,.05c.11,.09,.09,.33-.01,.37-.51-.03-1.09-.04-1.66-.04-.48,0-1.01,.01-1.52,.04-.09-.07-.12-.3-.03-.37l.33-.05c.63-.09,.84-.18,.93-1.22,.09-.99,.16-1.81,.25-3.29,.07-1.24,.13-2.51,.16-3.33,.03-.94-.09-1.17-1-1.28l-.24-.03c-.07-.09-.06-.31,.06-.37,.45,.03,.81,.04,1.18,.04,.34,0,.75,0,1.24-.04-.06,.58,.31,1.51,.78,2.46l1.7,3.45Z"/></g><g class="ee"><path class="ci" d="M212.44,75.82c0-.93-.03-2.64-.28-3.09-.11-.18-.37-.28-.75-.31l-.37-.03c-.09-.1-.06-.3,.03-.36,.57,.03,1.12,.04,1.7,.04,.63,0,1.03-.02,1.57-.04,.12,.07,.1,.27,.03,.36l-.36,.03c-.37,.03-.66,.16-.75,.36-.21,.49-.21,2.21-.21,3.05v1.69c0,1.3-.21,2.67-1.05,3.57-.64,.7-1.75,1.09-2.85,1.09-1.03,0-2.06-.19-2.79-.82-.79-.66-1.16-1.75-1.16-3.53v-3.53c0-1.55-.03-1.81-.9-1.88l-.37-.03c-.09-.06-.06-.31,.03-.36,.75,.03,1.25,.04,1.85,.04s1.11-.02,1.84-.04c.09,.04,.12,.3,.03,.36l-.36,.03c-.87,.07-.9,.33-.9,1.88v3.23c0,2.4,.75,3.99,3.03,3.99,2.17,0,2.99-1.7,2.99-3.97v-1.72h0Z"/></g><g class="ck"><path class="ci" d="M218.63,82.17c-1.25,0-2.05-.39-2.33-.55-.18-.33-.37-1.39-.4-2.09,.07-.1,.3-.14,.36-.04,.22,.76,.84,2.22,2.57,2.22,1.25,0,1.87-.82,1.87-1.72,0-.66-.13-1.39-1.22-2.09l-1.42-.92c-.75-.49-1.61-1.35-1.61-2.57,0-1.42,1.11-2.57,3.05-2.57,.46,0,1,.09,1.39,.19,.19,.06,.4,.09,.52,.09,.13,.36,.27,1.2,.27,1.82-.06,.09-.3,.13-.37,.04-.19-.72-.6-1.69-2.03-1.69s-1.78,.97-1.78,1.66c0,.86,.72,1.49,1.27,1.84l1.19,.75c.94,.58,1.87,1.45,1.87,2.87,0,1.64-1.24,2.76-3.18,2.76"/></g><g class="dw"><path class="ci" d="M225.21,74.32c0-1.55-.03-1.78-.91-1.88l-.24-.03c-.09-.06-.06-.33,.03-.37,.64,.03,1.15,.05,1.76,.05h2.81c.95,0,1.84,0,2.02-.05,.09,.25,.18,1.33,.24,1.99-.06,.09-.3,.12-.37,.03-.22-.7-.36-1.22-1.14-1.42-.31-.08-.79-.09-1.45-.09h-1.07c-.45,0-.45,.03-.45,.6v2.99c0,.42,.05,.42,.49,.42h.86c.63,0,1.09-.03,1.27-.09,.18-.06,.28-.15,.36-.52l.12-.61c.07-.09,.33-.09,.39,.01,0,.36-.06,.94-.06,1.51s.06,1.11,.06,1.43c-.06,.1-.31,.1-.39,.01l-.14-.58c-.06-.27-.16-.49-.46-.57-.21-.06-.57-.07-1.15-.07h-.86c-.45,0-.49,.01-.49,.4v2.11c0,.79,.05,1.3,.28,1.55,.18,.18,.49,.34,1.81,.34,1.15,0,1.58-.06,1.91-.22,.27-.15,.67-.67,1.06-1.45,.1-.07,.31-.03,.37,.1-.1,.52-.48,1.67-.67,2.08-1.34-.03-2.67-.04-4-.04h-1.34c-.64,0-1.15,.02-2.03,.04-.09-.04-.12-.28-.03-.37l.49-.05c.85-.07,.93-.3,.93-1.87v-5.38h0Z"/></g><g class="ea"><path class="ci" d="M241.8,75.82c0-.93-.03-2.64-.28-3.09-.1-.18-.37-.28-.75-.31l-.37-.03c-.09-.1-.06-.3,.03-.36,.57,.03,1.12,.04,1.7,.04,.63,0,1.03-.02,1.57-.04,.12,.07,.1,.27,.03,.36l-.36,.03c-.37,.03-.66,.16-.75,.36-.21,.49-.21,2.21-.21,3.05v1.69c0,1.3-.21,2.67-1.04,3.57-.64,.7-1.75,1.09-2.85,1.09-1.03,0-2.06-.19-2.79-.82-.79-.66-1.16-1.75-1.16-3.53v-3.53c0-1.55-.03-1.81-.9-1.88l-.37-.03c-.09-.06-.06-.31,.03-.36,.75,.03,1.25,.04,1.85,.04s1.11-.02,1.84-.04c.09,.04,.12,.3,.03,.36l-.36,.03c-.87,.07-.9,.33-.9,1.88v3.23c0,2.4,.75,3.99,3.03,3.99,2.17,0,2.99-1.7,2.99-3.97v-1.72h0Z"/></g><g class="ev"><path class="ci" d="M250.44,77.95c.34,.7,.67,1.39,1.03,2.05h.03c.4-.7,.78-1.48,1.15-2.24l1.4-2.85c.67-1.36,1.11-2.18,1.13-2.87,.51,.04,.82,.04,1.12,.04,.37,0,.87-.02,1.33-.04,.09,.06,.09,.31,.01,.37l-.31,.03c-.94,.09-1.06,.37-1.05,1.42,.03,1.58,.04,4.34,.16,6.5,.04,.75,.03,1.15,.73,1.21l.48,.05c.09,.09,.07,.31-.03,.37-.61-.03-1.22-.04-1.76-.04s-1.2,.01-1.81,.04c-.1-.07-.12-.28-.03-.37l.43-.05c.73-.07,.73-.31,.73-1.27l-.05-6.23h-.03c-.1,.16-.67,1.36-.97,1.94l-1.33,2.61c-.67,1.31-1.34,2.72-1.61,3.4-.03,.04-.09,.06-.15,.06-.03,0-.1-.02-.13-.06-.25-.79-.97-2.25-1.31-2.99l-1.34-2.88c-.31-.69-.63-1.46-.96-2.15h-.03c-.06,.92-.1,1.79-.15,2.66-.04,.91-.11,2.24-.11,3.51,0,1.11,.09,1.34,.67,1.39l.57,.05c.1,.09,.09,.33-.02,.37-.51-.03-1.09-.04-1.66-.04-.48,0-1.01,.01-1.52,.04-.09-.07-.12-.3-.03-.37l.33-.05c.63-.09,.84-.18,.93-1.22,.09-.99,.16-1.81,.25-3.29,.08-1.24,.13-2.51,.16-3.33,.03-.94-.09-1.17-1-1.28l-.24-.03c-.08-.09-.06-.31,.06-.37,.45,.03,.81,.04,1.18,.04,.34,0,.75,0,1.24-.04-.06,.58,.31,1.51,.78,2.46l1.7,3.45Z"/></g><g class="ew"><path class="ci" d="M262.34,82.17c-1.25,0-2.05-.39-2.33-.55-.18-.33-.37-1.39-.4-2.09,.07-.1,.3-.14,.36-.04,.22,.76,.84,2.22,2.57,2.22,1.25,0,1.87-.82,1.87-1.72,0-.66-.13-1.39-1.22-2.09l-1.42-.92c-.75-.49-1.61-1.35-1.61-2.57,0-1.42,1.11-2.57,3.05-2.57,.46,0,1,.09,1.39,.19,.19,.06,.4,.09,.52,.09,.13,.36,.27,1.2,.27,1.82-.06,.09-.3,.13-.37,.04-.19-.72-.6-1.69-2.03-1.69s-1.78,.97-1.78,1.66c0,.86,.72,1.49,1.27,1.84l1.19,.75c.94,.58,1.87,1.45,1.87,2.87,0,1.64-1.24,2.76-3.18,2.76"/></g></g></svg>