<?xml version="1.0" encoding="UTF-8"?><svg id="a" xmlns="http://www.w3.org/2000/svg" width="300" height="96" xmlns:xlink="http://www.w3.org/1999/xlink" viewBox="0 0 300 96"><defs><style>.bh{clip-path:url(#ad);}.bi{clip-path:url(#am);}.bj{clip-path:url(#ai);}.bk{clip-path:url(#j);}.bl{clip-path:url(#bd);}.bm{clip-path:url(#t);}.bn{clip-path:url(#bf);}.bo{fill:#002361;}.bp{clip-path:url(#g);}.bq{clip-path:url(#aq);}.br{clip-path:url(#z);}.bs{clip-path:url(#ar);}.bt{clip-path:url(#r);}.bu{clip-path:url(#p);}.bv{clip-path:url(#aj);}.bw{clip-path:url(#d);}.bx{clip-path:url(#az);}.by{clip-path:url(#ab);}.bz{clip-path:url(#at);}.ca{clip-path:url(#ac);}.cb{clip-path:url(#aa);}.cc{clip-path:url(#v);}.cd{clip-path:url(#m);}.ce{clip-path:url(#x);}.cf{clip-path:url(#i);}.cg{clip-path:url(#b);}.ch{clip-path:url(#ap);}.ci{clip-path:url(#ay);}.cj{clip-path:url(#e);}.ck{clip-path:url(#f);}.cl{clip-path:url(#l);}.cm{clip-path:url(#as);}.cn{clip-path:url(#av);}.co{clip-path:url(#an);}.cp{clip-path:url(#o);}.cq{clip-path:url(#af);}.cr{clip-path:url(#n);}.cs{clip-path:url(#q);}.ct{clip-path:url(#k);}.cu{clip-path:url(#be);}.cv{clip-path:url(#bc);}.cw{fill:none;}.cx{clip-path:url(#c);}.cy{clip-path:url(#ao);}.cz{clip-path:url(#u);}.da{clip-path:url(#au);}.db{clip-path:url(#ba);}.dc{clip-path:url(#bg);}.dd{clip-path:url(#ak);}.de{clip-path:url(#bb);}.df{clip-path:url(#ae);}.dg{clip-path:url(#ah);}.dh{clip-path:url(#s);}.di{clip-path:url(#ag);}.dj{clip-path:url(#aw);}.dk{clip-path:url(#h);}.dl{clip-path:url(#y);}.dm{clip-path:url(#ax);}.dn{clip-path:url(#al);}.do{clip-path:url(#w);}</style><clipPath id="b"><rect class="cw" x="14.28" y="22.34" width="48.08" height="51.8"/></clipPath><clipPath id="c"><rect class="cw" x="14.28" y="22.34" width="48.08" height="51.8"/></clipPath><clipPath id="d"><rect class="cw" x="14.28" y="22.34" width="48.08" height="51.8"/></clipPath><clipPath id="e"><rect class="cw" x="14.28" y="22.34" width="48.08" height="51.8"/></clipPath><clipPath id="f"><rect class="cw" x="14.28" y="22.34" width="48.08" height="51.8"/></clipPath><clipPath id="g"><rect class="cw" x="14.28" y="22.34" width="48.08" height="51.8"/></clipPath><clipPath id="h"><rect class="cw" x="14.28" y="22.34" width="48.08" height="51.8"/></clipPath><clipPath id="i"><rect class="cw" x="14.28" y="22.34" width="48.08" height="51.8"/></clipPath><clipPath id="j"><rect class="cw" x="14.28" y="22.34" width="48.08" height="51.8"/></clipPath><clipPath id="k"><rect class="cw" x="14.28" y="22.34" width="48.08" height="51.8"/></clipPath><clipPath id="l"><rect class="cw" x="14.28" y="22.34" width="48.08" height="51.8"/></clipPath><clipPath id="m"><rect class="cw" x="14.28" y="22.34" width="48.08" height="51.8"/></clipPath><clipPath id="n"><rect class="cw" x="14.28" y="22.34" width="48.08" height="51.8"/></clipPath><clipPath id="o"><rect class="cw" x="14.28" y="22.34" width="48.08" height="51.8"/></clipPath><clipPath id="p"><rect class="cw" x="14.28" y="22.34" width="48.08" height="51.8"/></clipPath><clipPath id="q"><rect class="cw" x="14.28" y="22.34" width="48.08" height="51.8"/></clipPath><clipPath id="r"><rect class="cw" x="14.28" y="22.34" width="48.08" height="51.8"/></clipPath><clipPath id="s"><rect class="cw" x="14.28" y="22.34" width="48.08" height="51.8"/></clipPath><clipPath id="t"><rect class="cw" x="14.28" y="22.34" width="48.08" height="51.8"/></clipPath><clipPath id="u"><rect class="cw" x="14.28" y="22.34" width="48.08" height="51.8"/></clipPath><clipPath id="v"><rect class="cw" x="14.28" y="22.34" width="48.08" height="51.8"/></clipPath><clipPath id="w"><rect class="cw" x="14.28" y="22.34" width="48.08" height="51.8"/></clipPath><clipPath id="x"><rect class="cw" x="14.28" y="22.34" width="48.08" height="51.8"/></clipPath><clipPath id="y"><rect class="cw" x="14.28" y="22.34" width="48.08" height="51.8"/></clipPath><clipPath id="z"><rect class="cw" x="14.28" y="22.34" width="48.08" height="51.8"/></clipPath><clipPath id="aa"><rect class="cw" x="14.28" y="22.34" width="48.08" height="51.8"/></clipPath><clipPath id="ab"><rect class="cw" x="14.28" y="22.34" width="48.08" height="51.8"/></clipPath><clipPath id="ac"><rect class="cw" x="14.28" y="22.34" width="48.08" height="51.8"/></clipPath><clipPath id="ad"><rect class="cw" x="14.28" y="22.34" width="48.08" height="51.8"/></clipPath><clipPath id="ae"><rect class="cw" x="70.42" y="28.19" width="215" height="29.36"/></clipPath><clipPath id="af"><rect class="cw" x="70.42" y="28.19" width="215" height="29.36"/></clipPath><clipPath id="ag"><rect class="cw" x="70.42" y="28.19" width="215" height="29.36"/></clipPath><clipPath id="ah"><rect class="cw" x="70.42" y="28.19" width="215" height="29.36"/></clipPath><clipPath id="ai"><rect class="cw" x="70.42" y="28.19" width="215" height="29.36"/></clipPath><clipPath id="aj"><rect class="cw" x="70.42" y="28.19" width="215" height="29.36"/></clipPath><clipPath id="ak"><rect class="cw" x="70.42" y="28.19" width="215" height="29.36"/></clipPath><clipPath id="al"><rect class="cw" x="70.42" y="28.19" width="215" height="29.36"/></clipPath><clipPath id="am"><rect class="cw" x="70.42" y="28.19" width="215" height="29.36"/></clipPath><clipPath id="an"><rect class="cw" x="70.42" y="28.19" width="215" height="29.36"/></clipPath><clipPath id="ao"><rect class="cw" x="70.42" y="28.19" width="215" height="29.36"/></clipPath><clipPath id="ap"><rect class="cw" x="70.42" y="28.19" width="215" height="29.36"/></clipPath><clipPath id="aq"><rect class="cw" x="-36.93" y="-29.04" width="373.85" height="154.08"/></clipPath><clipPath id="ar"><rect class="cw" x="-36.93" y="-29.04" width="373.85" height="154.08"/></clipPath><clipPath id="as"><rect class="cw" x="-36.93" y="-29.04" width="373.85" height="154.08"/></clipPath><clipPath id="at"><rect class="cw" x="-36.93" y="-29.04" width="373.85" height="154.08"/></clipPath><clipPath id="au"><rect class="cw" x="-36.93" y="-29.04" width="373.85" height="154.08"/></clipPath><clipPath id="av"><rect class="cw" x="-36.93" y="-29.04" width="373.85" height="154.08"/></clipPath><clipPath id="aw"><rect class="cw" x="-36.93" y="-29.04" width="373.85" height="154.08"/></clipPath><clipPath id="ax"><rect class="cw" x="-36.93" y="-29.04" width="373.85" height="154.08"/></clipPath><clipPath id="ay"><rect class="cw" x="-36.93" y="-29.04" width="373.85" height="154.08"/></clipPath><clipPath id="az"><rect class="cw" x="-36.93" y="-29.04" width="373.85" height="154.08"/></clipPath><clipPath id="ba"><rect class="cw" x="-36.93" y="-29.04" width="373.85" height="154.08"/></clipPath><clipPath id="bb"><rect class="cw" x="-36.93" y="-29.04" width="373.85" height="154.08"/></clipPath><clipPath id="bc"><rect class="cw" x="-36.93" y="-29.04" width="373.85" height="154.08"/></clipPath><clipPath id="bd"><rect class="cw" x="-36.93" y="-29.04" width="373.85" height="154.08"/></clipPath><clipPath id="be"><rect class="cw" x="-36.93" y="-29.04" width="373.85" height="154.08"/></clipPath><clipPath id="bf"><rect class="cw" x="-36.93" y="-29.04" width="373.85" height="154.08"/></clipPath><clipPath id="bg"><rect class="cw" x="-36.93" y="-29.04" width="373.85" height="154.08"/></clipPath></defs><g><g class="cg"><path class="bo" d="M39.37,73.73c1.27-.7,2.79-1.66,4.45-2.91v-14.97l-4.45-2.96v20.84Z"/></g><g class="cx"><path class="bo" d="M39.37,42.52l4.45,2.96v-7.56c-1.48-.07-2.96-.11-4.45-.12v4.72Z"/></g><g class="bw"><path class="bo" d="M52.72,38.7c-1.48-.19-2.96-.34-4.45-.47v10.21l4.45,2.96v-12.7Z"/></g><g class="cj"><path class="bo" d="M48.27,58.81v8.14c1.5-1.49,3-3.21,4.45-5.17h0s-4.45-2.97-4.45-2.97Z"/></g><g class="ck"><path class="bo" d="M52.72,61.78s0,0,0-.01h0s0,.01,0,.01Z"/></g><g class="bp"><path class="bo" d="M57.17,39.38v14.99h.01c1.94-4.01,3.51-8.7,4.39-14.16l-.15-.03c-1.41-.3-2.83-.56-4.25-.8"/></g><g class="dk"><polygon class="bo" points="43.82 45.48 43.82 55.85 48.27 58.81 48.27 48.44 43.82 45.48"/></g><g class="cf"><path class="bo" d="M52.72,51.41v10.36h0c1.59-2.15,3.1-4.6,4.44-7.37v-.03l-4.45-2.96Z"/></g><g class="bk"><path class="bo" d="M57.17,54.4s0-.02,.01-.02h-.01s0,.02,0,.02Z"/></g><g class="ct"><path class="bo" d="M29.61,56.52c1.31-.36,2.47-1.1,3.35-2.09-.48-.18-1.05-.35-1.71-.49-.48,1.07-1.09,1.93-1.65,2.58"/></g><g class="cl"><path class="bo" d="M22.55,54.44c.88,.99,2.04,1.72,3.36,2.09-.55-.65-1.16-1.51-1.65-2.58-.66,.15-1.22,.32-1.71,.5"/></g><g class="cd"><path class="bo" d="M27.11,43.64c-.48,.53-1.05,1.28-1.52,2.23,.48,.06,.98,.11,1.52,.13v-2.35Z"/></g><g class="cr"><path class="bo" d="M31.7,52.73c.8,.19,1.49,.41,2.04,.63,.52-.87,.86-1.86,.96-2.93h-2.6c-.05,.83-.2,1.6-.41,2.3"/></g><g class="cp"><path class="bo" d="M25.9,43.06c-1.32,.36-2.47,1.1-3.36,2.09,.49,.18,1.05,.35,1.71,.5,.48-1.07,1.1-1.93,1.65-2.58"/></g><g class="bu"><path class="bo" d="M32.96,45.14c-.88-.99-2.04-1.72-3.35-2.08,.55,.65,1.17,1.51,1.65,2.58,.65-.15,1.22-.32,1.7-.5"/></g><g class="cs"><path class="bo" d="M32.12,49.15h2.6c-.1-1.07-.44-2.06-.96-2.93-.56,.22-1.24,.44-2.04,.63,.21,.7,.36,1.47,.41,2.3"/></g><g class="bt"><path class="bo" d="M28.39,55.94c.48-.53,1.06-1.28,1.53-2.23-.48-.06-.99-.11-1.53-.13v2.36Z"/></g><g class="dh"><path class="bo" d="M27.11,50.43h-2.43c.06,.74,.2,1.43,.41,2.05,.62-.1,1.3-.16,2.02-.19v-1.87Z"/></g><g class="bm"><path class="bo" d="M28.39,52.3c.73,.03,1.41,.09,2.03,.18,.2-.62,.35-1.31,.4-2.05h-2.44v1.87Z"/></g><g class="cz"><path class="bo" d="M29.93,45.87c-.47-.96-1.05-1.71-1.54-2.24v2.36c.54-.02,1.06-.06,1.54-.13"/></g><g class="cc"><path class="bo" d="M30.83,49.15c-.05-.75-.2-1.43-.4-2.05-.62,.09-1.3,.16-2.03,.19v1.87h2.44Z"/></g><g class="do"><path class="bo" d="M25.59,53.71c.47,.94,1.04,1.69,1.52,2.23v-2.35c-.54,.02-1.05,.06-1.52,.13"/></g><g class="ce"><path class="bo" d="M23.81,46.85c-.81-.19-1.49-.41-2.05-.63-.52,.87-.86,1.86-.96,2.93h2.6c.05-.83,.2-1.6,.41-2.3"/></g><g class="dl"><path class="bo" d="M27.11,47.28c-.73-.03-1.4-.09-2.02-.19-.2,.62-.35,1.31-.41,2.05h2.43v-1.87Z"/></g><g class="br"><path class="bo" d="M23.4,50.43h-2.6c.1,1.07,.44,2.06,.96,2.93,.56-.22,1.24-.45,2.05-.64-.21-.7-.36-1.46-.41-2.29"/></g><g class="cb"><path class="bo" d="M15.07,40.21c3.27,20.19,15.9,30.04,22.2,33.51V37.8c-7.44,.07-14.85,.87-22.05,2.38l-.15,.03Zm12.68,1.3c4.56,0,8.27,3.71,8.27,8.27s-3.71,8.27-8.27,8.27-8.27-3.71-8.27-8.27c0-4.56,3.71-8.27,8.27-8.27"/></g><g class="by"><path class="bo" d="M61.4,24.78h-.02c-7.44-1.6-15.15-2.44-23.06-2.44s-15.64,.85-23.09,2.44h-.03c-.53,.14-.91,.61-.91,1.18v4.17c0,2.74,.17,5.33,.47,7.78,7.73-1.64,15.66-2.45,23.59-2.45s15.84,.82,23.55,2.45c.3-2.45,.46-5.04,.46-7.77v-4.17c0-.58-.41-1.07-.96-1.18m-5.2,10.33c-5.79-1.1-12.44-1.44-17.88-1.44h0c-5.44,0-12.09,.34-17.88,1.44-.22,.04-.41-.16-.29-.39l3.81-8.4c.04-.08,2.5-1.29,2.5-1.29,3.13-.66,8.27-.37,11.86,.95h.01c3.59-1.32,8.73-1.61,11.86-.95,0,0,2.46,1.22,2.5,1.29l3.8,8.4c.12,.23-.07,.43-.29,.39"/></g><g class="ca"><path class="bo" d="M49.2,26.47l1.6,4.29c-3.73-.51-6.82-.28-11.38,1.21v.4c4.31-.16,9.76-.4,14.17,.54l-2.4-5.52-1.99-.92Z"/></g><g class="bh"><path class="bo" d="M25.79,30.75l1.6-4.29-1.99,.92-2.4,5.52c4.41-.95,9.86-.71,14.17-.54v-.4c-4.56-1.5-7.65-1.73-11.38-1.22"/></g></g><g><g class="df"><path class="bo" d="M76.57,33.46c0-3.77-.34-4.18-2.34-4.35l-.85-.07c-.2-.14-.14-.75,.07-.85,1.97,.07,3.12,.1,4.55,.1s2.52-.03,3.87-.1c.2,.1,.27,.71,.07,.85l-.51,.07c-2,.27-2.07,.75-2.07,4.35v12.61c0,2.68-.14,5.03-.78,6.59-1.12,2.72-3.53,4.89-6.7,4.89-.41,0-1.46-.03-1.46-.71,0-.58,.51-1.56,1.22-1.56,.41,0,.82,.07,1.26,.21,.48,.13,.95,.24,1.43,.24,.71,0,1.12-.41,1.36-.88,.78-1.6,.88-6.69,.88-8.53,0,0,0-12.84,0-12.84Z"/></g><g class="cq"><path class="bo" d="M81.87,41.46c0-5.73,4.3-10.12,10.21-10.12,6.62,0,9.95,4.79,9.95,9.83,0,5.79-4.41,10-9.95,10-6.36,0-10.21-4.56-10.21-9.72m17.29,.6c0-4.73-2.09-9.83-7.57-9.83-2.98,0-6.85,2.04-6.85,8.31,0,4.24,2.06,9.75,7.71,9.75,3.44,0,6.71-2.58,6.71-8.23"/></g><g class="di"><path class="bo" d="M108.53,41.46c-1.37,0-1.43,.06-1.43,.92v4.04c0,3.01,.14,3.41,1.75,3.58l.83,.09c.17,.11,.11,.63-.06,.72-1.55-.06-2.52-.09-3.64-.09-1.23,0-2.21,.06-3.33,.09-.17-.09-.23-.55-.06-.72l.49-.09c1.6-.29,1.66-.57,1.66-3.58v-10.32c0-3.01-.2-3.5-1.69-3.61l-.75-.06c-.17-.11-.11-.63,.06-.72,1.4,.03,2.38,.09,3.61,.09,1.12,0,2.09-.03,3.33-.09,.17,.09,.23,.6,.06,.72l-.54,.06c-1.66,.17-1.72,.6-1.72,3.61v3.3c0,.89,.06,.92,1.43,.92h8.2c1.38,0,1.43-.03,1.43-.92v-3.3c0-3.01-.06-3.44-1.75-3.61l-.54-.06c-.17-.11-.11-.63,.06-.72,1.32,.06,2.29,.09,3.47,.09s2.09-.03,3.38-.09c.17,.09,.23,.6,.06,.72l-.6,.06c-1.66,.17-1.72,.6-1.72,3.61v10.32c0,3.01,.06,3.38,1.72,3.58l.69,.09c.17,.11,.11,.63-.06,.72-1.37-.06-2.35-.09-3.47-.09-1.18,0-2.21,.03-3.47,.09-.17-.09-.23-.55-.06-.72l.54-.09c1.75-.29,1.75-.57,1.75-3.58v-4.04c0-.86-.06-.92-1.43-.92h-8.2Z"/></g><g class="dg"><path class="bo" d="M142.5,45.85c0,.86,0,4.27,.09,5.02-.06,.17-.23,.32-.54,.32-.35-.48-1.18-1.49-3.67-4.33l-6.65-7.57c-.78-.89-2.72-3.24-3.33-3.87h-.06c-.11,.34-.14,1-.14,1.86v6.25c0,1.35,.03,5.07,.52,5.93,.17,.32,.75,.49,1.46,.55l.89,.09c.17,.23,.14,.57-.06,.72-1.29-.06-2.29-.09-3.35-.09-1.2,0-1.98,.03-2.98,.09-.2-.14-.23-.55-.06-.72l.77-.09c.66-.09,1.12-.26,1.26-.57,.4-1.03,.37-4.53,.37-5.9v-8.28c0-.8-.03-1.41-.63-2.06-.4-.4-1.09-.6-1.78-.69l-.49-.06c-.17-.17-.17-.6,.06-.72,1.2,.09,2.72,.09,3.24,.09,.46,0,.95-.03,1.32-.09,.57,1.46,3.96,5.25,4.9,6.31l2.78,3.12c1.98,2.21,3.38,3.81,4.73,5.19h.06c.12-.14,.12-.6,.12-1.2v-6.13c0-1.35-.03-5.07-.57-5.93-.17-.26-.63-.43-1.78-.57l-.49-.06c-.2-.17-.17-.63,.06-.72,1.32,.06,2.29,.09,3.38,.09,1.23,0,1.98-.03,2.95-.09,.23,.14,.23,.55,.06,.72l-.4,.06c-.92,.14-1.49,.37-1.61,.6-.49,1.03-.43,4.59-.43,5.91v6.85h0Z"/></g><g class="bj"><path class="bo" d="M150.08,51.18c-2.41,0-3.93-.74-4.47-1.06-.34-.63-.72-2.67-.78-4.01,.15-.2,.57-.26,.69-.09,.43,1.46,1.6,4.27,4.93,4.27,2.41,0,3.58-1.58,3.58-3.3,0-1.26-.26-2.67-2.35-4.01l-2.72-1.78c-1.43-.94-3.09-2.58-3.09-4.93,0-2.72,2.12-4.93,5.85-4.93,.89,0,1.92,.17,2.67,.37,.37,.12,.77,.17,1,.17,.26,.69,.52,2.29,.52,3.5-.11,.17-.57,.26-.72,.09-.37-1.38-1.14-3.24-3.9-3.24s-3.41,1.86-3.41,3.18c0,1.66,1.38,2.86,2.44,3.52l2.29,1.43c1.81,1.12,3.58,2.78,3.58,5.5,0,3.15-2.38,5.3-6.11,5.3"/></g><g class="bv"><path class="bo" d="M173.2,39.75c-1.63,0-1.7,.07-1.7,1.08v4.79c0,3.57,.17,4.04,2.07,4.25l.99,.1c.2,.13,.14,.75-.07,.85-1.83-.07-2.99-.1-4.31-.1-1.46,0-2.62,.07-3.94,.1-.2-.1-.27-.64-.07-.85l.58-.1c1.9-.34,1.97-.68,1.97-4.25v-12.23c0-3.57-.24-4.15-2-4.28l-.88-.07c-.2-.13-.14-.75,.07-.85,1.66,.03,2.82,.1,4.28,.1,1.32,0,2.48-.03,3.94-.1,.2,.1,.27,.71,.07,.85l-.64,.07c-1.97,.21-2.04,.71-2.04,4.28v3.91c0,1.05,.07,1.09,1.7,1.09h9.72c1.63,0,1.7-.03,1.7-1.09v-3.91c0-3.57-.07-4.08-2.07-4.28l-.65-.07c-.2-.13-.13-.75,.07-.85,1.56,.07,2.72,.1,4.11,.1s2.48-.03,4.01-.1c.2,.1,.27,.71,.07,.85l-.71,.07c-1.97,.21-2.04,.71-2.04,4.28v12.23c0,3.57,.07,4.01,2.04,4.25l.81,.1c.2,.13,.14,.75-.07,.85-1.63-.07-2.79-.1-4.11-.1-1.39,0-2.62,.03-4.11,.1-.2-.1-.27-.64-.07-.85l.65-.1c2.07-.34,2.07-.68,2.07-4.25v-4.79c0-1.02-.07-1.08-1.7-1.08h-9.72Z"/></g><g class="dd"><path class="bo" d="M190.04,41.46c0-5.73,4.3-10.12,10.21-10.12,6.62,0,9.95,4.79,9.95,9.83,0,5.79-4.41,10-9.95,10-6.36,0-10.21-4.56-10.21-9.72m17.29,.6c0-4.73-2.09-9.83-7.57-9.83-2.98,0-6.85,2.04-6.85,8.31,0,4.24,2.06,9.75,7.71,9.75,3.44,0,6.71-2.58,6.71-8.23"/></g><g class="dn"><path class="bo" d="M215.38,46.42c0,3.01,.06,3.38,1.89,3.58l.77,.09c.17,.14,.12,.63-.06,.72-1.63-.06-2.58-.09-3.73-.09-1.2,0-2.24,.03-3.5,.09-.17-.09-.23-.55-.06-.72l.6-.09c1.66-.23,1.72-.57,1.72-3.58v-10.58c0-2.44-.06-2.93-1.35-3.07l-1.03-.12c-.2-.17-.17-.6,.06-.72,1.52-.2,3.3-.23,5.67-.23s4.16,.32,5.5,1.15c1.32,.83,2.29,2.32,2.29,4.3,0,2.64-1.63,3.96-2.87,4.56-1.26,.6-2.78,.86-3.96,.86-.2-.08-.2-.51-.03-.57,3.1-.57,4.21-2.32,4.21-4.82,0-2.78-1.63-4.59-4.61-4.59-1.52,0-1.55,.11-1.55,1.03v12.78h0Z"/></g><g class="bi"><path class="bo" d="M227.31,36.1c0-3.01-.06-3.47-1.72-3.61l-.72-.06c-.17-.12-.11-.63,.06-.72,1.4,.06,2.32,.09,3.61,.09,1.12,0,2.09-.03,3.33-.09,.17,.09,.23,.6,.06,.72l-.54,.06c-1.66,.17-1.72,.6-1.72,3.61v3.3c0,.54,.06,1.09,.37,1.09,.26,0,.6-.17,.8-.32,.4-.34,1.15-1.09,1.46-1.38l3.09-3.07c.54-.52,1.95-1.98,2.24-2.38,.14-.2,.2-.35,.2-.46s-.11-.2-.49-.29l-.77-.17c-.2-.2-.17-.57,.06-.72,1,.06,2.15,.09,3.15,.09s1.98-.03,2.84-.09c.2,.14,.23,.55,.06,.72-.75,.06-1.86,.34-2.66,.8-.8,.46-2.41,1.8-4.01,3.33l-2.58,2.44c-.4,.4-.66,.66-.66,.89,0,.2,.17,.43,.54,.89,2.72,3.12,4.93,5.7,7.17,8.06,.69,.69,1.21,1.06,2.18,1.18l.55,.09c.2,.14,.14,.63-.06,.72-.75-.06-1.53-.09-2.88-.09-1.18,0-2.18,.03-3.5,.09-.2-.06-.29-.55-.11-.72l.66-.12c.4-.06,.69-.14,.69-.28,0-.17-.2-.4-.4-.66-.54-.69-1.29-1.46-2.38-2.69l-2.29-2.58c-1.63-1.83-2.09-2.41-2.78-2.41-.43,0-.49,.37-.49,1.38v3.7c0,3.01,.06,3.41,1.66,3.58l.78,.09c.17,.11,.11,.63-.06,.72-1.4-.06-2.38-.09-3.5-.09-1.17,0-2.15,.03-3.32,.09-.17-.09-.23-.52-.06-.72l.57-.09c1.52-.23,1.58-.57,1.58-3.58v-10.32h0Z"/></g><g class="co"><path class="bo" d="M246.99,36.16c0-3.04-.06-3.53-1.75-3.67l-.71-.06c-.17-.12-.12-.63,.05-.72,1.43,.06,2.41,.09,3.61,.09s2.12-.03,3.55-.09c.17,.09,.23,.6,.06,.72l-.72,.06c-1.69,.14-1.75,.63-1.75,3.67v10.2c0,3.04,.06,3.44,1.75,3.64l.72,.09c.17,.11,.11,.63-.06,.72-1.43-.06-2.41-.09-3.55-.09-1.2,0-2.07,.03-3.5,.09-.17-.09-.23-.55-.06-.72l.61-.09c1.69-.2,1.75-.6,1.75-3.64v-10.2h0Z"/></g><g class="cy"><path class="bo" d="M271.78,45.85c0,.86,0,4.27,.09,5.02-.06,.17-.23,.32-.54,.32-.34-.48-1.18-1.49-3.67-4.33l-6.65-7.57c-.77-.89-2.72-3.24-3.33-3.87h-.06c-.12,.34-.15,1-.15,1.86v6.25c0,1.35,.03,5.07,.52,5.93,.17,.32,.75,.49,1.46,.55l.89,.09c.17,.23,.14,.57-.06,.72-1.29-.06-2.29-.09-3.35-.09-1.2,0-1.98,.03-2.98,.09-.2-.14-.23-.55-.06-.72l.78-.09c.66-.09,1.12-.26,1.26-.57,.4-1.03,.37-4.53,.37-5.9v-8.28c0-.8-.03-1.41-.63-2.06-.4-.4-1.09-.6-1.78-.69l-.49-.06c-.17-.17-.17-.6,.06-.72,1.2,.09,2.72,.09,3.24,.09,.46,0,.95-.03,1.32-.09,.57,1.46,3.96,5.25,4.9,6.31l2.78,3.12c1.98,2.21,3.38,3.81,4.73,5.19h.06c.11-.14,.11-.6,.11-1.2v-6.13c0-1.35-.03-5.07-.57-5.93-.17-.26-.63-.43-1.78-.57l-.49-.06c-.2-.17-.17-.63,.05-.72,1.32,.06,2.29,.09,3.38,.09,1.23,0,1.98-.03,2.95-.09,.23,.14,.23,.55,.06,.72l-.4,.06c-.92,.14-1.49,.37-1.61,.6-.49,1.03-.43,4.59-.43,5.91v6.85h0Z"/></g><g class="ch"><path class="bo" d="M279.31,51.18c-2.41,0-3.93-.74-4.47-1.06-.34-.63-.72-2.67-.78-4.01,.15-.2,.58-.26,.69-.09,.43,1.46,1.61,4.27,4.93,4.27,2.41,0,3.58-1.58,3.58-3.3,0-1.26-.26-2.67-2.35-4.01l-2.72-1.78c-1.43-.94-3.1-2.58-3.1-4.93,0-2.72,2.12-4.93,5.85-4.93,.89,0,1.92,.17,2.67,.37,.37,.12,.77,.17,1,.17,.26,.69,.52,2.29,.52,3.5-.12,.17-.57,.26-.72,.09-.37-1.38-1.15-3.24-3.9-3.24s-3.41,1.86-3.41,3.18c0,1.66,1.38,2.86,2.44,3.52l2.29,1.43c1.81,1.12,3.58,2.78,3.58,5.5,0,3.15-2.38,5.3-6.1,5.3"/></g></g><g><g class="bq"><path class="bo" d="M100.54,73.55c-1.24,0-2.03-.38-2.31-.55-.18-.32-.37-1.38-.4-2.07,.07-.1,.3-.13,.35-.04,.22,.75,.83,2.21,2.55,2.21,1.24,0,1.85-.81,1.85-1.7,0-.65-.13-1.38-1.22-2.07l-1.41-.92c-.74-.49-1.6-1.34-1.6-2.55,0-1.41,1.1-2.55,3.02-2.55,.46,0,.99,.09,1.38,.19,.19,.06,.4,.09,.52,.09,.13,.36,.27,1.19,.27,1.81-.06,.09-.3,.13-.37,.04-.19-.71-.59-1.67-2.01-1.67s-1.76,.96-1.76,1.65c0,.86,.71,1.48,1.26,1.82l1.19,.74c.93,.58,1.85,1.44,1.85,2.85,0,1.63-1.23,2.74-3.16,2.74"/></g><g class="bs"><path class="bo" d="M109.05,68.53c-.71,0-.74,.03-.74,.47v2.09c0,1.56,.07,1.76,.9,1.85l.43,.05c.09,.06,.06,.33-.03,.37-.8-.03-1.3-.04-1.88-.04-.64,0-1.14,.03-1.72,.04-.09-.04-.12-.28-.03-.37l.25-.05c.83-.15,.86-.3,.86-1.85v-5.33c0-1.56-.11-1.81-.87-1.87l-.38-.03c-.09-.06-.06-.33,.03-.37,.73,.02,1.23,.04,1.87,.04,.58,0,1.08-.01,1.72-.04,.09,.04,.12,.31,.03,.37l-.28,.03c-.86,.09-.89,.31-.89,1.87v1.7c0,.46,.03,.48,.74,.48h4.24c.71,0,.74-.02,.74-.48v-1.7c0-1.56-.03-1.78-.9-1.87l-.28-.03c-.09-.06-.06-.33,.03-.37,.68,.03,1.18,.04,1.79,.04s1.08-.01,1.75-.04c.09,.04,.12,.31,.03,.37l-.31,.03c-.86,.09-.89,.31-.89,1.87v5.33c0,1.56,.03,1.75,.89,1.85l.36,.05c.09,.06,.06,.33-.03,.37-.71-.03-1.21-.04-1.79-.04-.61,0-1.14,.02-1.79,.04-.09-.04-.12-.28-.03-.37l.28-.05c.9-.15,.9-.3,.9-1.85v-2.09c0-.44-.03-.47-.74-.47h-4.24Z"/></g><g class="cm"><path class="bo" d="M119.77,65.76c0-1.54-.03-1.76-.9-1.87l-.24-.03c-.09-.06-.06-.32,.03-.37,.64,.03,1.14,.04,1.75,.04h2.79c.95,0,1.82,0,2-.04,.09,.25,.18,1.32,.24,1.97-.06,.09-.3,.12-.37,.03-.22-.7-.36-1.21-1.13-1.41-.31-.08-.78-.09-1.44-.09h-1.07c-.45,0-.45,.03-.45,.59v2.96c0,.42,.05,.42,.49,.42h.86c.62,0,1.08-.03,1.26-.09,.18-.06,.28-.15,.36-.52l.12-.61c.07-.09,.32-.09,.38,.01,0,.36-.06,.93-.06,1.5s.06,1.1,.06,1.42c-.06,.1-.31,.1-.38,.01l-.13-.58c-.06-.27-.16-.49-.46-.56-.21-.06-.56-.07-1.14-.07h-.86c-.44,0-.49,.01-.49,.4v2.09c0,.79,.05,1.29,.28,1.54,.18,.18,.49,.34,1.79,.34,1.14,0,1.57-.06,1.9-.22,.27-.15,.67-.67,1.05-1.44,.1-.07,.31-.03,.37,.1-.1,.52-.47,1.66-.67,2.06-1.33-.03-2.65-.04-3.97-.04h-1.33c-.64,0-1.14,.02-2.01,.04-.09-.04-.12-.28-.03-.37l.49-.05c.84-.07,.92-.3,.92-1.85v-5.34h0Z"/></g><g class="bz"><path class="bo" d="M129.16,65.78c0-1.41-.04-1.66-.65-1.73l-.47-.06c-.11-.07-.11-.31,.01-.37,.83-.07,1.85-.12,3.3-.12,.92,0,1.79,.07,2.47,.44,.71,.37,1.23,1.04,1.23,2.07,0,1.41-1.11,2.18-1.85,2.47-.07,.09,0,.24,.07,.36,1.18,1.91,1.97,3.1,2.98,3.94,.25,.22,.62,.38,1.02,.41,.08,.03,.09,.15,.02,.21-.13,.04-.37,.08-.65,.08-1.26,0-2.01-.37-3.07-1.87-.39-.55-.99-1.57-1.45-2.24-.22-.33-.46-.47-1.05-.47-.67,0-.7,.01-.7,.33v1.87c0,1.55,.03,1.73,.89,1.85l.31,.05c.09,.07,.06,.32-.03,.37-.67-.03-1.17-.04-1.76-.04-.62,0-1.15,.02-1.85,.04-.09-.04-.12-.27-.03-.37l.37-.05c.86-.1,.89-.3,.89-1.85v-5.32h0Zm1.21,2.12c0,.27,0,.43,.05,.49,.04,.04,.27,.07,1.02,.07,.53,0,1.1-.06,1.53-.39,.4-.31,.74-.83,.74-1.84,0-1.17-.73-2.28-2.37-2.28-.92,0-.96,.06-.96,.47v3.47h0Z"/></g><g class="da"><path class="bo" d="M139.46,65.79c0-1.57-.03-1.82-.9-1.9l-.37-.03c-.09-.06-.06-.33,.03-.37,.74,.03,1.24,.04,1.87,.04s1.1-.01,1.84-.04c.09,.04,.12,.31,.03,.37l-.37,.03c-.87,.07-.9,.33-.9,1.9v5.27c0,1.57,.03,1.78,.9,1.88l.37,.05c.09,.06,.06,.33-.03,.37-.74-.03-1.24-.04-1.84-.04s-1.13,.01-1.87,.04c-.09-.04-.12-.28-.03-.37l.37-.05c.87-.1,.9-.31,.9-1.88v-5.27Z"/></g><g class="cn"><path class="bo" d="M145.2,65.46c0-1.04-.07-1.35-.7-1.44l-.33-.04c-.12-.07-.13-.31,.01-.37,1.26-.07,2.46-.12,3.72-.12s2.3,.09,3.26,.44c2,.73,3.01,2.42,3.01,4.37s-.9,3.5-2.59,4.42c-.96,.52-2.18,.71-3.32,.71-.95,0-1.9-.12-2.42-.12-.62,0-1.16,.02-1.85,.05-.09-.05-.12-.28-.03-.37l.34-.05c.86-.12,.89-.3,.89-1.85v-5.63h0Zm1.22,5.29c0,.79,.04,1.26,.3,1.61,.33,.46,.89,.61,1.82,.61,2.88,0,4.16-1.88,4.16-4.64,0-1.63-.79-4.39-4.67-4.39-.87,0-1.35,.12-1.47,.21-.12,.09-.15,.46-.15,1.13v5.47Z"/></g><g class="dj"><path class="bo" d="M160.88,69.88c-.1-.33-.16-.37-.61-.37h-2.24c-.37,0-.46,.04-.56,.36l-.52,1.56c-.22,.67-.33,1.07-.33,1.23,0,.18,.08,.27,.43,.3l.49,.05c.1,.07,.1,.31-.03,.37-.39-.03-.84-.03-1.54-.05-.49,0-1.02,.03-1.42,.05-.09-.06-.12-.3-.03-.37l.49-.05c.36-.03,.68-.19,.89-.73,.27-.68,.68-1.64,1.3-3.3l1.51-4c.21-.53,.3-.81,.25-1.05,.35-.1,.61-.37,.77-.56,.09,0,.19,.03,.22,.13,.19,.65,.43,1.33,.65,1.99l2.03,5.96c.43,1.27,.62,1.5,1.26,1.57l.4,.05c.1,.07,.08,.31,0,.37-.61-.03-1.13-.05-1.79-.05-.71,0-1.27,.03-1.7,.05-.12-.06-.13-.3-.03-.37l.43-.05c.31-.03,.52-.12,.52-.27,0-.16-.07-.43-.19-.78l-.65-2.01Zm-2.93-1.32c-.12,.34-.1,.36,.31,.36h1.82c.43,0,.46-.06,.33-.46l-.8-2.41c-.12-.36-.25-.76-.34-.94h-.03c-.04,.08-.19,.43-.36,.88l-.93,2.58Z"/></g><g class="dm"><path class="bo" d="M174.68,70.8c0,.45,0,2.21,.04,2.59-.03,.09-.12,.16-.28,.16-.18-.25-.61-.77-1.9-2.24l-3.44-3.91c-.4-.46-1.41-1.67-1.72-2h-.03c-.06,.18-.07,.52-.07,.96v3.23c0,.7,.01,2.62,.27,3.07,.09,.16,.39,.25,.76,.28l.46,.05c.09,.12,.07,.3-.03,.37-.67-.03-1.19-.04-1.73-.04-.62,0-1.02,.02-1.54,.04-.1-.07-.12-.28-.03-.37l.4-.05c.34-.04,.58-.13,.65-.3,.21-.53,.19-2.34,.19-3.05v-4.28c0-.41-.02-.73-.33-1.07-.21-.21-.56-.31-.92-.36l-.25-.03c-.09-.09-.09-.31,.03-.37,.62,.04,1.41,.04,1.68,.04,.24,0,.49-.02,.68-.04,.3,.76,2.04,2.71,2.53,3.26l1.44,1.61c1.02,1.14,1.75,1.97,2.44,2.68h.03c.06-.07,.06-.31,.06-.62v-3.17c0-.7-.01-2.62-.3-3.07-.09-.13-.32-.22-.92-.3l-.25-.03c-.1-.09-.09-.32,.03-.37,.68,.03,1.18,.04,1.75,.04,.64,0,1.02-.02,1.53-.04,.12,.07,.12,.28,.03,.37l-.21,.03c-.48,.07-.77,.19-.83,.31-.25,.53-.22,2.37-.22,3.05v3.54h0Z"/></g><g class="ci"><path class="bo" d="M183.47,65.76c0-1.56-.03-1.79-.96-1.87l-.37-.03c-.09-.06-.06-.32,.03-.37,.83,.03,1.33,.04,1.93,.04s1.08-.02,1.82-.04c.09,.04,.12,.31,.03,.37l-.36,.03c-.87,.07-.9,.31-.9,1.87v5.16c0,.93,.04,1.32,.31,1.6,.16,.16,.44,.34,1.62,.34,1.26,0,1.57-.06,1.81-.19,.3-.18,.68-.71,.98-1.47,.09-.07,.37-.01,.37,.09,0,.16-.41,1.67-.62,2.07-.76-.03-2.16-.04-3.69-.04h-1.36c-.62,0-1.1,.02-1.93,.04-.09-.04-.12-.28-.03-.37l.44-.05c.86-.09,.89-.3,.89-1.85v-5.34h0Z"/></g><g class="bx"><path class="bo" d="M192.41,65.79c0-1.57-.03-1.82-.9-1.9l-.37-.03c-.09-.06-.06-.33,.03-.37,.74,.03,1.24,.04,1.87,.04s1.1-.01,1.84-.04c.09,.04,.12,.31,.03,.37l-.37,.03c-.87,.07-.9,.33-.9,1.9v5.27c0,1.57,.03,1.78,.9,1.88l.37,.05c.09,.06,.06,.33-.03,.37-.74-.03-1.25-.04-1.84-.04s-1.13,.01-1.87,.04c-.09-.04-.12-.28-.03-.37l.37-.05c.88-.1,.9-.31,.9-1.88v-5.27Z"/></g><g class="db"><path class="bo" d="M198.15,65.46c0-1.1-.06-1.38-.73-1.44l-.48-.04c-.12-.09-.1-.31,.02-.37,.8-.07,1.81-.12,3.19-.12,.93,0,1.82,.07,2.49,.42,.64,.31,1.13,.9,1.13,1.85,0,1.07-.62,1.61-1.51,2.03,0,.15,.12,.19,.28,.22,.8,.15,1.99,.89,1.99,2.48,0,1.72-1.27,2.87-3.94,2.87-.43,0-1.15-.04-1.78-.04s-1.15,.03-1.7,.04c-.09-.04-.12-.28-.03-.37l.27-.05c.78-.13,.81-.3,.81-1.85v-5.63h0Zm1.21,1.97c0,.42,.02,.44,.77,.42,1.51-.06,2.33-.5,2.33-1.9s-1.08-2-2.21-2c-.33,0-.55,.03-.68,.09-.15,.04-.21,.12-.21,.39v3.01Zm0,3.44c0,.53,.03,1.29,.31,1.62,.28,.34,.73,.41,1.17,.41,1.32,0,2.33-.59,2.33-2.07,0-1.17-.59-2.53-2.95-2.53-.8,0-.86,.09-.86,.38v2.19Z"/></g><g class="de"><path class="bo" d="M207.84,65.78c0-1.41-.04-1.66-.65-1.73l-.47-.06c-.1-.07-.1-.31,.02-.37,.83-.07,1.85-.12,3.3-.12,.92,0,1.79,.07,2.47,.44,.71,.37,1.23,1.04,1.23,2.07,0,1.41-1.11,2.18-1.85,2.47-.07,.09,0,.24,.07,.36,1.18,1.91,1.97,3.1,2.98,3.94,.25,.22,.62,.38,1.02,.41,.07,.03,.09,.15,.02,.21-.13,.04-.37,.08-.65,.08-1.26,0-2.01-.37-3.07-1.87-.39-.55-.99-1.57-1.45-2.24-.22-.33-.46-.47-1.05-.47-.67,0-.7,.01-.7,.33v1.87c0,1.55,.03,1.73,.89,1.85l.31,.05c.09,.07,.06,.32-.03,.37-.67-.03-1.17-.04-1.76-.04-.62,0-1.16,.02-1.85,.04-.09-.04-.12-.27-.03-.37l.37-.05c.86-.1,.89-.3,.89-1.85v-5.32Zm1.21,2.12c0,.27,0,.43,.05,.49,.04,.04,.27,.07,1.02,.07,.53,0,1.1-.06,1.53-.39,.4-.31,.74-.83,.74-1.84,0-1.17-.73-2.28-2.37-2.28-.92,0-.96,.06-.96,.47v3.47h0Z"/></g><g class="cv"><path class="bo" d="M222.26,69.88c-.1-.33-.16-.37-.61-.37h-2.24c-.37,0-.46,.04-.56,.36l-.52,1.56c-.22,.67-.32,1.07-.32,1.23,0,.18,.07,.27,.43,.3l.49,.05c.11,.07,.11,.31-.03,.37-.39-.03-.84-.03-1.54-.05-.49,0-1.02,.03-1.42,.05-.09-.06-.12-.3-.03-.37l.49-.05c.36-.03,.68-.19,.89-.73,.27-.68,.68-1.64,1.3-3.3l1.51-4c.21-.53,.3-.81,.25-1.05,.36-.1,.61-.37,.77-.56,.09,0,.19,.03,.22,.13,.19,.65,.43,1.33,.65,1.99l2.03,5.96c.43,1.27,.62,1.5,1.26,1.57l.4,.05c.1,.07,.07,.31,0,.37-.61-.03-1.13-.05-1.79-.05-.71,0-1.27,.03-1.7,.05-.12-.06-.13-.3-.03-.37l.43-.05c.31-.03,.52-.12,.52-.27,0-.16-.07-.43-.19-.78l-.65-2.01Zm-2.93-1.32c-.12,.34-.11,.36,.31,.36h1.82c.43,0,.46-.06,.33-.46l-.8-2.41c-.12-.36-.25-.76-.34-.94h-.03c-.04,.08-.19,.43-.35,.88l-.93,2.58Z"/></g><g class="bl"><path class="bo" d="M228.08,65.78c0-1.41-.04-1.66-.65-1.73l-.47-.06c-.11-.07-.11-.31,.01-.37,.83-.07,1.85-.12,3.3-.12,.92,0,1.79,.07,2.47,.44,.71,.37,1.23,1.04,1.23,2.07,0,1.41-1.11,2.18-1.85,2.47-.07,.09,0,.24,.07,.36,1.18,1.91,1.97,3.1,2.98,3.94,.25,.22,.62,.38,1.02,.41,.08,.03,.09,.15,.02,.21-.13,.04-.37,.08-.65,.08-1.26,0-2.01-.37-3.07-1.87-.39-.55-.99-1.57-1.45-2.24-.22-.33-.46-.47-1.05-.47-.67,0-.7,.01-.7,.33v1.87c0,1.55,.03,1.73,.89,1.85l.31,.05c.09,.07,.06,.32-.03,.37-.67-.03-1.17-.04-1.76-.04-.62,0-1.15,.02-1.85,.04-.09-.04-.12-.27-.03-.37l.37-.05c.86-.1,.89-.3,.89-1.85v-5.32h0Zm1.21,2.12c0,.27,0,.43,.05,.49,.04,.04,.27,.07,1.02,.07,.53,0,1.1-.06,1.53-.39,.4-.31,.74-.83,.74-1.84,0-1.17-.73-2.28-2.37-2.28-.92,0-.96,.06-.96,.47v3.47h0Z"/></g><g class="cu"><path class="bo" d="M238.36,65.79c0-1.57-.03-1.82-.91-1.9l-.37-.03c-.09-.06-.06-.33,.03-.37,.74,.03,1.25,.04,1.87,.04s1.1-.01,1.84-.04c.09,.04,.12,.31,.03,.37l-.37,.03c-.87,.07-.9,.33-.9,1.9v5.27c0,1.57,.03,1.78,.9,1.88l.37,.05c.09,.06,.06,.33-.03,.37-.74-.03-1.24-.04-1.84-.04-.62,0-1.13,.01-1.87,.04-.09-.04-.12-.28-.03-.37l.37-.05c.88-.1,.91-.31,.91-1.88v-5.27Z"/></g><g class="bn"><path class="bo" d="M244.11,65.76c0-1.54-.03-1.76-.91-1.87l-.24-.03c-.09-.06-.06-.32,.03-.37,.64,.03,1.14,.04,1.75,.04h2.79c.95,0,1.82,0,2-.04,.09,.25,.18,1.32,.24,1.97-.06,.09-.3,.12-.37,.03-.22-.7-.35-1.21-1.13-1.41-.31-.08-.78-.09-1.44-.09h-1.07c-.44,0-.44,.03-.44,.59v2.96c0,.42,.05,.42,.49,.42h.86c.62,0,1.08-.03,1.26-.09,.18-.06,.28-.15,.36-.52l.12-.61c.07-.09,.32-.09,.38,.01,0,.36-.06,.93-.06,1.5s.06,1.1,.06,1.42c-.06,.1-.31,.1-.38,.01l-.13-.58c-.06-.27-.16-.49-.46-.56-.21-.06-.56-.07-1.14-.07h-.86c-.44,0-.49,.01-.49,.4v2.09c0,.79,.05,1.29,.28,1.54,.18,.18,.49,.34,1.79,.34,1.14,0,1.57-.06,1.9-.22,.27-.15,.67-.67,1.05-1.44,.1-.07,.31-.03,.37,.1-.1,.52-.47,1.66-.67,2.06-1.34-.03-2.65-.04-3.97-.04h-1.33c-.64,0-1.14,.02-2.01,.04-.09-.04-.12-.28-.03-.37l.49-.05c.84-.07,.92-.3,.92-1.85v-5.34h0Z"/></g><g class="dc"><path class="bo" d="M254.92,73.55c-1.25,0-2.03-.38-2.31-.55-.18-.32-.37-1.38-.4-2.07,.07-.1,.3-.13,.36-.04,.22,.75,.83,2.21,2.55,2.21,1.25,0,1.85-.81,1.85-1.7,0-.65-.13-1.38-1.21-2.07l-1.41-.92c-.74-.49-1.6-1.34-1.6-2.55,0-1.41,1.1-2.55,3.02-2.55,.46,0,.99,.09,1.38,.19,.19,.06,.4,.09,.52,.09,.13,.36,.27,1.19,.27,1.81-.06,.09-.3,.13-.37,.04-.19-.71-.59-1.67-2.01-1.67s-1.76,.96-1.76,1.65c0,.86,.71,1.48,1.26,1.82l1.19,.74c.93,.58,1.85,1.44,1.85,2.85,0,1.63-1.23,2.74-3.16,2.74"/></g></g></svg>