<?xml version="1.0" encoding="UTF-8"?><svg id="a" xmlns="http://www.w3.org/2000/svg" width="225" height="240" xmlns:xlink="http://www.w3.org/1999/xlink" viewBox="0 0 225 240"><defs><style>.ae{clip-path:url(#ad);}.af{clip-path:url(#j);}.ag{clip-path:url(#t);}.ah{fill:#002361;}.ai{clip-path:url(#g);}.aj{clip-path:url(#z);}.ak{clip-path:url(#r);}.al{clip-path:url(#p);}.am{clip-path:url(#d);}.an{clip-path:url(#ab);}.ao{clip-path:url(#ac);}.ap{clip-path:url(#aa);}.aq{clip-path:url(#v);}.ar{clip-path:url(#m);}.as{clip-path:url(#x);}.at{clip-path:url(#i);}.au{clip-path:url(#b);}.av{clip-path:url(#e);}.aw{clip-path:url(#f);}.ax{clip-path:url(#l);}.ay{clip-path:url(#o);}.az{clip-path:url(#n);}.ba{clip-path:url(#q);}.bb{clip-path:url(#k);}.bc{fill:none;}.bd{clip-path:url(#c);}.be{clip-path:url(#u);}.bf{clip-path:url(#s);}.bg{clip-path:url(#h);}.bh{clip-path:url(#y);}.bi{clip-path:url(#w);}</style><clipPath id="b"><rect class="bc" y="0" width="225" height="240"/></clipPath><clipPath id="c"><rect class="bc" y="0" width="225" height="240"/></clipPath><clipPath id="d"><rect class="bc" y="0" width="225" height="240"/></clipPath><clipPath id="e"><rect class="bc" y="0" width="225" height="240"/></clipPath><clipPath id="f"><rect class="bc" y="0" width="225" height="240"/></clipPath><clipPath id="g"><rect class="bc" y="0" width="225" height="240"/></clipPath><clipPath id="h"><rect class="bc" y="0" width="225" height="240"/></clipPath><clipPath id="i"><rect class="bc" y="0" width="225" height="240"/></clipPath><clipPath id="j"><rect class="bc" y="0" width="225" height="240"/></clipPath><clipPath id="k"><rect class="bc" y="0" width="225" height="240"/></clipPath><clipPath id="l"><rect class="bc" y="0" width="225" height="240"/></clipPath><clipPath id="m"><rect class="bc" y="0" width="225" height="240"/></clipPath><clipPath id="n"><rect class="bc" y="0" width="225" height="240"/></clipPath><clipPath id="o"><rect class="bc" y="0" width="225" height="240"/></clipPath><clipPath id="p"><rect class="bc" y="0" width="225" height="240"/></clipPath><clipPath id="q"><rect class="bc" y="0" width="225" height="240"/></clipPath><clipPath id="r"><rect class="bc" y="0" width="225" height="240"/></clipPath><clipPath id="s"><rect class="bc" y="0" width="225" height="240"/></clipPath><clipPath id="t"><rect class="bc" y="0" width="225" height="240"/></clipPath><clipPath id="u"><rect class="bc" y="0" width="225" height="240"/></clipPath><clipPath id="v"><rect class="bc" y="0" width="225" height="240"/></clipPath><clipPath id="w"><rect class="bc" y="0" width="225" height="240"/></clipPath><clipPath id="x"><rect class="bc" y="0" width="225" height="240"/></clipPath><clipPath id="y"><rect class="bc" y="0" width="225" height="240"/></clipPath><clipPath id="z"><rect class="bc" y="0" width="225" height="240"/></clipPath><clipPath id="aa"><rect class="bc" y="0" width="225" height="240"/></clipPath><clipPath id="ab"><rect class="bc" y="0" width="225" height="240"/></clipPath><clipPath id="ac"><rect class="bc" y="0" width="225" height="240"/></clipPath><clipPath id="ad"><rect class="bc" y="0" width="225" height="240"/></clipPath></defs><g class="au"><path class="ah" d="M115.02,225.1c5.31-2.93,11.7-6.97,18.63-12.19v-62.67l-18.63-12.39v87.25Z"/></g><g class="bd"><path class="ah" d="M115.02,94.47l18.63,12.4v-31.67c-6.2-.29-12.41-.45-18.63-.5v19.77Z"/></g><g class="am"><path class="ah" d="M170.9,78.5c-6.19-.8-12.4-1.44-18.63-1.99v42.76l18.63,12.4v-53.17Z"/></g><g class="av"><path class="ah" d="M152.27,162.64v34.08c6.27-6.23,12.58-13.44,18.63-21.63v-.06l-18.63-12.4Z"/></g><g class="aw"><path class="ah" d="M170.9,175.1s.01-.02,.03-.05h-.03s0,.05,0,.05Z"/></g><g class="ai"><path class="ah" d="M189.51,81.3v62.76l.06,.03c8.12-16.83,14.68-36.47,18.37-59.31l-.63-.12c-5.89-1.24-11.83-2.34-17.79-3.36"/></g><g class="bg"><polygon class="ah" points="133.65 106.88 133.65 150.26 152.27 162.64 152.27 119.27 133.65 106.88"/></g><g class="at"><path class="ah" d="M170.9,131.67v43.37h.03c6.66-8.99,12.99-19.26,18.58-30.85v-.12l-18.61-12.39Z"/></g><g class="af"><path class="ah" d="M189.51,144.19s.04-.07,.06-.1l-.06-.02v.12Z"/></g><g class="bb"><path class="ah" d="M74.15,153.07c5.5-1.53,10.33-4.59,14.03-8.73-2.03-.73-4.4-1.46-7.14-2.07-2.02,4.5-4.57,8.09-6.89,10.8"/></g><g class="ax"><path class="ah" d="M44.59,144.36c3.7,4.14,8.55,7.22,14.05,8.73-2.32-2.71-4.88-6.31-6.91-10.82-2.74,.61-5.11,1.35-7.15,2.09"/></g><g class="ar"><path class="ah" d="M63.69,99.17c-2.02,2.22-4.39,5.36-6.37,9.32,2,.26,4.11,.45,6.37,.53v-9.85Z"/></g><g class="az"><path class="ah" d="M82.92,137.2c3.36,.79,6.23,1.73,8.56,2.66,2.19-3.66,3.62-7.8,4.03-12.26h-10.87c-.22,3.47-.83,6.69-1.72,9.61"/></g><g class="ay"><path class="ah" d="M58.65,96.72c-5.5,1.51-10.35,4.6-14.05,8.73,2.04,.73,4.4,1.46,7.15,2.08,2.02-4.5,4.58-8.1,6.9-10.81"/></g><g class="al"><path class="ah" d="M88.18,105.45c-3.7-4.13-8.53-7.21-14.04-8.73,2.32,2.71,4.88,6.31,6.9,10.8,2.74-.61,5.11-1.34,7.14-2.07"/></g><g class="ba"><path class="ah" d="M84.65,122.22h10.87c-.41-4.46-1.84-8.61-4.03-12.26-2.33,.92-5.19,1.86-8.56,2.65,.89,2.92,1.5,6.13,1.72,9.61"/></g><g class="ak"><path class="ah" d="M69.06,150.66c2.03-2.22,4.43-5.36,6.41-9.34-2.01-.26-4.15-.45-6.41-.54v9.88Z"/></g><g class="bf"><path class="ah" d="M63.69,127.59h-10.16c.23,3.11,.84,5.97,1.7,8.59,2.6-.4,5.43-.66,8.46-.78v-7.81Z"/></g><g class="ag"><path class="ah" d="M69.06,135.4c3.05,.1,5.89,.37,8.51,.77,.85-2.6,1.47-5.47,1.69-8.58h-10.2v7.81Z"/></g><g class="be"><path class="ah" d="M75.49,108.49c-1.99-4.01-4.39-7.16-6.43-9.38v9.9c2.27-.07,4.43-.26,6.43-.52"/></g><g class="aq"><path class="ah" d="M79.26,122.22c-.23-3.12-.83-5.99-1.68-8.59-2.61,.4-5.46,.67-8.52,.78v7.81h10.2Z"/></g><g class="bi"><path class="ah" d="M57.32,141.31c1.98,3.94,4.35,7.08,6.37,9.32v-9.85c-2.26,.09-4.38,.27-6.37,.53"/></g><g class="as"><path class="ah" d="M49.86,112.6c-3.38-.79-6.23-1.73-8.59-2.65-2.17,3.66-3.61,7.81-4.02,12.27h10.88c.22-3.48,.83-6.69,1.72-9.62"/></g><g class="bh"><path class="ah" d="M63.69,114.41c-3.04-.1-5.87-.38-8.46-.78-.85,2.6-1.47,5.47-1.7,8.59h10.16v-7.81Z"/></g><g class="aj"><path class="ah" d="M48.14,127.59h-10.88c.42,4.46,1.84,8.61,4.02,12.27,2.35-.92,5.21-1.86,8.59-2.67-.89-2.91-1.51-6.13-1.73-9.6"/></g><g class="ap"><path class="ah" d="M13.31,84.82c13.67,84.5,66.58,125.75,92.93,140.28V74.7c-31.15,.29-62.18,3.63-92.29,9.98l-.65,.14Zm53.06,5.45c19.1,0,34.64,15.54,34.64,34.64s-15.54,34.63-34.64,34.63-34.63-15.55-34.63-34.63c0-19.1,15.54-34.64,34.63-34.64"/></g><g class="an"><path class="ah" d="M207.24,20.21l-.07-.03c-31.15-6.64-63.44-10.17-96.55-10.17S45.14,13.54,13.96,20.21l-.13,.03c-2.2,.55-3.83,2.53-3.83,4.91v17.47c.01,11.48,.71,22.31,1.96,32.57,32.37-6.84,65.56-10.27,98.75-10.27s66.3,3.43,98.59,10.24c1.24-10.25,1.94-21.08,1.94-32.54V25.15c0-2.43-1.72-4.47-4-4.94m-21.76,43.24c-24.23-4.6-52.05-6.01-74.84-6.01h-.02c-22.79,0-50.62,1.41-74.84,6.01-.92,.18-1.72-.65-1.22-1.62l15.93-35.18c.16-.33,10.46-5.42,10.46-5.42,13.09-2.75,34.63-1.54,49.65,3.99h.05c15.03-5.53,36.56-6.74,49.65-3.99,0,0,10.29,5.1,10.45,5.42l15.93,35.18c.51,.97-.29,1.81-1.21,1.62"/></g><g class="ao"><path class="ah" d="M156.16,27.27l6.7,17.94c-15.61-2.14-28.54-1.17-47.64,5.09v1.68c18.04-.68,40.87-1.68,59.31,2.28l-10.06-23.12-8.32-3.86Z"/></g><g class="ae"><path class="ah" d="M58.18,45.21l6.7-17.94-8.32,3.86-10.05,23.12c18.45-3.97,41.27-2.97,59.31-2.28v-1.68c-19.09-6.26-32.03-7.23-47.64-5.09"/></g></svg>