<?xml version="1.0" encoding="UTF-8"?><svg id="a" xmlns="http://www.w3.org/2000/svg" width="300" height="96" xmlns:xlink="http://www.w3.org/1999/xlink" viewBox="0 0 300 96"><defs><style>.ba{clip-path:url(#ad);}.bb{clip-path:url(#am);}.bc{clip-path:url(#ai);}.bd{clip-path:url(#j);}.be{clip-path:url(#t);}.bf{fill:#002361;}.bg{clip-path:url(#g);}.bh{clip-path:url(#aq);}.bi{clip-path:url(#z);}.bj{clip-path:url(#ar);}.bk{clip-path:url(#r);}.bl{clip-path:url(#p);}.bm{clip-path:url(#aj);}.bn{clip-path:url(#d);}.bo{clip-path:url(#az);}.bp{clip-path:url(#ab);}.bq{clip-path:url(#at);}.br{clip-path:url(#ac);}.bs{clip-path:url(#aa);}.bt{clip-path:url(#v);}.bu{clip-path:url(#m);}.bv{clip-path:url(#x);}.bw{clip-path:url(#i);}.bx{clip-path:url(#b);}.by{clip-path:url(#ap);}.bz{clip-path:url(#ay);}.ca{clip-path:url(#e);}.cb{clip-path:url(#f);}.cc{clip-path:url(#l);}.cd{clip-path:url(#as);}.ce{clip-path:url(#av);}.cf{clip-path:url(#an);}.cg{clip-path:url(#o);}.ch{clip-path:url(#af);}.ci{clip-path:url(#n);}.cj{clip-path:url(#q);}.ck{clip-path:url(#k);}.cl{fill:none;}.cm{clip-path:url(#c);}.cn{clip-path:url(#ao);}.co{clip-path:url(#u);}.cp{clip-path:url(#au);}.cq{clip-path:url(#ak);}.cr{clip-path:url(#ae);}.cs{clip-path:url(#ah);}.ct{clip-path:url(#s);}.cu{clip-path:url(#ag);}.cv{clip-path:url(#aw);}.cw{clip-path:url(#h);}.cx{clip-path:url(#y);}.cy{clip-path:url(#ax);}.cz{clip-path:url(#al);}.da{clip-path:url(#w);}</style><clipPath id="b"><rect class="cl" x="-36.6" y="-29.5" width="373.19" height="155"/></clipPath><clipPath id="c"><rect class="cl" x="-36.6" y="-29.5" width="373.19" height="155"/></clipPath><clipPath id="d"><rect class="cl" x="-36.6" y="-29.5" width="373.19" height="155"/></clipPath><clipPath id="e"><rect class="cl" x="-36.6" y="-29.5" width="373.19" height="155"/></clipPath><clipPath id="f"><rect class="cl" x="-36.6" y="-29.5" width="373.19" height="155"/></clipPath><clipPath id="g"><rect class="cl" x="-36.6" y="-29.5" width="373.19" height="155"/></clipPath><clipPath id="h"><rect class="cl" x="-36.6" y="-29.5" width="373.19" height="155"/></clipPath><clipPath id="i"><rect class="cl" x="-36.6" y="-29.5" width="373.19" height="155"/></clipPath><clipPath id="j"><rect class="cl" x="-36.6" y="-29.5" width="373.19" height="155"/></clipPath><clipPath id="k"><rect class="cl" x="-36.6" y="-29.5" width="373.19" height="155"/></clipPath><clipPath id="l"><rect class="cl" x="14.52" y="21.77" width="47.99" height="51.71"/></clipPath><clipPath id="m"><rect class="cl" x="14.52" y="21.77" width="47.99" height="51.71"/></clipPath><clipPath id="n"><rect class="cl" x="14.52" y="21.77" width="47.99" height="51.71"/></clipPath><clipPath id="o"><rect class="cl" x="14.52" y="21.77" width="47.99" height="51.71"/></clipPath><clipPath id="p"><rect class="cl" x="14.52" y="21.77" width="47.99" height="51.71"/></clipPath><clipPath id="q"><rect class="cl" x="14.52" y="21.77" width="47.99" height="51.71"/></clipPath><clipPath id="r"><rect class="cl" x="14.52" y="21.77" width="47.99" height="51.71"/></clipPath><clipPath id="s"><rect class="cl" x="14.52" y="21.77" width="47.99" height="51.71"/></clipPath><clipPath id="t"><rect class="cl" x="14.52" y="21.77" width="47.99" height="51.71"/></clipPath><clipPath id="u"><rect class="cl" x="14.52" y="21.77" width="47.99" height="51.71"/></clipPath><clipPath id="v"><rect class="cl" x="14.52" y="21.77" width="47.99" height="51.71"/></clipPath><clipPath id="w"><rect class="cl" x="14.52" y="21.77" width="47.99" height="51.71"/></clipPath><clipPath id="x"><rect class="cl" x="14.52" y="21.77" width="47.99" height="51.71"/></clipPath><clipPath id="y"><rect class="cl" x="14.52" y="21.77" width="47.99" height="51.71"/></clipPath><clipPath id="z"><rect class="cl" x="14.52" y="21.77" width="47.99" height="51.71"/></clipPath><clipPath id="aa"><rect class="cl" x="14.52" y="21.77" width="47.99" height="51.71"/></clipPath><clipPath id="ab"><rect class="cl" x="14.52" y="21.77" width="47.99" height="51.71"/></clipPath><clipPath id="ac"><rect class="cl" x="14.52" y="21.77" width="47.99" height="51.71"/></clipPath><clipPath id="ad"><rect class="cl" x="14.52" y="21.77" width="47.99" height="51.71"/></clipPath><clipPath id="ae"><rect class="cl" x="14.52" y="21.77" width="47.99" height="51.71"/></clipPath><clipPath id="af"><rect class="cl" x="14.52" y="21.77" width="47.99" height="51.71"/></clipPath><clipPath id="ag"><rect class="cl" x="14.52" y="21.77" width="47.99" height="51.71"/></clipPath><clipPath id="ah"><rect class="cl" x="14.52" y="21.77" width="47.99" height="51.71"/></clipPath><clipPath id="ai"><rect class="cl" x="14.52" y="21.77" width="47.99" height="51.71"/></clipPath><clipPath id="aj"><rect class="cl" x="14.52" y="21.77" width="47.99" height="51.71"/></clipPath><clipPath id="ak"><rect class="cl" x="14.52" y="21.77" width="47.99" height="51.71"/></clipPath><clipPath id="al"><rect class="cl" x="14.52" y="21.77" width="47.99" height="51.71"/></clipPath><clipPath id="am"><rect class="cl" x="14.52" y="21.77" width="47.99" height="51.71"/></clipPath><clipPath id="an"><rect class="cl" x="14.52" y="21.77" width="47.99" height="51.71"/></clipPath><clipPath id="ao"><rect class="cl" x="70.56" y="27.63" width="214.62" height="29.31"/></clipPath><clipPath id="ap"><rect class="cl" x="70.56" y="27.63" width="214.62" height="29.31"/></clipPath><clipPath id="aq"><rect class="cl" x="70.56" y="27.63" width="214.62" height="29.31"/></clipPath><clipPath id="ar"><rect class="cl" x="70.56" y="27.63" width="214.62" height="29.31"/></clipPath><clipPath id="as"><rect class="cl" x="70.56" y="27.63" width="214.62" height="29.31"/></clipPath><clipPath id="at"><rect class="cl" x="70.56" y="27.63" width="214.62" height="29.31"/></clipPath><clipPath id="au"><rect class="cl" x="70.56" y="27.63" width="214.62" height="29.31"/></clipPath><clipPath id="av"><rect class="cl" x="70.56" y="27.63" width="214.62" height="29.31"/></clipPath><clipPath id="aw"><rect class="cl" x="70.56" y="27.63" width="214.62" height="29.31"/></clipPath><clipPath id="ax"><rect class="cl" x="70.56" y="27.63" width="214.62" height="29.31"/></clipPath><clipPath id="ay"><rect class="cl" x="70.56" y="27.63" width="214.62" height="29.31"/></clipPath><clipPath id="az"><rect class="cl" x="70.56" y="27.63" width="214.62" height="29.31"/></clipPath></defs><g><g class="bx"><path class="bf" d="M109.89,63.12c0-.92-.03-2.61-.28-3.06-.1-.18-.37-.28-.74-.31l-.37-.03c-.09-.1-.06-.3,.03-.36,.56,.03,1.11,.04,1.69,.04,.62,0,1.02-.01,1.55-.04,.12,.07,.1,.26,.03,.36l-.36,.03c-.37,.03-.65,.16-.74,.36-.21,.49-.21,2.18-.21,3.01v1.67c0,1.28-.21,2.64-1.04,3.53-.64,.7-1.73,1.08-2.82,1.08-1.02,0-2.04-.19-2.76-.81-.78-.65-1.15-1.73-1.15-3.49v-3.49c0-1.54-.03-1.79-.89-1.86l-.37-.03c-.09-.06-.06-.31,.03-.36,.74,.03,1.24,.04,1.83,.04s1.09-.01,1.82-.04c.09,.04,.12,.3,.03,.36l-.35,.03c-.86,.07-.89,.33-.89,1.86v3.19c0,2.38,.74,3.94,3,3.94,2.14,0,2.96-1.68,2.96-3.93v-1.7Z"/></g><g class="cm"><path class="bf" d="M129.2,66.65c0,.44,0,2.2,.04,2.58-.03,.09-.12,.16-.28,.16-.18-.25-.61-.77-1.89-2.23l-3.43-3.9c-.4-.46-1.4-1.67-1.71-2h-.03c-.06,.18-.08,.52-.08,.96v3.22c0,.7,.02,2.62,.27,3.06,.09,.16,.38,.25,.75,.28l.46,.05c.09,.12,.07,.29-.03,.37-.66-.03-1.18-.05-1.73-.05-.62,0-1.02,.02-1.54,.05-.1-.08-.12-.28-.03-.37l.4-.05c.34-.04,.58-.13,.65-.3,.21-.53,.19-2.33,.19-3.04v-4.27c0-.41-.01-.72-.32-1.06-.21-.21-.56-.31-.92-.35l-.25-.03c-.09-.09-.09-.31,.03-.37,.62,.04,1.4,.04,1.67,.04,.24,0,.49-.01,.68-.04,.3,.75,2.04,2.71,2.53,3.25l1.43,1.61c1.02,1.14,1.74,1.96,2.44,2.68h.03c.06-.08,.06-.31,.06-.62v-3.16c0-.69-.02-2.61-.3-3.06-.09-.14-.33-.22-.92-.3l-.25-.03c-.1-.09-.09-.33,.03-.37,.68,.03,1.18,.04,1.74,.04,.63,0,1.02-.01,1.52-.04,.12,.07,.12,.28,.03,.37l-.21,.03c-.47,.07-.77,.19-.83,.31-.25,.53-.22,2.36-.22,3.04v3.53h0Z"/></g><g class="bn"><path class="bf" d="M140.2,61.66c0-1.57-.03-1.82-.9-1.89l-.37-.03c-.09-.06-.06-.33,.03-.37,.74,.03,1.24,.04,1.86,.04s1.09-.01,1.83-.04c.09,.04,.12,.31,.03,.37l-.37,.03c-.87,.07-.9,.32-.9,1.89v5.26c0,1.57,.03,1.77,.9,1.87l.37,.05c.09,.06,.06,.32-.03,.37-.74-.03-1.24-.04-1.83-.04-.62,0-1.12,.02-1.86,.04-.09-.04-.12-.28-.03-.37l.37-.05c.87-.1,.9-.31,.9-1.87v-5.26Z"/></g><g class="ca"><path class="bf" d="M152.17,60.98c-.34-.83-.56-1.14-1.2-1.21l-.27-.03c-.1-.09-.09-.3,.03-.37,.43,.03,.9,.05,1.54,.05s1.17-.01,1.79-.05c.1,.06,.13,.28,.03,.37l-.22,.03c-.56,.07-.68,.16-.69,.28,.03,.15,.28,.95,.74,2.07,.68,1.71,1.36,3.41,2.1,5.1,.46-.98,1.08-2.5,1.42-3.28,.43-1,1.12-2.67,1.37-3.31,.12-.31,.13-.47,.13-.58s-.15-.22-.67-.28l-.26-.03c-.1-.09-.08-.31,.03-.37,.41,.03,.98,.05,1.53,.05,.49,0,.95-.01,1.43-.05,.1,.06,.1,.3,.03,.37l-.44,.03c-.36,.03-.58,.21-.77,.52-.41,.69-.99,1.89-1.65,3.4l-.8,1.82c-.59,1.36-1.29,3.07-1.54,3.86-.04,.03-.1,.04-.16,.04-.08,0-.15-.02-.22-.04-.16-.62-.43-1.34-.68-1.96l-2.6-6.41Z"/></g><g class="cb"><path class="bf" d="M169.96,61.63c0-1.54-.03-1.76-.9-1.86l-.24-.03c-.09-.06-.06-.33,.03-.37,.64,.03,1.14,.04,1.74,.04h2.78c.95,0,1.82,0,1.99-.04,.09,.25,.18,1.32,.24,1.97-.06,.09-.3,.12-.37,.03-.22-.69-.35-1.21-1.12-1.4-.31-.08-.78-.09-1.43-.09h-1.06c-.44,0-.44,.03-.44,.59v2.95c0,.41,.04,.41,.48,.41h.86c.62,0,1.08-.03,1.25-.09,.18-.06,.28-.15,.36-.52l.12-.61c.07-.09,.32-.09,.38,.01,0,.36-.06,.93-.06,1.5,0,.53,.06,1.09,.06,1.42-.06,.1-.31,.1-.38,.02l-.14-.57c-.06-.27-.16-.49-.46-.56-.21-.06-.56-.08-1.14-.08h-.86c-.44,0-.48,.01-.48,.4v2.08c0,.78,.04,1.29,.28,1.53,.18,.18,.49,.34,1.79,.34,1.14,0,1.56-.06,1.89-.22,.27-.15,.66-.66,1.05-1.43,.1-.08,.31-.03,.37,.1-.1,.52-.47,1.65-.67,2.05-1.33-.03-2.64-.04-3.96-.04h-1.33c-.64,0-1.14,.02-2.01,.04-.09-.04-.12-.28-.03-.37l.49-.05c.84-.07,.92-.3,.92-1.84v-5.32h0Z"/></g><g class="bg"><path class="bf" d="M185.97,61.64c0-1.4-.04-1.66-.65-1.73l-.47-.06c-.1-.08-.1-.31,.02-.37,.82-.08,1.85-.12,3.29-.12,.92,0,1.79,.08,2.47,.44,.71,.37,1.22,1.03,1.22,2.07,0,1.4-1.11,2.17-1.84,2.47-.07,.09,0,.24,.07,.36,1.18,1.91,1.96,3.09,2.97,3.93,.25,.22,.62,.38,1.02,.41,.08,.03,.09,.15,.01,.21-.13,.04-.37,.08-.65,.08-1.26,0-2.01-.37-3.06-1.86-.39-.55-.99-1.57-1.45-2.23-.22-.33-.46-.47-1.05-.47-.67,0-.69,.01-.69,.33v1.86c0,1.55,.03,1.73,.89,1.84l.31,.05c.09,.07,.06,.32-.03,.37-.66-.03-1.17-.04-1.76-.04-.62,0-1.16,.02-1.85,.04-.09-.04-.12-.26-.03-.37l.37-.05c.86-.1,.89-.3,.89-1.84v-5.3h0Zm1.21,2.11c0,.27,0,.43,.04,.49,.04,.04,.27,.07,1.02,.07,.53,0,1.09-.06,1.52-.39,.4-.31,.74-.83,.74-1.83,0-1.17-.72-2.28-2.37-2.28-.91,0-.96,.06-.96,.47v3.46h0Z"/></g><g class="cw"><path class="bf" d="M203.83,69.4c-1.24,0-2.02-.38-2.31-.55-.18-.33-.37-1.37-.4-2.07,.08-.1,.3-.13,.36-.04,.22,.75,.83,2.2,2.54,2.2,1.24,0,1.85-.81,1.85-1.7,0-.65-.13-1.38-1.21-2.07l-1.4-.92c-.74-.49-1.6-1.33-1.6-2.54,0-1.4,1.09-2.54,3.01-2.54,.46,0,.99,.09,1.38,.19,.19,.06,.4,.09,.52,.09,.13,.36,.27,1.18,.27,1.81-.06,.09-.3,.13-.37,.04-.19-.71-.59-1.67-2.01-1.67s-1.76,.96-1.76,1.64c0,.86,.71,1.48,1.26,1.82l1.18,.74c.93,.58,1.85,1.43,1.85,2.84,0,1.63-1.23,2.73-3.15,2.73"/></g><g class="bw"><path class="bf" d="M217.02,61.66c0-1.57-.03-1.82-.9-1.89l-.37-.03c-.09-.06-.06-.33,.03-.37,.74,.03,1.24,.04,1.86,.04s1.09-.01,1.83-.04c.09,.04,.12,.31,.03,.37l-.37,.03c-.87,.07-.9,.32-.9,1.89v5.26c0,1.57,.03,1.77,.9,1.87l.37,.05c.09,.06,.06,.32-.03,.37-.74-.03-1.24-.04-1.83-.04-.62,0-1.12,.02-1.86,.04-.09-.04-.12-.28-.03-.37l.37-.05c.87-.1,.9-.31,.9-1.87v-5.26Z"/></g><g class="bd"><path class="bf" d="M233.43,66.95c0,1.55,.03,1.77,.88,1.84l.48,.05c.09,.06,.06,.32-.03,.37-.84-.03-1.34-.05-1.94-.05s-1.11,.02-2.06,.05c-.09-.05-.12-.3,0-.37l.53-.05c.84-.07,.92-.3,.92-1.84v-6.61c0-.46,0-.47-.44-.47h-.81c-.63,0-1.45,.03-1.82,.37-.35,.33-.5,.65-.67,1.02-.12,.09-.33,.01-.39-.1,.24-.67,.46-1.61,.56-2.2,.05-.03,.24-.04,.28,0,.09,.47,.58,.46,1.26,.46h5.99c.8,0,.93-.03,1.15-.41,.07-.03,.24-.01,.26,.04-.16,.61-.26,1.8-.22,2.25-.06,.12-.31,.12-.39,.03-.04-.37-.15-.91-.37-1.08-.34-.25-.9-.37-1.72-.37h-1.05c-.44,0-.43,.01-.43,.5v6.58Z"/></g><g class="ck"><path class="bf" d="M250.26,66.92c0,1.58,.09,1.82,.89,1.87l.56,.05c.09,.09,.06,.32-.03,.37-.92-.03-1.42-.04-2.01-.04-.62,0-1.15,.02-1.94,.04-.09-.04-.12-.28-.03-.37l.46-.05c.85-.09,.88-.3,.88-1.87v-.75c0-.81-.04-1-.47-1.83l-1.74-3.4c-.5-.98-.72-1.05-1.17-1.12l-.41-.07c-.09-.1-.07-.31,.03-.37,.47,.03,1,.04,1.71,.04s1.21-.01,1.58-.04c.13,.04,.13,.28,.04,.37l-.19,.03c-.52,.07-.62,.15-.62,.27,0,.15,.39,.99,.46,1.14,.54,1.09,1.09,2.26,1.67,3.28,.46-.79,.94-1.64,1.39-2.5,.41-.77,.96-1.77,.96-1.95,0-.09-.26-.19-.62-.23l-.27-.03c-.1-.1-.09-.31,.03-.37,.53,.03,.96,.04,1.42,.04s.87-.01,1.38-.04c.12,.08,.13,.28,.03,.37l-.41,.07c-.77,.13-1.21,1.06-1.95,2.34l-.93,1.61c-.65,1.12-.7,1.26-.7,2.39v.77Z"/></g></g><g><g class="cc"><path class="bf" d="M39.57,73.06c1.27-.7,2.79-1.66,4.44-2.91v-14.94l-4.44-2.95v20.8Z"/></g><g class="bu"><path class="bf" d="M39.57,41.91l4.44,2.96v-7.55c-1.48-.07-2.96-.11-4.44-.12v4.71Z"/></g><g class="ci"><path class="bf" d="M52.89,38.11c-1.48-.19-2.96-.34-4.44-.47v10.2l4.44,2.96v-12.68Z"/></g><g class="cg"><path class="bf" d="M48.45,58.17v8.13c1.49-1.49,3-3.2,4.44-5.16h0s-4.44-2.97-4.44-2.97Z"/></g><g class="bl"><path class="bf" d="M52.89,61.14s0,0,0-.01h0s0,.01,0,.01Z"/></g><g class="cj"><path class="bf" d="M57.33,38.78v14.97h.01c1.94-4.01,3.5-8.69,4.38-14.14l-.15-.03c-1.4-.29-2.82-.56-4.24-.8"/></g><g class="bk"><polygon class="bf" points="44.01 44.87 44.01 55.22 48.45 58.17 48.45 47.83 44.01 44.87"/></g><g class="ct"><path class="bf" d="M52.89,50.79v10.34h0c1.59-2.14,3.1-4.59,4.43-7.36v-.03l-4.44-2.96Z"/></g><g class="be"><path class="bf" d="M57.33,53.77s0-.02,.01-.02h-.01s0,.02,0,.02Z"/></g><g class="co"><path class="bf" d="M29.82,55.89c1.31-.36,2.46-1.09,3.35-2.08-.48-.18-1.05-.35-1.7-.49-.48,1.07-1.09,1.93-1.64,2.58"/></g><g class="bt"><path class="bf" d="M22.77,53.81c.88,.99,2.04,1.72,3.35,2.08-.55-.65-1.16-1.5-1.65-2.58-.65,.15-1.22,.32-1.71,.5"/></g><g class="da"><path class="bf" d="M27.33,43.04c-.48,.53-1.05,1.28-1.52,2.22,.48,.06,.98,.11,1.52,.13v-2.35Z"/></g><g class="bv"><path class="bf" d="M31.91,52.1c.8,.19,1.48,.41,2.04,.63,.52-.87,.86-1.86,.96-2.92h-2.59c-.05,.83-.2,1.6-.41,2.29"/></g><g class="cx"><path class="bf" d="M26.12,42.45c-1.31,.36-2.47,1.1-3.35,2.08,.49,.18,1.05,.35,1.71,.49,.48-1.07,1.09-1.93,1.65-2.58"/></g><g class="bi"><path class="bf" d="M33.17,44.53c-.88-.99-2.04-1.72-3.35-2.08,.55,.65,1.16,1.5,1.65,2.58,.65-.15,1.22-.32,1.7-.49"/></g><g class="bs"><path class="bf" d="M32.32,48.53h2.59c-.1-1.06-.44-2.05-.96-2.92-.56,.22-1.24,.44-2.04,.63,.21,.7,.36,1.46,.41,2.29"/></g><g class="bp"><path class="bf" d="M28.61,55.31c.48-.53,1.06-1.28,1.53-2.23-.48-.06-.99-.11-1.53-.13v2.36Z"/></g><g class="br"><path class="bf" d="M27.33,49.81h-2.42c.06,.74,.2,1.42,.41,2.05,.62-.1,1.29-.16,2.02-.18v-1.86Z"/></g><g class="ba"><path class="bf" d="M28.61,51.67c.73,.03,1.41,.09,2.03,.18,.2-.62,.35-1.3,.4-2.05h-2.43v1.86Z"/></g><g class="cr"><path class="bf" d="M30.14,45.26c-.47-.96-1.05-1.71-1.53-2.24v2.36c.54-.02,1.06-.06,1.53-.13"/></g><g class="ch"><path class="bf" d="M31.04,48.53c-.05-.74-.2-1.43-.4-2.05-.62,.09-1.3,.16-2.03,.19v1.86h2.43Z"/></g><g class="cu"><path class="bf" d="M25.81,53.08c.47,.94,1.04,1.69,1.52,2.22v-2.35c-.54,.02-1.04,.06-1.52,.13"/></g><g class="cs"><path class="bf" d="M24.03,46.24c-.8-.19-1.49-.41-2.05-.63-.52,.87-.86,1.86-.96,2.92h2.59c.05-.83,.2-1.6,.41-2.29"/></g><g class="bc"><path class="bf" d="M27.33,46.67c-.72-.03-1.4-.09-2.02-.18-.2,.62-.35,1.3-.41,2.05h2.42v-1.86Z"/></g><g class="bm"><path class="bf" d="M23.62,49.81h-2.59c.1,1.06,.44,2.05,.96,2.92,.56-.22,1.24-.44,2.05-.64-.21-.69-.36-1.46-.41-2.29"/></g><g class="cq"><path class="bf" d="M15.31,39.61c3.26,20.15,15.88,29.99,22.16,33.45V37.2c-7.43,.07-14.83,.86-22.01,2.38l-.16,.03Zm12.66,1.3c4.55,0,8.26,3.7,8.26,8.26s-3.71,8.26-8.26,8.26-8.26-3.71-8.26-8.26c0-4.55,3.7-8.26,8.26-8.26"/></g><g class="cz"><path class="bf" d="M61.56,24.21h-.02c-7.43-1.59-15.13-2.43-23.02-2.43s-15.62,.84-23.05,2.43h-.03c-.52,.14-.91,.61-.91,1.18v4.17c0,2.74,.17,5.32,.47,7.77,7.72-1.63,15.63-2.45,23.55-2.45s15.81,.82,23.51,2.44c.3-2.44,.46-5.03,.46-7.76v-4.17c0-.58-.41-1.07-.96-1.18m-5.19,10.31c-5.78-1.1-12.41-1.43-17.85-1.43h0c-5.43,0-12.07,.34-17.85,1.43-.22,.04-.41-.16-.29-.39l3.8-8.39c.04-.08,2.49-1.29,2.49-1.29,3.12-.66,8.26-.37,11.84,.95h.01c3.58-1.32,8.72-1.61,11.84-.95,0,0,2.45,1.21,2.49,1.29l3.8,8.39c.12,.23-.07,.43-.29,.39"/></g><g class="bb"><path class="bf" d="M49.38,25.89l1.6,4.28c-3.72-.51-6.81-.28-11.36,1.21v.4c4.3-.16,9.74-.4,14.14,.54l-2.4-5.51-1.98-.92Z"/></g><g class="cf"><path class="bf" d="M26.01,30.17l1.6-4.28-1.98,.92-2.4,5.51c4.4-.95,9.84-.71,14.14-.54v-.4c-4.55-1.49-7.64-1.73-11.36-1.21"/></g></g><g><g class="cn"><path class="bf" d="M76.7,32.89c0-3.77-.34-4.17-2.34-4.34l-.85-.07c-.2-.14-.14-.75,.07-.85,1.97,.07,3.12,.1,4.54,.1s2.51-.03,3.87-.1c.2,.1,.27,.71,.07,.85l-.51,.07c-2,.27-2.07,.75-2.07,4.34v12.58c0,2.68-.14,5.02-.78,6.58-1.12,2.72-3.53,4.89-6.68,4.89-.41,0-1.46-.03-1.46-.71,0-.58,.51-1.56,1.22-1.56,.41,0,.82,.07,1.26,.21,.47,.13,.95,.24,1.42,.24,.71,0,1.12-.41,1.36-.88,.78-1.6,.88-6.68,.88-8.51,0,0,0-12.82,0-12.82Z"/></g><g class="by"><path class="bf" d="M81.99,40.88c0-5.72,4.29-10.1,10.19-10.1,6.61,0,9.93,4.78,9.93,9.82,0,5.78-4.41,9.99-9.93,9.99-6.35,0-10.19-4.55-10.19-9.7m17.26,.6c0-4.72-2.09-9.82-7.55-9.82-2.98,0-6.84,2.03-6.84,8.3,0,4.23,2.06,9.73,7.7,9.73,3.43,0,6.69-2.58,6.69-8.21"/></g><g class="bh"><path class="bf" d="M108.61,40.88c-1.37,0-1.43,.06-1.43,.92v4.03c0,3,.14,3.41,1.74,3.58l.83,.09c.17,.11,.11,.63-.06,.71-1.55-.06-2.52-.09-3.64-.09-1.23,0-2.2,.06-3.32,.09-.17-.09-.23-.54-.06-.71l.49-.09c1.6-.29,1.66-.57,1.66-3.58v-10.3c0-3-.2-3.49-1.69-3.61l-.74-.06c-.17-.11-.11-.63,.06-.72,1.4,.03,2.38,.09,3.61,.09,1.12,0,2.09-.03,3.32-.09,.17,.09,.23,.6,.06,.72l-.54,.06c-1.66,.17-1.72,.6-1.72,3.61v3.29c0,.89,.06,.92,1.43,.92h8.18c1.37,0,1.43-.03,1.43-.92v-3.29c0-3-.06-3.43-1.74-3.61l-.54-.06c-.17-.11-.11-.63,.06-.72,1.32,.06,2.29,.09,3.46,.09s2.09-.03,3.38-.09c.17,.09,.23,.6,.06,.72l-.6,.06c-1.66,.17-1.72,.6-1.72,3.61v10.3c0,3,.06,3.38,1.72,3.58l.69,.09c.17,.11,.11,.63-.06,.71-1.37-.06-2.35-.09-3.46-.09-1.17,0-2.2,.03-3.46,.09-.17-.09-.23-.54-.06-.71l.54-.09c1.74-.29,1.74-.57,1.74-3.58v-4.03c0-.86-.06-.92-1.43-.92h-8.18Z"/></g><g class="bj"><path class="bf" d="M142.52,45.26c0,.86,0,4.26,.09,5.01-.06,.17-.23,.31-.54,.31-.34-.48-1.17-1.49-3.66-4.32l-6.64-7.55c-.77-.89-2.72-3.23-3.32-3.86h-.06c-.11,.34-.14,1-.14,1.86v6.24c0,1.34,.03,5.06,.52,5.92,.17,.32,.74,.49,1.46,.54l.89,.09c.17,.23,.14,.57-.06,.71-1.29-.06-2.29-.09-3.35-.09-1.2,0-1.98,.03-2.98,.09-.2-.14-.23-.54-.06-.71l.77-.09c.66-.09,1.12-.26,1.26-.57,.4-1.03,.37-4.52,.37-5.89v-8.27c0-.8-.03-1.4-.63-2.06-.4-.4-1.09-.6-1.77-.69l-.49-.06c-.17-.17-.17-.6,.06-.72,1.2,.09,2.72,.09,3.23,.09,.46,0,.94-.03,1.32-.09,.57,1.46,3.95,5.24,4.89,6.3l2.77,3.12c1.97,2.2,3.38,3.81,4.72,5.18h.06c.12-.14,.12-.6,.12-1.2v-6.12c0-1.34-.03-5.06-.57-5.92-.17-.26-.63-.43-1.77-.57l-.49-.06c-.2-.17-.17-.63,.06-.72,1.32,.06,2.29,.09,3.38,.09,1.23,0,1.97-.03,2.95-.09,.23,.14,.23,.54,.06,.72l-.4,.06c-.92,.14-1.49,.37-1.6,.6-.49,1.03-.43,4.58-.43,5.89v6.84h0Z"/></g><g class="cd"><path class="bf" d="M150.08,50.58c-2.4,0-3.92-.74-4.46-1.06-.34-.63-.72-2.66-.77-4,.15-.2,.57-.26,.69-.09,.43,1.46,1.6,4.26,4.92,4.26,2.4,0,3.58-1.58,3.58-3.29,0-1.26-.26-2.66-2.35-4.01l-2.72-1.78c-1.43-.94-3.09-2.58-3.09-4.92,0-2.72,2.12-4.92,5.84-4.92,.89,0,1.92,.17,2.66,.37,.37,.12,.77,.17,1,.17,.26,.69,.52,2.29,.52,3.49-.11,.17-.57,.26-.72,.09-.37-1.37-1.14-3.23-3.89-3.23s-3.41,1.86-3.41,3.18c0,1.66,1.37,2.86,2.43,3.52l2.29,1.43c1.8,1.12,3.58,2.78,3.58,5.49,0,3.15-2.38,5.29-6.1,5.29"/></g><g class="bq"><path class="bf" d="M173.16,39.17c-1.63,0-1.7,.07-1.7,1.08v4.78c0,3.56,.17,4.04,2.07,4.24l.98,.1c.2,.13,.14,.75-.07,.84-1.83-.07-2.98-.1-4.31-.1-1.46,0-2.61,.07-3.94,.1-.2-.1-.27-.64-.07-.84l.58-.1c1.9-.34,1.97-.68,1.97-4.24v-12.21c0-3.56-.24-4.14-2-4.27l-.88-.07c-.2-.13-.14-.75,.07-.85,1.66,.03,2.82,.1,4.27,.1,1.32,0,2.48-.03,3.93-.1,.2,.1,.27,.71,.07,.85l-.64,.07c-1.97,.21-2.03,.71-2.03,4.27v3.9c0,1.05,.07,1.08,1.7,1.08h9.7c1.63,0,1.7-.03,1.7-1.08v-3.9c0-3.56-.07-4.07-2.07-4.27l-.65-.07c-.2-.13-.13-.75,.07-.85,1.56,.07,2.71,.1,4.1,.1s2.48-.03,4-.1c.2,.1,.27,.71,.07,.85l-.71,.07c-1.97,.21-2.04,.71-2.04,4.27v12.21c0,3.56,.07,4,2.04,4.24l.81,.1c.2,.13,.14,.75-.07,.84-1.63-.07-2.78-.1-4.1-.1-1.39,0-2.61,.03-4.1,.1-.2-.1-.27-.64-.07-.84l.65-.1c2.07-.34,2.07-.68,2.07-4.24v-4.78c0-1.02-.07-1.08-1.7-1.08h-9.7Z"/></g><g class="cp"><path class="bf" d="M189.97,40.88c0-5.72,4.29-10.1,10.19-10.1,6.61,0,9.93,4.78,9.93,9.82,0,5.78-4.41,9.99-9.93,9.99-6.35,0-10.19-4.55-10.19-9.7m17.26,.6c0-4.72-2.09-9.82-7.55-9.82-2.97,0-6.84,2.03-6.84,8.3,0,4.23,2.06,9.73,7.7,9.73,3.44,0,6.69-2.58,6.69-8.21"/></g><g class="ce"><path class="bf" d="M215.27,45.83c0,3,.06,3.38,1.89,3.58l.77,.09c.17,.14,.12,.63-.06,.72-1.63-.06-2.58-.09-3.72-.09-1.2,0-2.23,.03-3.49,.09-.17-.09-.23-.54-.06-.72l.6-.09c1.66-.23,1.72-.57,1.72-3.58v-10.56c0-2.43-.06-2.92-1.34-3.06l-1.03-.12c-.2-.17-.17-.6,.06-.71,1.52-.2,3.29-.23,5.66-.23s4.15,.31,5.49,1.15c1.32,.83,2.29,2.32,2.29,4.29,0,2.63-1.63,3.95-2.86,4.55-1.26,.6-2.77,.86-3.95,.86-.2-.08-.2-.51-.03-.57,3.09-.57,4.21-2.32,4.21-4.81,0-2.78-1.63-4.58-4.61-4.58-1.52,0-1.55,.11-1.55,1.03v12.76h0Z"/></g><g class="cv"><path class="bf" d="M227.17,35.53c0-3-.06-3.46-1.72-3.6l-.72-.06c-.17-.12-.11-.63,.06-.72,1.4,.06,2.32,.09,3.6,.09,1.12,0,2.09-.03,3.32-.09,.17,.09,.23,.6,.06,.72l-.54,.06c-1.66,.17-1.72,.6-1.72,3.6v3.29c0,.54,.06,1.09,.37,1.09,.26,0,.6-.17,.8-.31,.4-.34,1.14-1.09,1.46-1.37l3.09-3.06c.54-.52,1.95-1.98,2.23-2.38,.14-.2,.2-.34,.2-.46s-.11-.2-.49-.28l-.77-.17c-.2-.2-.17-.57,.06-.72,1,.06,2.15,.09,3.15,.09s1.97-.03,2.83-.09c.2,.14,.23,.54,.06,.72-.74,.06-1.86,.34-2.66,.8-.8,.46-2.41,1.8-4.01,3.32l-2.58,2.43c-.4,.4-.66,.66-.66,.89,0,.2,.17,.43,.54,.89,2.72,3.12,4.92,5.69,7.16,8.04,.69,.69,1.21,1.06,2.18,1.17l.55,.09c.2,.14,.14,.63-.06,.72-.74-.06-1.53-.09-2.87-.09-1.17,0-2.18,.03-3.49,.09-.2-.06-.28-.55-.11-.72l.66-.12c.4-.06,.69-.14,.69-.28,0-.17-.2-.4-.4-.66-.54-.69-1.29-1.46-2.37-2.69l-2.29-2.58c-1.63-1.83-2.09-2.4-2.78-2.4-.43,0-.49,.37-.49,1.37v3.69c0,3,.06,3.4,1.66,3.58l.77,.09c.17,.11,.11,.63-.06,.72-1.4-.06-2.38-.09-3.49-.09-1.17,0-2.14,.03-3.32,.09-.17-.09-.23-.52-.06-.72l.57-.09c1.52-.23,1.57-.57,1.57-3.58v-10.3h0Z"/></g><g class="cy"><path class="bf" d="M246.82,35.58c0-3.03-.06-3.52-1.75-3.66l-.71-.06c-.17-.12-.12-.63,.05-.72,1.43,.06,2.4,.09,3.61,.09s2.12-.03,3.55-.09c.17,.09,.23,.6,.06,.72l-.72,.06c-1.69,.14-1.75,.63-1.75,3.66v10.19c0,3.03,.06,3.44,1.75,3.64l.72,.09c.17,.11,.11,.63-.06,.72-1.43-.06-2.4-.09-3.55-.09-1.2,0-2.07,.03-3.5,.09-.17-.09-.23-.54-.06-.72l.6-.09c1.69-.2,1.75-.6,1.75-3.64v-10.19h0Z"/></g><g class="bz"><path class="bf" d="M271.57,45.26c0,.86,0,4.26,.09,5.01-.06,.17-.23,.31-.54,.31-.34-.48-1.17-1.49-3.66-4.32l-6.64-7.55c-.77-.89-2.72-3.23-3.32-3.86h-.06c-.12,.34-.15,1-.15,1.86v6.24c0,1.34,.03,5.06,.52,5.92,.17,.32,.74,.49,1.46,.54l.89,.09c.17,.23,.14,.57-.06,.71-1.29-.06-2.29-.09-3.35-.09-1.2,0-1.97,.03-2.97,.09-.2-.14-.23-.54-.06-.71l.77-.09c.66-.09,1.11-.26,1.26-.57,.4-1.03,.37-4.52,.37-5.89v-8.27c0-.8-.03-1.4-.63-2.06-.4-.4-1.09-.6-1.77-.69l-.49-.06c-.17-.17-.17-.6,.06-.72,1.2,.09,2.72,.09,3.23,.09,.46,0,.94-.03,1.32-.09,.57,1.46,3.95,5.24,4.89,6.3l2.78,3.12c1.97,2.2,3.38,3.81,4.72,5.18h.06c.11-.14,.11-.6,.11-1.2v-6.12c0-1.34-.03-5.06-.57-5.92-.17-.26-.63-.43-1.77-.57l-.49-.06c-.2-.17-.17-.63,.05-.72,1.32,.06,2.29,.09,3.38,.09,1.23,0,1.97-.03,2.95-.09,.23,.14,.23,.54,.06,.72l-.4,.06c-.92,.14-1.49,.37-1.6,.6-.49,1.03-.43,4.58-.43,5.89v6.84h0Z"/></g><g class="bo"><path class="bf" d="M279.08,50.58c-2.4,0-3.92-.74-4.47-1.06-.34-.63-.72-2.66-.77-4,.15-.2,.57-.26,.69-.09,.43,1.46,1.6,4.26,4.92,4.26,2.4,0,3.58-1.58,3.58-3.29,0-1.26-.26-2.66-2.35-4.01l-2.72-1.78c-1.43-.94-3.09-2.58-3.09-4.92,0-2.72,2.12-4.92,5.84-4.92,.89,0,1.92,.17,2.66,.37,.37,.12,.77,.17,1,.17,.26,.69,.52,2.29,.52,3.49-.12,.17-.57,.26-.72,.09-.37-1.37-1.14-3.23-3.89-3.23s-3.41,1.86-3.41,3.18c0,1.66,1.37,2.86,2.43,3.52l2.29,1.43c1.8,1.12,3.58,2.78,3.58,5.49,0,3.15-2.38,5.29-6.09,5.29"/></g></g></svg>